<?xml version="1.0" encoding="UTF-8" standalone="no"?>
<svg
   id="Groupe_42"
   data-name="Groupe 42"
   width="300"
   height="200"
   viewBox="0 0 300 200.00001"
   version="1.1"
   sodipodi:docname="LL.svg"
   inkscape:version="1.3.2 (091e20e, 2023-11-25)"
   xmlns:inkscape="http://www.inkscape.org/namespaces/inkscape"
   xmlns:sodipodi="http://sodipodi.sourceforge.net/DTD/sodipodi-0.dtd"
   xmlns="http://www.w3.org/2000/svg"
   xmlns:svg="http://www.w3.org/2000/svg">
  <defs
     id="defs1" />
  <sodipodi:namedview
     id="namedview1"
     pagecolor="#ffffff"
     bordercolor="#000000"
     borderopacity="0.25"
     inkscape:showpageshadow="2"
     inkscape:pageopacity="0.0"
     inkscape:pagecheckerboard="0"
     inkscape:deskcolor="#d1d1d1"
     inkscape:zoom="2.1168125"
     inkscape:cx="166.05155"
     inkscape:cy="-2.1258378"
     inkscape:window-width="1840"
     inkscape:window-height="1027"
     inkscape:window-x="0"
     inkscape:window-y="62"
     inkscape:window-maximized="0"
     inkscape:current-layer="Groupe_42" />
  <g
     id="g1"
     transform="matrix(1.4647902,0,0,1.4647902,-2.9974442,6.3899562)">
    <path
       id="Tracé_1"
       data-name="Tracé 1"
       d="m 68.942,64.993 h 0.43 a 0.662,0.662 0 0 0 0.8,-0.777 V 55.462 A 0.773,0.773 0 0 0 69.998,54.9 0.805,0.805 0 0 0 69.415,54.726 h -0.471 v -1.493 h 4.622 v 1.493 h -0.491 a 0.631,0.631 0 0 0 -0.736,0.736 v 9.531 h 3.539 a 0.844,0.844 0 0 0 0.593,-0.174 0.774,0.774 0 0 0 0.184,-0.583 v -0.655 h 1.964 v 2.884 h -9.674 z"
       fill="#ce5e51" />
    <path
       id="Tracé_2"
       data-name="Tracé 2"
       d="m 80.998,65.474 a 4.92,4.92 0 0 1 -1.4,-3.794 5.533,5.533 0 0 1 1.3,-4 4.906,4.906 0 0 1 3.692,-1.34 4.483,4.483 0 0 1 3.5,1.309 5.072,5.072 0 0 1 1.186,3.539 v 0.941 H 81.77 a 3.278,3.278 0 0 0 0.808,2.444 2.986,2.986 0 0 0 2.178,0.788 6.432,6.432 0 0 0 1.309,-0.113 2.974,2.974 0 0 0 0.961,-0.378 v -0.736 h 1.9 v 1.433 a 6.237,6.237 0 0 1 -1.851,0.91 8.231,8.231 0 0 1 -2.342,0.3 5.271,5.271 0 0 1 -3.735,-1.303 z m 6.167,-4.673 q 0,-2.986 -2.6,-2.986 a 2.658,2.658 0 0 0 -2.086,0.8 3.158,3.158 0 0 0 -0.716,2.189 z"
       fill="#ce5e51" />
    <path
       id="Tracé_3"
       data-name="Tracé 3"
       d="m 91.306,66.057 a 2.9,2.9 0 0 1 0.082,-4.183 5.111,5.111 0 0 1 2.69,-0.808 l 2.864,-0.184 v -1.247 a 1.971,1.971 0 0 0 -0.409,-1.391 1.867,1.867 0 0 0 -1.391,-0.43 4.606,4.606 0 0 0 -1.115,0.113 2.609,2.609 0 0 0 -0.808,0.358 v 0.736 h -1.9 v -1.616 a 7.2,7.2 0 0 1 3.866,-1.064 q 3.927,0 3.927,3.477 v 4.479 a 0.923,0.923 0 0 0 0.153,0.593 0.618,0.618 0 0 0 0.5,0.184 h 0.45 v 1.393 h -2.352 l -0.266,-1.288 a 3.912,3.912 0 0 1 -1.524,1.217 5.789,5.789 0 0 1 -2.28,0.378 3.766,3.766 0 0 1 -2.487,-0.717 z m 4.919,-1.29 a 1.882,1.882 0 0 0 0.716,-1.616 v -0.984 l -2.7,0.2 a 2.281,2.281 0 0 0 -1.391,0.419 1.476,1.476 0 0 0 -0.389,1.135 1.238,1.238 0 0 0 0.429,1.023 2.213,2.213 0 0 0 1.391,0.348 3.19,3.19 0 0 0 1.944,-0.525 z"
       fill="#ce5e51" />
    <path
       id="Tracé_4"
       data-name="Tracé 4"
       d="m 101.604,64.952 h 0.512 a 0.639,0.639 0 0 0 0.757,-0.757 v -5.277 a 0.845,0.845 0 0 0 -0.164,-0.572 0.709,0.709 0 0 0 -0.552,-0.184 h -0.429 v -1.513 h 2.822 l 0.286,1.125 a 2.153,2.153 0 0 1 1.053,-0.88 4.281,4.281 0 0 1 1.524,-0.245 h 0.941 v 1.513 h -1.145 a 2.2,2.2 0 0 0 -1.657,0.522 2.272,2.272 0 0 0 -0.491,1.605 v 3.906 a 0.838,0.838 0 0 0 0.164,0.583 0.735,0.735 0 0 0 0.552,0.174 h 0.511 v 1.513 h -4.684 z"
       fill="#ce5e51" />
    <path
       id="Tracé_5"
       data-name="Tracé 5"
       d="m 109.333,64.953 h 0.511 a 0.64,0.64 0 0 0 0.757,-0.757 V 58.94 a 0.84,0.84 0 0 0 -0.164,-0.583 0.768,0.768 0 0 0 -0.572,-0.174 h -0.43 v -1.534 h 2.618 l 0.123,1.37 a 4.238,4.238 0 0 1 1.585,-1.278 5.257,5.257 0 0 1 2.158,-0.4 q 3.272,0 3.272,3.4 V 64.2 a 0.64,0.64 0 0 0 0.757,0.757 h 0.573 v 1.51 h -3.518 v -6.709 a 2.129,2.129 0 0 0 -0.43,-1.483 1.826,1.826 0 0 0 -1.391,-0.46 2.507,2.507 0 0 0 -1.718,0.593 2.091,2.091 0 0 0 -0.675,1.657 v 4.131 a 0.879,0.879 0 0 0 0.153,0.583 0.7,0.7 0 0 0 0.542,0.174 h 0.532 v 1.514 h -4.683 z"
       fill="#ce5e51" />
    <path
       id="Tracé_6"
       data-name="Tracé 6"
       d="m 121.708,64.957 h 0.593 a 0.775,0.775 0 0 0 0.583,-0.184 0.845,0.845 0 0 0 0.174,-0.593 v -5.257 a 0.773,0.773 0 0 0 -0.174,-0.562 0.806,0.806 0 0 0 -0.583,-0.174 h -0.593 v -1.534 h 3.538 V 64.2 a 0.659,0.659 0 0 0 0.757,0.757 h 0.593 v 1.513 h -4.888 z m 1.289,-11.74 h 2.311 v 1.882 h -2.311 z"
       fill="#ce5e51" />
    <path
       id="Tracé_7"
       data-name="Tracé 7"
       d="m 127.986,64.953 h 0.512 a 0.64,0.64 0 0 0 0.757,-0.757 V 58.94 a 0.84,0.84 0 0 0 -0.164,-0.583 0.768,0.768 0 0 0 -0.573,-0.174 h -0.425 v -1.534 h 2.618 l 0.123,1.37 a 4.238,4.238 0 0 1 1.586,-1.278 5.257,5.257 0 0 1 2.158,-0.4 q 3.272,0 3.272,3.4 V 64.2 a 0.64,0.64 0 0 0 0.757,0.757 h 0.573 v 1.51 h -3.518 v -6.709 a 2.127,2.127 0 0 0 -0.43,-1.483 1.827,1.827 0 0 0 -1.391,-0.46 2.506,2.506 0 0 0 -1.718,0.593 2.09,2.09 0 0 0 -0.675,1.657 v 4.131 a 0.877,0.877 0 0 0 0.154,0.583 0.7,0.7 0 0 0 0.542,0.174 h 0.532 v 1.514 h -4.684 z"
       fill="#ce5e51" />
    <path
       id="Tracé_8"
       data-name="Tracé 8"
       d="m 141.445,69.125 v -1.411 h 1.882 v 0.736 a 2.378,2.378 0 0 0 0.828,0.4 4.4,4.4 0 0 0 1.074,0.113 1.889,1.889 0 0 0 2.127,-2.148 v -1.636 a 3.28,3.28 0 0 1 -1.35,1.1 4.734,4.734 0 0 1 -1.9,0.348 4,4 0 0 1 -3.221,-1.329 5.8,5.8 0 0 1 -1.135,-3.866 5.435,5.435 0 0 1 1.2,-3.763 4.143,4.143 0 0 1 3.242,-1.33 4.364,4.364 0 0 1 2,0.419 3.86,3.86 0 0 1 1.432,1.34 l 0.184,-1.473 h 2.741 v 1.411 h -0.43 a 0.6,0.6 0 0 0 -0.511,0.194 1.112,1.112 0 0 0 -0.143,0.645 v 7.608 a 3.835,3.835 0 0 1 -4.091,4.07 5.436,5.436 0 0 1 -3.929,-1.428 z m 5.164,-4.858 a 3.293,3.293 0 0 0 0.685,-2.26 v -0.94 a 3.525,3.525 0 0 0 -0.7,-2.3 2.9,2.9 0 0 0 -4.08,-0.02 4.418,4.418 0 0 0 -0.644,2.689 4.646,4.646 0 0 0 0.634,2.771 2.488,2.488 0 0 0 2.107,0.829 2.535,2.535 0 0 0 1.998,-0.769 z"
       fill="#ce5e51" />
    <path
       id="Tracé_9"
       data-name="Tracé 9"
       d="m 152.15,64.159 h 0.525 a 0.992,0.992 0 0 0 0.72,-0.217 0.919,0.919 0 0 0 0.217,-0.674 v -8.429 q 0,-0.845 -0.914,-0.845 h -0.548 v -2.307 h 6.487 v 2.307 h -0.529 q -0.914,0 -0.914,0.845 v 9.319 h 2.314 a 0.8,0.8 0 0 0 0.914,-0.891 v -0.891 h 3.266 v 4.089 H 152.15 Z"
       fill="#ce5e51" />
    <path
       id="Tracé_10"
       data-name="Tracé 10"
       d="m 165.63,65.998 a 2.794,2.794 0 0 1 -0.994,-2.3 2.944,2.944 0 0 1 1.119,-2.524 6.132,6.132 0 0 1 3.29,-0.971 l 2.421,-0.16 v -1.279 a 1.368,1.368 0 0 0 -0.32,-1.017 1.482,1.482 0 0 0 -1.051,-0.308 2.506,2.506 0 0 0 -1.439,0.434 v 0.822 h -3.015 v -2.261 a 8.668,8.668 0 0 1 4.591,-1.279 5.367,5.367 0 0 1 3.666,1.074 3.7,3.7 0 0 1 1.2,2.9 v 4.249 a 0.937,0.937 0 0 0 0.172,0.628 0.712,0.712 0 0 0 0.56,0.194 h 0.342 v 2.261 h -3.038 l -0.32,-1.439 a 4.81,4.81 0 0 1 -1.747,1.382 6.358,6.358 0 0 1 -2.479,0.4 4.6,4.6 0 0 1 -2.958,-0.806 z m 5.31,-1.873 a 1.625,1.625 0 0 0 0.526,-1.313 v -0.868 l -2.056,0.16 a 1.948,1.948 0 0 0 -1.131,0.366 1.2,1.2 0 0 0 -0.331,0.936 q 0,1.165 1.462,1.165 a 2.306,2.306 0 0 0 1.531,-0.446 z"
       fill="#ce5e51" />
    <path
       id="Tracé_11"
       data-name="Tracé 11"
       d="m 181.474,66.375 a 3.712,3.712 0 0 1 -1.588,-1.439 l -0.182,1.531 h -2.49 V 54.611 a 1.083,1.083 0 0 0 -0.183,-0.685 0.808,0.808 0 0 0 -0.662,-0.228 h -0.388 v -2.349 h 4.523 v 5.071 a 4.628,4.628 0 0 1 1.576,-0.959 5.922,5.922 0 0 1 1.964,-0.3 4.356,4.356 0 0 1 3.621,1.531 6.928,6.928 0 0 1 1.222,4.409 5.981,5.981 0 0 1 -1.382,4.215 4.78,4.78 0 0 1 -3.689,1.5 5.614,5.614 0 0 1 -2.342,-0.441 z m 3.335,-2.5 a 5.834,5.834 0 0 0 0.514,-2.821 5.694,5.694 0 0 0 -0.514,-2.8 1.942,1.942 0 0 0 -1.816,-0.857 2,2 0 0 0 -1.679,0.788 3.546,3.546 0 0 0 -0.606,2.2 v 1.264 a 3.748,3.748 0 0 0 0.628,2.216 1.976,1.976 0 0 0 1.7,0.891 1.88,1.88 0 0 0 1.773,-0.883 z"
       fill="#ce5e51" />
    <path
       id="Tracé_12"
       data-name="Tracé 12"
       d="M 78.691,87.481 72.958,77.065 c 0.137,1.6 0.137,2.993 0.137,3.906 v 6.51 H 68.991 V 71.72 h 5.117 l 5.983,10.873 c -0.114,-1.6 -0.137,-3.221 -0.137,-4.135 V 71.72 h 4.112 v 15.761 z"
       fill="#3f3e3e" />
    <path
       id="Tracé_13"
       data-name="Tracé 13"
       d="m 97.951,82.41 h -8.5 c 0.206,2.033 1.1,2.6 2.262,2.6 a 1.843,1.843 0 0 0 2.033,-1.531 h 4.043 c -0.708,2.764 -2.992,4.317 -6.122,4.317 -3.495,0 -6.282,-2.079 -6.282,-6.373 a 6.21,6.21 0 0 1 6.51,-6.464 5.949,5.949 0 0 1 6.122,6.259 10.968,10.968 0 0 1 -0.066,1.192 z m -8.36,-2.513 h 4.135 C 93.497,78.458 92.79,77.75 91.693,77.75 c -1.074,0 -1.828,0.64 -2.102,2.151 z"
       fill="#3f3e3e" />
    <path
       id="Tracé_14"
       data-name="Tracé 14"
       d="m 104.736,82.433 c 0,0.411 0,0.868 0.023,1.187 0.092,1.234 0.48,1.508 2.421,1.416 v 2.558 a 13.843,13.843 0 0 1 -2.421,0.206 c -3.038,0 -3.952,-0.937 -4.088,-2.809 -0.046,-0.708 -0.046,-1.279 -0.046,-1.965 v -5.094 h -1.941 v -2.558 h 1.941 V 71.74 h 4.112 v 3.634 h 2.7 v 2.558 h -2.7 z"
       fill="#3f3e3e" />
    <path
       id="Tracé_15"
       data-name="Tracé 15"
       d="m 124.313,87.481 h -4.591 l -1.553,-8.223 -1.554,8.223 h -4.591 l -3.86,-12.2 h 4.523 l 1.6,8.726 1.462,-8.634 h 4.888 l 1.553,8.657 1.553,-8.749 h 4.431 z"
       fill="#3f3e3e" />
    <path
       id="Tracé_16"
       data-name="Tracé 16"
       d="m 141.192,81.382 c 0,3.906 -2.558,6.419 -6.556,6.419 -3.998,0 -6.556,-2.513 -6.556,-6.419 0,-3.929 2.558,-6.419 6.556,-6.419 3.998,0 6.556,2.49 6.556,6.419 z m -4.2,0 c 0,-2.444 -0.891,-3.632 -2.353,-3.632 -1.462,0 -2.353,1.188 -2.353,3.632 0,2.421 0.891,3.632 2.353,3.632 1.462,0 2.35,-1.213 2.35,-3.632 z"
       fill="#3f3e3e" />
    <path
       id="Tracé_17"
       data-name="Tracé 17"
       d="m 150.832,75.032 v 3.358 c -3.084,-0.206 -4.2,0.937 -4.2,4.614 v 4.477 h -4.112 v -12.2 h 4.112 v 2.467 l 0.868,-1.713 a 3.349,3.349 0 0 1 2.4,-1.074 5.612,5.612 0 0 1 0.932,0.071 z"
       fill="#3f3e3e" />
    <path
       id="Tracé_18"
       data-name="Tracé 18"
       d="m 156.222,83.918 v 3.563 h -4.111 V 70.692 h 4.111 v 9.707 l 4.294,-5.117 h 4.82 l -5.162,5.6 5.231,6.6 h -5.048 l -3.266,-4.523 z"
       fill="#3f3e3e" />
    <circle
       id="Ellipse_1"
       data-name="Ellipse 1"
       cx="23.171"
       cy="56.839001"
       r="3.171"
       fill="#3f3e3e" />
    <g
       id="Groupe_2"
       data-name="Groupe 2"
       transform="translate(20,40)">
      <path
         id="Tracé_19"
         data-name="Tracé 19"
         d="m 139.472,212.239 a 6.517,6.517 0 0 1 0.011,-9.14 v 0 a 3.168,3.168 0 0 0 0,-4.5 v 0 0 a 3.166,3.166 0 0 0 -4.5,0.05 6.515,6.515 0 0 1 -9.251,-0.05 h -0.013 a 3.171,3.171 0 1 0 -0.01,4.523 v 0.022 a 6.52,6.52 0 1 1 9.331,9.108 h 0.009 a 3.171,3.171 0 1 0 4.418,0 z"
         transform="translate(-120.317,-197.672)"
         fill="#ce5e51" />
      <path
         id="Tracé_20"
         data-name="Tracé 20"
         d="m 138.941,247.988 h 0.019 l -0.019,-0.02 z"
         transform="translate(-133.555,-233.422)"
         fill="#ce5e51" />
    </g>
    <g
       id="Groupe_3"
       data-name="Groupe 3"
       transform="translate(33.788,67.446)">
      <path
         id="Tracé_21"
         data-name="Tracé 21"
         d="m 187.135,307.138 h 0.01 a 6.517,6.517 0 0 1 0.011,-9.14 v 0 a 3.168,3.168 0 0 0 0,-4.505 v 0 0 a 3.166,3.166 0 0 0 -4.5,0.05 6.515,6.515 0 0 1 -9.251,-0.05 h -0.013 a 3.171,3.171 0 1 0 -0.011,4.523 v 0.022 a 6.52,6.52 0 1 1 9.331,9.108 h 0.009 a 3.171,3.171 0 1 0 4.418,0 z"
         transform="translate(-167.99,-292.571)"
         fill="#3f3e3e" />
      <path
         id="Tracé_22"
         data-name="Tracé 22"
         d="m 186.613,342.887 h 0.02 l -0.02,-0.021 z"
         transform="translate(-181.227,-328.32)"
         fill="#3f3e3e" />
    </g>
    <g
       id="Groupe_4"
       data-name="Groupe 4"
       transform="translate(20.002,67.465)">
      <path
         id="Tracé_23"
         data-name="Tracé 23"
         d="m 137.26,306.3 a 3.159,3.159 0 0 0 -2.216,0.9 v -0.022 a 6.52,6.52 0 1 1 -9.331,-9.108 H 125.7 a 3.171,3.171 0 1 0 -4.418,0 h -0.011 a 6.517,6.517 0 0 1 -0.011,9.14 v 0 a 3.168,3.168 0 0 0 0,4.5 v 0 0 a 3.167,3.167 0 0 0 4.5,-0.05 6.515,6.515 0 0 1 9.251,0.05 h 0.013 a 3.17,3.17 0 1 0 2.226,-5.427 z"
         transform="translate(-120.324,-292.634)"
         fill="#3f3e3e" />
      <path
         id="Tracé_24"
         data-name="Tracé 24"
         d="m 171.172,311.453 h -0.019 l 0.019,0.02 z"
         transform="translate(-156.452,-306.01)"
         fill="#3f3e3e" />
    </g>
  </g>
</svg>
