<?xml version="1.0" encoding="UTF-8" standalone="no"?>
<!-- Created with Inkscape (http://www.inkscape.org/) -->

<svg
   xmlns:dc="http://purl.org/dc/elements/1.1/"
   xmlns:cc="http://creativecommons.org/ns#"
   xmlns:rdf="http://www.w3.org/1999/02/22-rdf-syntax-ns#"
   xmlns:svg="http://www.w3.org/2000/svg"
   xmlns="http://www.w3.org/2000/svg"
   xmlns:sodipodi="http://sodipodi.sourceforge.net/DTD/sodipodi-0.dtd"
   xmlns:inkscape="http://www.inkscape.org/namespaces/inkscape"
   id="svg2"
   version="1.1"
   inkscape:version="0.91 r13725"
   width="171.29637"
   height="59.422501"
   xml:space="preserve"
   sodipodi:docname="LOGO_UL.svg"><metadata
     id="metadata8"><rdf:RDF><cc:Work
         rdf:about=""><dc:format>image/svg+xml</dc:format><dc:type
           rdf:resource="http://purl.org/dc/dcmitype/StillImage" /><dc:title></dc:title></cc:Work></rdf:RDF></metadata><defs
     id="defs6"><clipPath
       clipPathUnits="userSpaceOnUse"
       id="clipPath16"><path
         d="m 0,841.89 1190.55,0 L 1190.55,0 0,0 0,841.89 Z"
         id="path18"
         inkscape:connector-curvature="0" /></clipPath></defs><sodipodi:namedview
     pagecolor="#ffffff"
     bordercolor="#666666"
     borderopacity="1"
     objecttolerance="10"
     gridtolerance="10"
     guidetolerance="10"
     inkscape:pageopacity="0"
     inkscape:pageshadow="2"
     inkscape:window-width="1680"
     inkscape:window-height="980"
     id="namedview4"
     showgrid="false"
     inkscape:zoom="0.44851463"
     inkscape:cx="631.51027"
     inkscape:cy="-259.27347"
     inkscape:window-x="0"
     inkscape:window-y="16"
     inkscape:window-maximized="0"
     inkscape:current-layer="g10"
     fit-margin-top="0"
     fit-margin-left="0"
     fit-margin-right="0"
     fit-margin-bottom="0" /><g
     id="g10"
     inkscape:groupmode="layer"
     inkscape:label="LOGO_UL"
     transform="matrix(1.25,0,0,-1.25,-660.981,555.89175)"><g
       id="g12"><g
         id="g14"
         clip-path="url(#clipPath16)"><g
           id="g20"
           transform="translate(585.6777,432.9629)"><path
             d="m 0,0 0,-8.199 c 0,-1.12 0.487,-1.704 1.575,-1.704 1.088,0 1.591,0.584 1.591,1.704 l 0,8.199 2.24,0 0,-8.215 c 0,-2.581 -1.526,-3.669 -3.831,-3.669 -2.305,0 -3.815,1.088 -3.815,3.669 L -2.24,0 0,0 Z"
             style="fill:#2d2c2e;fill-opacity:1;fill-rule:nonzero;stroke:none"
             id="path22"
             inkscape:connector-curvature="0" /></g><g
           id="g24"
           transform="translate(592.6982,421.2412)"><path
             d="m 0,0 0,11.722 2.452,0 3.117,-6.949 0.033,0 0,6.949 2.045,0 L 7.647,0 5.504,0 2.078,7.565 2.046,7.565 2.046,0 0,0 Z"
             style="fill:#2d2c2e;fill-opacity:1;fill-rule:nonzero;stroke:none"
             id="path26"
             inkscape:connector-curvature="0" /></g><path
           d="m 601.967,432.963 2.239,0 0,-11.722 -2.239,0 0,11.722 z"
           style="fill:#2d2c2e;fill-opacity:1;fill-rule:nonzero;stroke:none"
           id="path28"
           inkscape:connector-curvature="0" /><g
           id="g30"
           transform="translate(605.2603,432.9629)"><path
             d="m 0,0 2.208,0 2.063,-8.377 0.032,0 L 6.349,0 8.54,0 5.553,-11.722 l -2.549,0 L 0,0 Z"
             style="fill:#2d2c2e;fill-opacity:1;fill-rule:nonzero;stroke:none"
             id="path32"
             inkscape:connector-curvature="0" /></g><g
           id="g34"
           transform="translate(614.8491,421.2412)"><path
             d="m 0,0 0,11.722 6.138,0 0,-1.981 -3.898,0 0,-2.695 2.972,0 0,-1.981 -2.972,0 0,-3.085 4.06,0 L 6.3,0 0,0 Z"
             style="fill:#2d2c2e;fill-opacity:1;fill-rule:nonzero;stroke:none"
             id="path36"
             inkscape:connector-curvature="0" /></g><g
           id="g38"
           transform="translate(624.8442,427.8652)"><path
             d="m 0,0 1.151,0 c 0.993,0 1.592,0.487 1.592,1.624 0,1.136 -0.599,1.623 -1.592,1.623 L 0,3.247 0,0 Z m 3.02,-6.624 -1.95,4.773 -1.07,0 0,-4.773 -2.24,0 0,11.722 3.247,0 c 2.694,0 3.976,-1.299 3.976,-3.507 0,-1.461 -0.518,-2.516 -1.768,-2.987 l 2.208,-5.228 -2.403,0 z"
             style="fill:#2d2c2e;fill-opacity:1;fill-rule:nonzero;stroke:none"
             id="path40"
             inkscape:connector-curvature="0" /></g><g
           id="g42"
           transform="translate(636.0112,429.6997)"><path
             d="m 0,0 c -0.373,1.104 -0.859,1.575 -1.64,1.575 -0.795,0 -1.233,-0.487 -1.233,-1.283 0,-1.769 5,-1.899 5,-5.568 0,-2.014 -1.38,-3.345 -3.732,-3.345 -1.82,0 -3.233,0.991 -3.833,3.296 l 2.209,0.471 c 0.258,-1.413 1.071,-1.916 1.737,-1.916 0.778,0 1.38,0.52 1.38,1.396 0,2.208 -5.001,2.241 -5.001,5.52 0,2.014 1.202,3.28 3.522,3.28 1.997,0 3.215,-1.185 3.606,-2.842 L 0,0 Z"
             style="fill:#2d2c2e;fill-opacity:1;fill-rule:nonzero;stroke:none"
             id="path44"
             inkscape:connector-curvature="0" /></g><path
           d="m 639.229,432.963 2.24,0 0,-11.722 -2.24,0 0,11.722 z"
           style="fill:#2d2c2e;fill-opacity:1;fill-rule:nonzero;stroke:none"
           id="path46"
           inkscape:connector-curvature="0" /><g
           id="g48"
           transform="translate(649.9976,432.9629)"><path
             d="m 0,0 0,-1.98 -2.613,0 0,-9.742 -2.241,0 0,9.742 -2.614,0 0,1.98 L 0,0 Z"
             style="fill:#2d2c2e;fill-opacity:1;fill-rule:nonzero;stroke:none"
             id="path50"
             inkscape:connector-curvature="0" /></g><g
           id="g52"
           transform="translate(656.7397,435.999)"><path
             d="m 0,0 -2.388,-2.37 -1.638,0 L -2.518,0 0,0 Z m -5.698,-14.758 0,11.722 6.136,0 0,-1.981 -3.896,0 0,-2.695 2.971,0 0,-1.98 -2.971,0 0,-3.085 4.059,0 0,-1.981 -6.299,0 z"
             style="fill:#2d2c2e;fill-opacity:1;fill-rule:nonzero;stroke:none"
             id="path54"
             inkscape:connector-curvature="0" /></g><g
           id="g56"
           transform="translate(585.5479,408.9727)"><path
             d="m 0,0 0.779,0 c 1.234,0 1.949,0.585 1.949,2.338 l 0,3.085 c 0,1.656 -0.552,2.338 -1.949,2.338 L 0,7.761 0,0 Z m -2.24,9.741 3.117,0 c 2.565,0 3.994,-1.103 4.091,-4.058 l 0,-3.605 C 4.871,-0.876 3.442,-1.979 0.877,-1.979 l -3.117,0 0,11.72 z"
             style="fill:#2d2c2e;fill-opacity:1;fill-rule:nonzero;stroke:none"
             id="path58"
             inkscape:connector-curvature="0" /></g><g
           id="g60"
           transform="translate(592.1338,406.9922)"><path
             d="m 0,0 0,11.722 6.137,0 0,-1.981 -3.897,0 0,-2.695 2.971,0 0,-1.981 -2.971,0 0,-3.086 4.059,0 L 6.299,0 0,0 Z"
             style="fill:#2d2c2e;fill-opacity:1;fill-rule:nonzero;stroke:none"
             id="path62"
             inkscape:connector-curvature="0" /></g><g
           id="g64"
           transform="translate(603.9478,406.9922)"><path
             d="m 0,0 0,11.722 2.24,0 0,-9.743 3.606,0 L 5.846,0 0,0 Z"
             style="fill:#2d2c2e;fill-opacity:1;fill-rule:nonzero;stroke:none"
             id="path66"
             inkscape:connector-curvature="0" /></g><g
           id="g68"
           transform="translate(612.8979,410.4668)"><path
             d="m 0,0 c 0,-1.299 0.568,-1.656 1.463,-1.656 0.891,0 1.461,0.357 1.461,1.656 l 0,4.772 c 0,1.299 -0.57,1.657 -1.461,1.657 C 0.568,6.429 0,6.071 0,4.772 L 0,0 Z m -2.239,4.479 c 0,2.891 1.525,3.93 3.702,3.93 2.175,0 3.7,-1.039 3.7,-3.93 l 0,-4.187 c 0,-2.89 -1.525,-3.929 -3.7,-3.929 -2.177,0 -3.702,1.039 -3.702,3.929 l 0,4.187 z"
             style="fill:#2d2c2e;fill-opacity:1;fill-rule:nonzero;stroke:none"
             id="path70"
             inkscape:connector-curvature="0" /></g><g
           id="g72"
           transform="translate(621.9438,413.6162)"><path
             d="m 0,0 1.151,0 c 0.993,0 1.592,0.487 1.592,1.623 0,1.137 -0.599,1.624 -1.592,1.624 L 0,3.247 0,0 Z m 3.02,-6.624 -1.95,4.773 -1.07,0 0,-4.773 -2.24,0 0,11.722 3.247,0 c 2.694,0 3.976,-1.299 3.976,-3.507 0,-1.461 -0.518,-2.517 -1.768,-2.987 l 2.208,-5.228 -2.403,0 z"
             style="fill:#2d2c2e;fill-opacity:1;fill-rule:nonzero;stroke:none"
             id="path74"
             inkscape:connector-curvature="0" /></g><g
           id="g76"
           transform="translate(630.6655,413.6162)"><path
             d="m 0,0 1.152,0 c 0.993,0 1.592,0.487 1.592,1.623 0,1.137 -0.599,1.624 -1.592,1.624 L 0,3.247 0,0 Z m 3.021,-6.624 -1.95,4.773 -1.071,0 0,-4.773 -2.239,0 0,11.722 3.247,0 c 2.694,0 3.976,-1.299 3.976,-3.507 0,-1.461 -0.518,-2.517 -1.768,-2.987 l 2.208,-5.228 -2.403,0 z"
             style="fill:#2d2c2e;fill-opacity:1;fill-rule:nonzero;stroke:none"
             id="path78"
             inkscape:connector-curvature="0" /></g><g
           id="g80"
           transform="translate(639.9487,411.4404)"><path
             d="M 0,0 2.226,0 1.138,4.741 1.104,4.741 0,0 Z m -3.197,-4.448 2.905,11.721 2.874,0 2.824,-11.721 -2.141,0 -0.57,2.468 -3.099,0 -0.634,-2.468 -2.159,0 z"
             style="fill:#2d2c2e;fill-opacity:1;fill-rule:nonzero;stroke:none"
             id="path82"
             inkscape:connector-curvature="0" /></g><path
           d="m 646.429,418.714 2.24,0 0,-11.722 -2.24,0 0,11.722 z"
           style="fill:#2d2c2e;fill-opacity:1;fill-rule:nonzero;stroke:none"
           id="path84"
           inkscape:connector-curvature="0" /><g
           id="g86"
           transform="translate(650.312,406.9922)"><path
             d="m 0,0 0,11.722 2.45,0 3.117,-6.949 0.034,0 0,6.949 2.045,0 L 7.646,0 5.504,0 2.077,7.565 2.045,7.565 2.045,0 0,0 Z"
             style="fill:#2d2c2e;fill-opacity:1;fill-rule:nonzero;stroke:none"
             id="path88"
             inkscape:connector-curvature="0" /></g><g
           id="g90"
           transform="translate(659.5229,406.9922)"><path
             d="m 0,0 0,11.722 6.137,0 0,-1.981 -3.898,0 0,-2.695 2.972,0 0,-1.981 -2.972,0 0,-3.086 4.06,0 L 6.299,0 0,0 Z"
             style="fill:#2d2c2e;fill-opacity:1;fill-rule:nonzero;stroke:none"
             id="path92"
             inkscape:connector-curvature="0" /></g><g
           id="g94"
           transform="translate(576.3218,420.9434)"><path
             d="m 0,0 c 0,-13.125 -10.642,-23.768 -23.768,-23.768 -13.128,0 -23.769,10.643 -23.769,23.768 0,13.127 10.641,23.77 23.769,23.77 C -10.642,23.77 0,13.127 0,0"
             style="fill:#2d2c2e;fill-opacity:1;fill-rule:nonzero;stroke:none"
             id="path96"
             inkscape:connector-curvature="0" /></g><g
           id="g98"
           transform="translate(552.1968,413.9941)"><path
             d="m 0,0 c -0.53,-0.289 -1.185,-0.443 -1.967,-0.443 -2.277,0 -3.689,0.881 -3.689,5.277 l 0,14.118 -7.34,0 0,-14.22 c 0,-7.529 4.02,-11.847 11.029,-11.847 2.126,0 3.743,0.351 5.337,1.128 C 1.772,-4.464 0.625,-2.452 0,0"
             style="fill:#ffffff;fill-opacity:1;fill-rule:nonzero;stroke:none"
             id="path100"
             inkscape:connector-curvature="0" /></g><g
           id="g102"
           transform="translate(561.3638,418.8311)"><path
             d="m 0,0 0,14.118 -7.34,0 0,-14.221 c 0,-7.527 4.022,-11.846 11.029,-11.846 l 2.909,0 0,6.671 -2.909,0 C 1.412,-5.278 0,-4.396 0,0"
             style="fill:#fff04c;fill-opacity:1;fill-rule:nonzero;stroke:none"
             id="path104"
             inkscape:connector-curvature="0" /></g></g></g></g></svg>