<?xml version="1.0" encoding="UTF-8" standalone="no"?>
<!-- Created with Inkscape (http://www.inkscape.org/) -->

<svg
   xmlns:dc="http://purl.org/dc/elements/1.1/"
   xmlns:cc="http://creativecommons.org/ns#"
   xmlns:rdf="http://www.w3.org/1999/02/22-rdf-syntax-ns#"
   xmlns:svg="http://www.w3.org/2000/svg"
   xmlns="http://www.w3.org/2000/svg"
   xmlns:sodipodi="http://sodipodi.sourceforge.net/DTD/sodipodi-0.dtd"
   xmlns:inkscape="http://www.inkscape.org/namespaces/inkscape"
   width="79.494682mm"
   height="18.062223mm"
   viewBox="0 0 281.67407 64.000004"
   id="svg3754"
   version="1.1"
   inkscape:version="0.91 r13725"
   sodipodi:docname="UL-LF2L.svg">
  <defs
     id="defs3756" />
  <sodipodi:namedview
     id="base"
     pagecolor="#ffffff"
     bordercolor="#666666"
     borderopacity="1.0"
     inkscape:pageopacity="0.0"
     inkscape:pageshadow="2"
     inkscape:zoom="1.4"
     inkscape:cx="107.29772"
     inkscape:cy="-36.131279"
     inkscape:document-units="px"
     inkscape:current-layer="layer1"
     showgrid="false"
     fit-margin-top="0"
     fit-margin-left="0"
     fit-margin-right="0"
     fit-margin-bottom="0"
     inkscape:window-width="1436"
     inkscape:window-height="855"
     inkscape:window-x="0"
     inkscape:window-y="1"
     inkscape:window-maximized="1" />
  <metadata
     id="metadata3759">
    <rdf:RDF>
      <cc:Work
         rdf:about="">
        <dc:format>image/svg+xml</dc:format>
        <dc:type
           rdf:resource="http://purl.org/dc/dcmitype/StillImage" />
        <dc:title />
      </cc:Work>
    </rdf:RDF>
  </metadata>
  <g
     inkscape:label="Capa 1"
     inkscape:groupmode="layer"
     id="layer1"
     transform="translate(523.95554,-113.79078)">
    <g
       id="g4492"
       transform="translate(19.234301,4.0167846e-6)"
       inkscape:export-filename="/Users/fabio/ownCloud/Web-Sites/Green-FabLab/presentation/assets/figures/logos/UL-LF2L.png"
       inkscape:export-xdpi="250"
       inkscape:export-ydpi="250">
      <g
         id="g3810"
         transform="matrix(0.24563424,0,0,-0.24563424,-438.92636,153.93871)">
        <path
           d="M 0,-2.613191e-7 C 71.949,-2.613191e-7 130.275,58.325996 130.275,130.275 130.275,202.224 71.949,260.55 0,260.55 -71.949,260.55 -130.275,202.224 -130.275,130.275 -130.275,58.325996 -71.949,-2.6131913e-7 0,-2.6131913e-7"
           style="fill:#662483;fill-opacity:1;fill-rule:nonzero;stroke:none"
           id="path4633"
           inkscape:connector-curvature="0"
           transform="translate(-9.2148106,-97.104006)" />
        <path
           d="m 0,0 0,28.147 c 0,0 34.454,1.888 56.294,-7.607 17.496,-7.608 35.754,-22.061 38.037,-47.166 2.281,-25.104 -1.021,-41.625 -15.977,-60.097 -12.931,-15.976 -42.6,-20.54 -51.728,-21.301 -9.129,-0.761 -25.865,-1.337 -25.865,-1.337 L 0,-81.398 c 0,0 28.568,0.76 38.037,4.564 9.467,3.804 24.343,11.411 25.864,29.669 1.522,18.257 -6.205,34.993 -16.416,40.318 C 37.276,-1.521 33.472,0.761 0,0"
           style="fill:#ffffff;fill-opacity:1;fill-rule:nonzero;stroke:none"
           id="path4641"
           inkscape:connector-curvature="0"
           transform="translate(-11.466288,74.521987)" />
        <path
           d="m 0,0 0,24.424 -16.792,0 -1.526,84.721 -32.057,0 -55.717,-86.248 -1.131,-22.897 60.664,-0.067 1.527,-29.381 26.714,0 0,29.448 L 0,0 Z m -45.032,25.187 -31.293,0 31.293,47.322 0,-47.322 z"
           style="fill:#ffffff;fill-opacity:1;fill-rule:nonzero;stroke:none"
           id="path4649"
           inkscape:connector-curvature="0" />
      </g>
      <text
         sodipodi:linespacing="125%"
         id="text5034"
         y="141.04828"
         x="-402.20792"
         style="font-style:normal;font-variant:normal;font-weight:normal;font-stretch:normal;font-size:17.5px;line-height:125%;font-family:Georgia;-inkscape-font-specification:'Georgia, Normal';text-align:start;letter-spacing:0px;word-spacing:0px;writing-mode:lr-tb;text-anchor:start;fill:#662483;fill-opacity:1;stroke:none;stroke-width:1px;stroke-linecap:butt;stroke-linejoin:miter;stroke-opacity:1"
         xml:space="preserve"><tspan
           style="font-style:normal;font-variant:normal;font-weight:800;font-stretch:normal;font-family:'Avenir LT Std';-inkscape-font-specification:'Avenir LT Std Ultra-Bold'"
           y="141.04828"
           x="-402.20792"
           id="tspan5036"
           sodipodi:role="line">LORRAINE FAB</tspan><tspan
           style="font-style:normal;font-variant:normal;font-weight:800;font-stretch:normal;font-family:'Avenir LT Std';-inkscape-font-specification:'Avenir LT Std Ultra-Bold'"
           id="tspan5038"
           y="162.92328"
           x="-402.20792"
           sodipodi:role="line">LIVING LAB<tspan
   id="tspan5040"
   style="font-style:normal;font-variant:normal;font-weight:800;font-stretch:normal;font-size:64.99999762%;font-family:'Avenir LT Std';-inkscape-font-specification:'Avenir LT Std Ultra-Bold';baseline-shift:super;fill:#662483;fill-opacity:1">®</tspan></tspan></text>
    </g>
    <g
       id="g4487"
       transform="matrix(0.19320187,0,0,0.19320187,-247.38838,179.74845)"
       inkscape:export-filename="/Users/fabio/ownCloud/Web-Sites/Green-FabLab/presentation/assets/figures/logos/UL-LF2L.png"
       inkscape:export-xdpi="250"
       inkscape:export-ydpi="250">
      <path
         id="path4428"
         d="m -1100.2334,-175.75773 c 0,91.464846 -74.1553,165.62499 -165.625,165.62499 -91.4795,0 -165.6348,-74.160144 -165.6348,-165.62499 0,-91.47459 74.1553,-165.63475 165.6348,-165.63475 91.4697,0 165.625,74.16016 165.625,165.63475"
         style="fill:#191719;fill-opacity:1;fill-rule:nonzero;stroke:none"
         inkscape:connector-curvature="0" />
      <path
         id="path4430"
         d="m -1268.3487,-127.32999 c -3.6962,2.0166 -8.2519,3.09082 -13.7011,3.09082 -15.874,0 -25.7129,-6.14746 -25.7129,-36.77734 l 0,-98.38378 -51.1475,0 0,99.09179 c 0,52.47069 28.0176,82.563466 76.8604,82.563466 14.8095,0 26.084,-2.451175 37.1875,-7.861325 -11.1328,-10.615236 -19.1309,-24.633781 -23.4864,-41.723631"
         style="fill:#ffffff;fill-opacity:1;fill-rule:nonzero;stroke:none"
         inkscape:connector-curvature="0" />
      <path
         id="path4432"
         d="m -1204.4668,-161.03604 0,-98.38378 -51.1475,0 0,99.09667 c 0,52.45604 28.0225,82.558578 76.8604,82.558578 l 20.2636,0 0,-46.489248 -20.2636,0 c -15.874,0 -25.7129,-6.15235 -25.7129,-36.78222"
         style="fill:#ffee42;fill-opacity:1;fill-rule:nonzero;stroke:none"
         inkscape:connector-curvature="0" />
    </g>
  </g>
</svg>
