<?xml version="1.0" encoding="UTF-8" standalone="no"?>
<!-- Created with Inkscape (http://www.inkscape.org/) -->

<svg
   xmlns:dc="http://purl.org/dc/elements/1.1/"
   xmlns:cc="http://creativecommons.org/ns#"
   xmlns:rdf="http://www.w3.org/1999/02/22-rdf-syntax-ns#"
   xmlns:svg="http://www.w3.org/2000/svg"
   xmlns="http://www.w3.org/2000/svg"
   xmlns:sodipodi="http://sodipodi.sourceforge.net/DTD/sodipodi-0.dtd"
   xmlns:inkscape="http://www.inkscape.org/namespaces/inkscape"
   width="128.94763mm"
   height="18.908888mm"
   viewBox="0 0 456.90106 66.999996"
   id="svg3754"
   version="1.1"
   inkscape:version="0.92.2 5c3e80d, 2017-08-06"
   sodipodi:docname="UL-LF2L.svg">
  <defs
     id="defs3756" />
  <sodipodi:namedview
     id="base"
     pagecolor="#ffffff"
     bordercolor="#666666"
     borderopacity="1.0"
     inkscape:pageopacity="0.0"
     inkscape:pageshadow="2"
     inkscape:zoom="2.8"
     inkscape:cx="187.05526"
     inkscape:cy="-23.577926"
     inkscape:document-units="px"
     inkscape:current-layer="layer1"
     showgrid="false"
     fit-margin-top="0"
     fit-margin-left="0"
     fit-margin-right="0"
     fit-margin-bottom="0"
     inkscape:window-width="2560"
     inkscape:window-height="1395"
     inkscape:window-x="1080"
     inkscape:window-y="1"
     inkscape:window-maximized="1" />
  <metadata
     id="metadata3759">
    <rdf:RDF>
      <cc:Work
         rdf:about="">
        <dc:format>image/svg+xml</dc:format>
        <dc:type
           rdf:resource="http://purl.org/dc/dcmitype/StillImage" />
        <dc:title />
      </cc:Work>
    </rdf:RDF>
  </metadata>
  <g
     inkscape:label="Capa 1"
     inkscape:groupmode="layer"
     id="layer1"
     transform="translate(523.95554,-112.29079)">
    <g
       id="g915">
      <circle
         r="31.926674"
         cy="145.79079"
         cx="-100.55447"
         id="path883"
         style="opacity:1;fill:#ffffff;fill-opacity:1;stroke:#ffffff;stroke-width:1.77165365;stroke-linecap:round;stroke-linejoin:round;stroke-miterlimit:4;stroke-dasharray:none;stroke-dashoffset:0;stroke-opacity:1" />
      <g
         inkscape:export-ydpi="250"
         inkscape:export-xdpi="250"
         inkscape:export-filename="/Users/fabio/ownCloud/Web-Sites/Green-FabLab/presentation/assets/figures/logos/UL-LF2L.png"
         transform="translate(19.234301,6.9410594e-6)"
         id="g4492">
        <g
           transform="matrix(0.24563424,0,0,-0.24563424,-438.92636,153.93871)"
           id="g3810">
          <path
             transform="translate(-9.2148106,-97.104006)"
             inkscape:connector-curvature="0"
             id="path4633"
             style="fill:#662483;fill-opacity:1;fill-rule:nonzero;stroke:none"
             d="M 0,-2.613191e-7 C 71.949,-2.613191e-7 130.275,58.325996 130.275,130.275 130.275,202.224 71.949,260.55 0,260.55 -71.949,260.55 -130.275,202.224 -130.275,130.275 -130.275,58.325996 -71.949,-2.6131913e-7 0,-2.6131913e-7" />
          <path
             transform="translate(-11.466288,74.521987)"
             inkscape:connector-curvature="0"
             id="path4641"
             style="fill:#ffffff;fill-opacity:1;fill-rule:nonzero;stroke:none"
             d="m 0,0 v 28.147 c 0,0 34.454,1.888 56.294,-7.607 17.496,-7.608 35.754,-22.061 38.037,-47.166 2.281,-25.104 -1.021,-41.625 -15.977,-60.097 -12.931,-15.976 -42.6,-20.54 -51.728,-21.301 -9.129,-0.761 -25.865,-1.337 -25.865,-1.337 L 0,-81.398 c 0,0 28.568,0.76 38.037,4.564 9.467,3.804 24.343,11.411 25.864,29.669 1.522,18.257 -6.205,34.993 -16.416,40.318 C 37.276,-1.521 33.472,0.761 0,0" />
          <path
             inkscape:connector-curvature="0"
             id="path4649"
             style="fill:#ffffff;fill-opacity:1;fill-rule:nonzero;stroke:none"
             d="m 0,0 v 24.424 h -16.792 l -1.526,84.721 H -50.375 L -106.092,22.897 -107.223,0 l 60.664,-0.067 1.527,-29.381 h 26.714 V 0 Z m -45.032,25.187 h -31.293 l 31.293,47.322 z" />
        </g>
        <text
           xml:space="preserve"
           style="font-style:normal;font-variant:normal;font-weight:normal;font-stretch:normal;line-height:0%;font-family:Georgia;-inkscape-font-specification:'Georgia, Normal';text-align:start;letter-spacing:0px;word-spacing:0px;writing-mode:lr-tb;text-anchor:start;fill:#662483;fill-opacity:1;stroke:none;stroke-width:1px;stroke-linecap:butt;stroke-linejoin:miter;stroke-opacity:1"
           x="-402.20792"
           y="141.04828"
           id="text5034"><tspan
             sodipodi:role="line"
             id="tspan5036"
             x="-402.20792"
             y="141.04828"
             style="font-style:normal;font-variant:normal;font-weight:800;font-stretch:normal;font-size:17.5px;line-height:1.25;font-family:'Avenir LT Std';-inkscape-font-specification:'Avenir LT Std Ultra-Bold'">LORRAINE FAB</tspan><tspan
             sodipodi:role="line"
             x="-402.20792"
             y="162.92328"
             id="tspan5038"
             style="font-style:normal;font-variant:normal;font-weight:800;font-stretch:normal;font-size:17.5px;line-height:1.25;font-family:'Avenir LT Std';-inkscape-font-specification:'Avenir LT Std Ultra-Bold'">LIVING LAB<tspan
   style="font-style:normal;font-variant:normal;font-weight:800;font-stretch:normal;font-size:64.99999762%;font-family:'Avenir LT Std';-inkscape-font-specification:'Avenir LT Std Ultra-Bold';baseline-shift:super;fill:#662483;fill-opacity:1"
   id="tspan5040">®</tspan></tspan></text>
      </g>
      <g
         inkscape:export-ydpi="250"
         inkscape:export-xdpi="250"
         inkscape:export-filename="/Users/fabio/ownCloud/Web-Sites/Green-FabLab/presentation/assets/figures/logos/UL-LF2L.png"
         transform="matrix(0.19320187,0,0,0.19320187,-247.38838,179.74845)"
         id="g4487">
        <path
           inkscape:connector-curvature="0"
           style="fill:#191719;fill-opacity:1;fill-rule:nonzero;stroke:none"
           d="m -1100.2334,-175.75773 c 0,91.464846 -74.1553,165.62499 -165.625,165.62499 -91.4795,0 -165.6348,-74.160144 -165.6348,-165.62499 0,-91.47459 74.1553,-165.63475 165.6348,-165.63475 91.4697,0 165.625,74.16016 165.625,165.63475"
           id="path4428" />
        <path
           inkscape:connector-curvature="0"
           style="fill:#ffffff;fill-opacity:1;fill-rule:nonzero;stroke:none"
           d="m -1268.3487,-127.32999 c -3.6962,2.0166 -8.2519,3.09082 -13.7011,3.09082 -15.874,0 -25.7129,-6.14746 -25.7129,-36.77734 v -98.38378 h -51.1475 v 99.09179 c 0,52.47069 28.0176,82.563466 76.8604,82.563466 14.8095,0 26.084,-2.451175 37.1875,-7.861325 -11.1328,-10.615236 -19.1309,-24.633781 -23.4864,-41.723631"
           id="path4430" />
        <path
           inkscape:connector-curvature="0"
           style="fill:#ffee42;fill-opacity:1;fill-rule:nonzero;stroke:none"
           d="m -1204.4668,-161.03604 v -98.38378 h -51.1475 v 99.09667 c 0,52.45604 28.0225,82.558578 76.8604,82.558578 h 20.2636 v -46.489248 h -20.2636 c -15.874,0 -25.7129,-6.15235 -25.7129,-36.78222"
           id="path4432" />
      </g>
      <g
         inkscape:label="Capa 1"
         id="layer1-9"
         transform="translate(-379.62516,-89.428561)">
        <g
           id="g4323"
           transform="matrix(0.13399999,0,0,0.13399999,161.86285,156.0722)"
           inkscape:export-xdpi="90"
           inkscape:export-ydpi="90">
          <path
             style="opacity:1;fill:#f5ff12;fill-opacity:1;stroke:#f5ff12;stroke-width:2.52699924;stroke-miterlimit:4;stroke-dasharray:none;stroke-dashoffset:0;stroke-opacity:1"
             d="m 597.30795,590.65039 c 0,137.37338 -111.36313,248.7365 -248.73651,248.7365 -137.37338,0 -248.73651,-111.36312 -248.73651,-248.7365 0,-46.70954 12.875,-90.41196 35.26975,-127.75199 0.1217,-0.20291 0.36593,-0.60816 0.36593,-0.60816 l -25.45139,-46.92413 62.98998,-0.97501 c 0,0 2.19425,-2.10489 2.59692,-2.4946 44.7632,-43.32252 105.75086,-69.98261 172.96532,-69.98261 137.37338,0 248.73651,111.36312 248.73651,248.7365 z"
             id="path4325"
             inkscape:connector-curvature="0"
             sodipodi:nodetypes="sssscccsss" />
          <text
             xml:space="preserve"
             style="font-style:normal;font-variant:normal;font-weight:normal;font-stretch:normal;line-height:0%;font-family:Arial;-inkscape-font-specification:Arial;text-align:start;letter-spacing:0px;word-spacing:0px;writing-mode:lr-tb;text-anchor:start;fill:#000000;fill-opacity:1;stroke:none;stroke-width:1px;stroke-linecap:butt;stroke-linejoin:miter;stroke-opacity:1"
             x="151.4346"
             y="543.49786"
             id="text4327"><tspan
               sodipodi:role="line"
               id="tspan4329"
               x="151.4346"
               y="543.49786"
               style="font-style:normal;font-variant:normal;font-weight:normal;font-stretch:normal;font-size:77.5px;line-height:0.92000002;font-family:Arial;-inkscape-font-specification:Arial;letter-spacing:0px">European</tspan><tspan
               sodipodi:role="line"
               x="151.4346"
               y="614.79785"
               style="font-style:normal;font-variant:normal;font-weight:normal;font-stretch:normal;font-size:77.5px;line-height:92.00000167%;font-family:Arial;-inkscape-font-specification:Arial;letter-spacing:0px"
               id="tspan4331">Network of</tspan><tspan
               sodipodi:role="line"
               x="151.4346"
               y="686.09784"
               style="font-style:normal;font-variant:normal;font-weight:normal;font-stretch:normal;font-size:77.5px;line-height:92.00000167%;font-family:Arial;-inkscape-font-specification:Arial;letter-spacing:0px"
               id="tspan4333">Living Labs</tspan></text>
          <text
             id="text4335"
             y="747.49786"
             x="198.28763"
             style="font-style:normal;font-variant:normal;font-weight:normal;font-stretch:normal;line-height:0%;font-family:Arial;-inkscape-font-specification:Arial;text-align:start;letter-spacing:0px;word-spacing:0px;writing-mode:lr-tb;text-anchor:start;fill:#000000;fill-opacity:1;stroke:none;stroke-width:1px;stroke-linecap:butt;stroke-linejoin:miter;stroke-opacity:1"
             xml:space="preserve"><tspan
               id="tspan4337"
               style="font-style:normal;font-variant:normal;font-weight:normal;font-stretch:normal;font-size:37.5px;line-height:92.00000167%;font-family:Arial;-inkscape-font-specification:Arial;letter-spacing:0px"
               y="747.49786"
               x="198.28763"
               sodipodi:role="line">Adherent Member</tspan></text>
        </g>
      </g>
      <g
         transform="matrix(0.12251412,0,0,0.12251412,-34.11228,134.501)"
         id="g4470">
        <g
           id="g3"
           transform="translate(-844.58259,-188.52516)">
          <path
             style="fill:#0e9a48"
             inkscape:connector-curvature="0"
             id="path5"
             d="m 236.824,493.146 v -65.203 c 2.34,-0.895 4.623,-1.963 6.815,-3.257 31.087,-18.327 34.355,-70.395 7.293,-116.288 -27.059,-45.895 -74.196,-68.24 -105.282,-49.912 -31.087,18.329 -34.354,70.394 -7.297,116.288 4.366,7.403 9.258,14.182 14.517,20.287 V 443.5 L 85.868,405.156 V 165.002 L 62.383,149.499 c -21.394,38.979 -33.561,83.741 -33.561,131.343 0,147.904 117.359,268.317 264.08,273.177 l 0.025,-28.178 z" />
          <path
             style="fill:#cb2026"
             inkscape:connector-curvature="0"
             id="path7"
             d="m 159.006,111.537 40.952,24.27 c -0.807,6.729 -0.833,14.137 -0.807,16.684 0.375,36.085 49.245,63.517 102.52,62.965 53.275,-0.552 91.219,-32.827 90.95,-64.58 -0.304,-36.084 -35.004,-64.336 -88.259,-65.924 -18.029,-0.538 -35.408,3.062 -43.322,4.574 L 231.172,70.42 302.209,29.889 511.621,151.614 535.638,138.431 C 512.533,100.441 479.811,67.564 438.557,43.812 310.379,-29.985 147.468,11.642 70.052,136.37 l 23.821,15.042 z" />
          <path
             style="fill:#35469d"
             inkscape:connector-curvature="0"
             id="path9"
             d="m 518.687,243.843 -44.532,23.277 c -1.614,-0.27 -11.499,-9.522 -13.723,-10.764 -31.526,-17.563 -77.938,5.659 -103.867,52.201 -25.93,46.54 -23.719,99.753 7.805,117.32 31.527,17.562 78.47,-3.509 104.403,-50.049 4.182,-7.508 9.767,-24.938 12.378,-32.559 l 37.938,-21.932 -0.225,83.273 -208.851,121.97 0.101,27.481 c 44.448,-1.233 89.223,-13.354 130.301,-37.406 C 568.045,441.919 612.652,279.8 542.709,150.734 l -24.022,13.191 z" />
        </g>
        <path
           style="fill:none;stroke:#010101"
           inkscape:connector-curvature="0"
           id="path11"
           d="M -459.49759,355.24988" />
      </g>
      <path
         sodipodi:nodetypes="cc"
         inkscape:connector-curvature="0"
         id="path2267"
         d="m -234.00018,168.41579 v -42.1875"
         style="fill:none;fill-rule:evenodd;stroke:#ffffff;stroke-width:1.77165353;stroke-linecap:butt;stroke-linejoin:miter;stroke-miterlimit:4;stroke-dasharray:none;stroke-opacity:1" />
    </g>
  </g>
</svg>
