<?xml version="1.0" encoding="UTF-8" standalone="no"?>
<svg
   xmlns:dc="http://purl.org/dc/elements/1.1/"
   xmlns:cc="http://creativecommons.org/ns#"
   xmlns:rdf="http://www.w3.org/1999/02/22-rdf-syntax-ns#"
   xmlns:svg="http://www.w3.org/2000/svg"
   xmlns="http://www.w3.org/2000/svg"
   xmlns:xlink="http://www.w3.org/1999/xlink"
   xmlns:sodipodi="http://sodipodi.sourceforge.net/DTD/sodipodi-0.dtd"
   xmlns:inkscape="http://www.inkscape.org/namespaces/inkscape"
   width="1801"
   height="1800"
   version="1.1"
   id="svg185"
   sodipodi:docname="Helix-5.svg"
   inkscape:version="1.0 (4035a4f, 2020-05-01)">
  <metadata
     id="metadata191">
    <rdf:RDF>
      <cc:Work
         rdf:about="">
        <dc:format>image/svg+xml</dc:format>
        <dc:type
           rdf:resource="http://purl.org/dc/dcmitype/StillImage" />
        <dc:title></dc:title>
      </cc:Work>
    </rdf:RDF>
  </metadata>
  <defs
     id="defs189">
    <defs
       id="defs181">
      <path
         id="h"
         d="M 143,4 C 61,4 22,-44 18,-125 c -5,-107 100,-154 193,-111 17,8 29,25 37,43 l -32,9 c -13,-25 -37,-40 -76,-40 -61,0 -88,39 -88,99 0,61 29,100 91,101 35,0 62,-11 79,-27 v -45 h -74 v -28 h 105 v 86 C 228,-13 192,4 143,4" />
      <path
         id="i"
         d="m 100,-194 c 62,-1 85,37 85,99 1,63 -27,99 -86,99 -59,0 -83,-39 -84,-99 0,-66 28,-99 85,-99 z m -1,174 c 44,1 53,-31 53,-75 0,-43 -8,-75 -51,-75 -43,0 -53,32 -53,75 0,43 10,74 51,75" />
      <path
         id="j"
         d="M 108,0 H 70 L 1,-190 h 34 l 54,165 56,-165 h 34" />
      <path
         id="k"
         d="m 100,-194 c 63,0 86,42 84,106 H 49 c 0,40 14,67 53,68 26,1 43,-12 49,-29 l 28,8 C 168,-13 142,4 102,4 44,4 14,-33 15,-96 c 1,-61 26,-98 85,-98 z m 52,81 c 6,-60 -76,-77 -97,-28 -3,7 -6,17 -6,28 h 103" />
      <path
         id="l"
         d="M 114,-163 C 36,-179 61,-72 57,0 H 25 l -1,-190 h 30 c 1,12 -1,29 2,39 6,-27 23,-49 58,-41 v 29" />
      <path
         id="m"
         d="m 210,-169 c -67,3 -38,105 -44,169 h -31 v -121 c 0,-29 -5,-50 -35,-48 C 34,-165 62,-65 56,0 H 25 l -1,-190 h 30 c 1,10 -1,24 2,32 10,-44 99,-50 107,0 11,-21 27,-35 58,-36 85,-2 47,119 55,194 h -31 v -121 c 0,-29 -5,-49 -35,-48" />
      <path
         id="n"
         d="m 117,-194 c 89,-4 53,116 60,194 h -32 v -121 c 0,-31 -8,-49 -39,-48 C 34,-167 62,-67 57,0 H 25 l -1,-190 h 30 c 1,10 -1,24 2,32 11,-22 29,-35 61,-36" />
      <path
         id="o"
         d="m 59,-47 c -2,24 18,29 38,22 V -1 C 64,9 27,4 27,-40 V -167 H 5 v -23 h 24 l 9,-43 h 21 v 43 h 35 v 23 H 59 v 120" />
      <g
         id="a">
        <use
           height="100%"
           width="100%"
           y="0"
           x="0"
           id="use66"
           xlink:href="#h"
           transform="scale(0.16049383)" />
        <use
           height="100%"
           width="100%"
           y="0"
           x="0"
           id="use68"
           xlink:href="#i"
           transform="matrix(0.16049383,0,0,0.16049383,44.938272,0)" />
        <use
           height="100%"
           width="100%"
           y="0"
           x="0"
           id="use70"
           xlink:href="#j"
           transform="matrix(0.16049383,0,0,0.16049383,77.037037,0)" />
        <use
           height="100%"
           width="100%"
           y="0"
           x="0"
           id="use72"
           xlink:href="#k"
           transform="matrix(0.16049383,0,0,0.16049383,105.92593,0)" />
        <use
           height="100%"
           width="100%"
           y="0"
           x="0"
           id="use74"
           xlink:href="#l"
           transform="matrix(0.16049383,0,0,0.16049383,138.02469,0)" />
        <use
           height="100%"
           width="100%"
           y="0"
           x="0"
           id="use76"
           xlink:href="#m"
           transform="matrix(0.16049383,0,0,0.16049383,157.12346,0)" />
        <use
           height="100%"
           width="100%"
           y="0"
           x="0"
           id="use78"
           xlink:href="#k"
           transform="matrix(0.16049383,0,0,0.16049383,205.11111,0)" />
        <use
           height="100%"
           width="100%"
           y="0"
           x="0"
           id="use80"
           xlink:href="#n"
           transform="matrix(0.16049383,0,0,0.16049383,237.20988,0)" />
        <use
           height="100%"
           width="100%"
           y="0"
           x="0"
           id="use82"
           xlink:href="#o"
           transform="matrix(0.16049383,0,0,0.16049383,269.30864,0)" />
      </g>
      <path
         id="p"
         d="M 205,0 177,-72 H 64 L 36,0 H 1 l 101,-248 h 38 L 239,0 Z m -38,-99 -47,-123 c -12,45 -31,82 -46,123 h 93" />
      <path
         id="q"
         d="m 96,-169 c -40,0 -48,33 -48,73 0,40 9,75 48,75 24,0 41,-14 43,-38 l 32,2 C 165,-20 140,4 97,4 38,4 21,-37 15,-95 c -10,-93 101,-131 147,-64 4,7 5,14 7,22 l -32,3 c -4,-21 -16,-35 -41,-35" />
      <path
         id="r"
         d="M 141,-36 C 126,-15 110,5 73,4 37,3 15,-17 15,-53 c -1,-64 63,-63 125,-63 3,-35 -9,-54 -41,-54 -24,1 -41,7 -42,31 l -33,-3 c 5,-37 33,-52 76,-52 45,0 72,20 72,64 v 82 c -1,20 7,32 28,27 V -1 C 169,8 139,-3 141,-36 Z M 48,-53 c 0,20 12,33 32,33 41,-3 63,-29 60,-74 -43,2 -92,-5 -92,41" />
      <path
         id="s"
         d="m 85,-194 c 31,0 48,13 60,33 l -1,-100 h 32 l 1,261 h -30 c -2,-10 0,-23 -3,-31 C 134,-8 116,4 85,4 32,4 16,-35 15,-94 c 0,-66 23,-100 70,-100 z m 9,24 c -40,0 -46,34 -46,75 0,40 6,74 45,74 42,0 51,-32 51,-76 0,-42 -9,-74 -50,-73" />
      <path
         id="t"
         d="m 24,-231 v -30 h 32 v 30 z M 24,0 V -190 H 56 V 0 H 24" />
      <g
         id="c">
        <use
           height="100%"
           width="100%"
           y="0"
           x="0"
           id="use90"
           xlink:href="#p"
           transform="scale(0.16049383)" />
        <use
           height="100%"
           width="100%"
           y="0"
           x="0"
           id="use92"
           xlink:href="#q"
           transform="matrix(0.16049383,0,0,0.16049383,38.518519,0)" />
        <use
           height="100%"
           width="100%"
           y="0"
           x="0"
           id="use94"
           xlink:href="#r"
           transform="matrix(0.16049383,0,0,0.16049383,67.407407,0)" />
        <use
           height="100%"
           width="100%"
           y="0"
           x="0"
           id="use96"
           xlink:href="#s"
           transform="matrix(0.16049383,0,0,0.16049383,99.506173,0)" />
        <use
           height="100%"
           width="100%"
           y="0"
           x="0"
           id="use98"
           xlink:href="#k"
           transform="matrix(0.16049383,0,0,0.16049383,131.60494,0)" />
        <use
           height="100%"
           width="100%"
           y="0"
           x="0"
           id="use100"
           xlink:href="#m"
           transform="matrix(0.16049383,0,0,0.16049383,163.7037,0)" />
        <use
           height="100%"
           width="100%"
           y="0"
           x="0"
           id="use102"
           xlink:href="#t"
           transform="matrix(0.16049383,0,0,0.16049383,211.69136,0)" />
        <use
           height="100%"
           width="100%"
           y="0"
           x="0"
           id="use104"
           xlink:href="#r"
           transform="matrix(0.16049383,0,0,0.16049383,224.37037,0)" />
      </g>
      <path
         id="u"
         d="M 33,0 V -248 H 67 V 0 H 33" />
      <path
         id="v"
         d="M 84,4 C -5,8 30,-112 23,-190 h 32 v 120 c 0,31 7,50 39,49 72,-2 45,-101 50,-169 h 31 l 1,190 h -30 c -1,-10 1,-25 -2,-33 -11,22 -28,36 -60,37" />
      <path
         id="w"
         d="m 135,-143 c -3,-34 -86,-38 -87,0 15,53 115,12 119,90 4,78 -150,74 -157,8 l 28,-5 c 4,36 97,45 98,0 -10,-56 -113,-15 -118,-90 -4,-57 82,-63 122,-42 12,7 21,19 24,35" />
      <path
         id="x"
         d="M 179,-190 93,31 C 79,59 56,82 12,73 V 49 C 51,55 65,29 76,-1 L 1,-190 h 34 l 57,156 54,-156 h 33" />
      <g
         id="d">
        <use
           height="100%"
           width="100%"
           y="0"
           x="0"
           id="use111"
           xlink:href="#u"
           transform="scale(0.16049383)" />
        <use
           height="100%"
           width="100%"
           y="0"
           x="0"
           id="use113"
           xlink:href="#n"
           transform="matrix(0.16049383,0,0,0.16049383,16.049383,0)" />
        <use
           height="100%"
           width="100%"
           y="0"
           x="0"
           id="use115"
           xlink:href="#s"
           transform="matrix(0.16049383,0,0,0.16049383,48.148148,0)" />
        <use
           height="100%"
           width="100%"
           y="0"
           x="0"
           id="use117"
           xlink:href="#v"
           transform="matrix(0.16049383,0,0,0.16049383,80.246914,0)" />
        <use
           height="100%"
           width="100%"
           y="0"
           x="0"
           id="use119"
           xlink:href="#w"
           transform="matrix(0.16049383,0,0,0.16049383,112.34568,0)" />
        <use
           height="100%"
           width="100%"
           y="0"
           x="0"
           id="use121"
           xlink:href="#o"
           transform="matrix(0.16049383,0,0,0.16049383,141.23457,0)" />
        <use
           height="100%"
           width="100%"
           y="0"
           x="0"
           id="use123"
           xlink:href="#l"
           transform="matrix(0.16049383,0,0,0.16049383,157.28395,0)" />
        <use
           height="100%"
           width="100%"
           y="0"
           x="0"
           id="use125"
           xlink:href="#x"
           transform="matrix(0.16049383,0,0,0.16049383,176.38272,0)" />
      </g>
      <path
         id="y"
         d="m 30,0 v -248 h 187 v 28 H 63 v 79 h 144 v 27 H 63 v 87 H 225 V 0 H 30" />
      <g
         id="e">
        <use
           height="100%"
           width="100%"
           y="0"
           x="0"
           id="use129"
           xlink:href="#y"
           transform="scale(0.16049383)" />
        <use
           height="100%"
           width="100%"
           y="0"
           x="0"
           id="use131"
           xlink:href="#n"
           transform="matrix(0.16049383,0,0,0.16049383,38.518519,0)" />
        <use
           height="100%"
           width="100%"
           y="0"
           x="0"
           id="use133"
           xlink:href="#j"
           transform="matrix(0.16049383,0,0,0.16049383,70.617284,0)" />
        <use
           height="100%"
           width="100%"
           y="0"
           x="0"
           id="use135"
           xlink:href="#t"
           transform="matrix(0.16049383,0,0,0.16049383,99.506173,0)" />
        <use
           height="100%"
           width="100%"
           y="0"
           x="0"
           id="use137"
           xlink:href="#l"
           transform="matrix(0.16049383,0,0,0.16049383,112.18519,0)" />
        <use
           height="100%"
           width="100%"
           y="0"
           x="0"
           id="use139"
           xlink:href="#i"
           transform="matrix(0.16049383,0,0,0.16049383,131.28395,0)" />
        <use
           height="100%"
           width="100%"
           y="0"
           x="0"
           id="use141"
           xlink:href="#n"
           transform="matrix(0.16049383,0,0,0.16049383,163.38272,0)" />
        <use
           height="100%"
           width="100%"
           y="0"
           x="0"
           id="use143"
           xlink:href="#m"
           transform="matrix(0.16049383,0,0,0.16049383,195.48148,0)" />
        <use
           height="100%"
           width="100%"
           y="0"
           x="0"
           id="use145"
           xlink:href="#k"
           transform="matrix(0.16049383,0,0,0.16049383,243.46914,0)" />
        <use
           height="100%"
           width="100%"
           y="0"
           x="0"
           id="use147"
           xlink:href="#n"
           transform="matrix(0.16049383,0,0,0.16049383,275.5679,0)" />
        <use
           height="100%"
           width="100%"
           y="0"
           x="0"
           id="use149"
           xlink:href="#o"
           transform="matrix(0.16049383,0,0,0.16049383,307.66667,0)" />
      </g>
      <path
         id="z"
         d="m 212,-179 c -10,-28 -35,-45 -73,-45 -59,0 -87,40 -87,99 0,60 29,101 89,101 43,0 62,-24 78,-52 l 27,14 C 228,-24 195,4 139,4 59,4 22,-46 18,-125 c -6,-104 99,-153 187,-111 19,9 31,26 39,46" />
      <path
         id="A"
         d="M 24,0 V -261 H 56 V 0 H 24" />
      <g
         id="f">
        <use
           height="100%"
           width="100%"
           y="0"
           x="0"
           id="use154"
           xlink:href="#z"
           transform="scale(0.16049383)" />
        <use
           height="100%"
           width="100%"
           y="0"
           x="0"
           id="use156"
           xlink:href="#t"
           transform="matrix(0.16049383,0,0,0.16049383,41.567901,0)" />
        <use
           height="100%"
           width="100%"
           y="0"
           x="0"
           id="use158"
           xlink:href="#j"
           transform="matrix(0.16049383,0,0,0.16049383,54.246914,0)" />
        <use
           height="100%"
           width="100%"
           y="0"
           x="0"
           id="use160"
           xlink:href="#t"
           transform="matrix(0.16049383,0,0,0.16049383,83.135802,0)" />
        <use
           height="100%"
           width="100%"
           y="0"
           x="0"
           id="use162"
           xlink:href="#A"
           transform="matrix(0.16049383,0,0,0.16049383,95.814815,0)" />
      </g>
      <path
         id="B"
         d="m 185,-189 c -5,-48 -123,-54 -124,2 14,75 158,14 163,119 C 227,10 103,19 49,-13 32,-23 21,-39 16,-59 l 33,-7 c 5,56 141,63 141,-1 0,-78 -155,-14 -162,-118 -5,-82 145,-84 179,-34 5,7 8,16 11,25" />
      <g
         id="g">
        <use
           height="100%"
           width="100%"
           y="0"
           x="0"
           id="use166"
           xlink:href="#B"
           transform="scale(0.16049383)" />
        <use
           height="100%"
           width="100%"
           y="0"
           x="0"
           id="use168"
           xlink:href="#i"
           transform="matrix(0.16049383,0,0,0.16049383,38.518519,0)" />
        <use
           height="100%"
           width="100%"
           y="0"
           x="0"
           id="use170"
           xlink:href="#q"
           transform="matrix(0.16049383,0,0,0.16049383,70.617284,0)" />
        <use
           height="100%"
           width="100%"
           y="0"
           x="0"
           id="use172"
           xlink:href="#t"
           transform="matrix(0.16049383,0,0,0.16049383,99.506173,0)" />
        <use
           height="100%"
           width="100%"
           y="0"
           x="0"
           id="use174"
           xlink:href="#k"
           transform="matrix(0.16049383,0,0,0.16049383,112.18519,0)" />
        <use
           height="100%"
           width="100%"
           y="0"
           x="0"
           id="use176"
           xlink:href="#o"
           transform="matrix(0.16049383,0,0,0.16049383,144.28395,0)" />
        <use
           height="100%"
           width="100%"
           y="0"
           x="0"
           id="use178"
           xlink:href="#x"
           transform="matrix(0.16049383,0,0,0.16049383,160.33333,0)" />
      </g>
    </defs>
  </defs>
  <sodipodi:namedview
     fit-margin-bottom="0"
     fit-margin-right="0"
     fit-margin-left="0"
     fit-margin-top="0"
     inkscape:document-rotation="0"
     pagecolor="#ffffff"
     bordercolor="#666666"
     borderopacity="1"
     objecttolerance="10"
     gridtolerance="10"
     guidetolerance="10"
     inkscape:pageopacity="0"
     inkscape:pageshadow="2"
     inkscape:window-width="1440"
     inkscape:window-height="855"
     id="namedview187"
     showgrid="false"
     inkscape:zoom="0.18415732"
     inkscape:cx="1326.4555"
     inkscape:cy="440.35681"
     inkscape:window-x="0"
     inkscape:window-y="23"
     inkscape:window-maximized="0"
     inkscape:current-layer="layer3" />
  <use
     height="100%"
     width="100%"
     y="0"
     x="0"
     id="use26"
     transform="translate(912.07824,1106.2222)"
     xlink:href="#b" />
  <use
     height="100%"
     width="100%"
     y="0"
     x="0"
     id="use34"
     transform="translate(603.93377,554.94907)"
     xlink:href="#b" />
  <use
     height="100%"
     width="100%"
     y="0"
     x="0"
     id="use40"
     transform="translate(1231.5,554.94907)"
     xlink:href="#b" />
  <path
     d=""
     id="path54"
     fill="#333333" />
  <g
     transform="translate(41)"
     inkscape:groupmode="layer"
     id="layer1"
     inkscape:label="Env-Soc"
     style="display:inline" />
  <g
     transform="translate(41)"
     inkscape:groupmode="layer"
     id="layer2"
     inkscape:label="A-I-G"
     style="display:inline" />
  <g
     transform="translate(41)"
     inkscape:groupmode="layer"
     id="layer3"
     inkscape:label="Texto"
     style="display:inline">
    <g
       transform="translate(-2.4903727,222.50014)"
       id="g282">
      <path
         d="M 41,0 H 1801 V 1360 H 41 Z"
         fill="#ffffff"
         id="path10"
         transform="translate(-41)" />
      <path
         d="m 774.08,980 h 275.9 v 160 h -275.9 z"
         stroke="#000000"
         stroke-opacity="0"
         stroke-width="2"
         fill="#ffffff"
         fill-opacity="0"
         id="path22"
         transform="translate(-41)" />
      <path
         d="m 432.93,417.9 h 341.15 v 186 H 432.93 Z"
         stroke="#000000"
         stroke-opacity="0"
         stroke-width="2"
         fill="#ffffff"
         fill-opacity="0"
         id="path30"
         transform="translate(-41)" />
      <path
         d="m 1081,417.9 h 300 v 186 h -300 z"
         stroke="#000000"
         stroke-opacity="0"
         stroke-width="2"
         fill="#ffffff"
         fill-opacity="0"
         id="path36"
         transform="translate(-41)" />
      <path
         d="m 792.03,67.8 h 300 v 160 h -300 z"
         stroke="#000000"
         stroke-opacity="0"
         stroke-width="2"
         fill="#ffffff"
         fill-opacity="0"
         id="path42"
         transform="translate(-41)" />
      <path
         d="M 1,460 H 276.9 V 620 H 1 Z"
         stroke="#000000"
         stroke-opacity="0"
         stroke-width="2"
         fill="#ffffff"
         fill-opacity="0"
         id="path46"
         transform="translate(-41)" />
      <path
         d="M 931,1341"
         stroke="#333333"
         fill="none"
         id="path52"
         transform="translate(-41)" />
      <path
         d="m 929.38,1341 -14.26,4.64 v -9.28 z"
         stroke="#333333"
         fill="#333333"
         id="path56"
         transform="translate(-41)" />
      <path
         style="display:inline;stroke:#ff7f2a"
         d="m 1736.53,782.94 -1.87,2.08 -4.36,4.45 -5.1,4.77 -5.94,5.13 -7,5.55 -5.44,3.95 m -33.6,20.75 -5.65,3.1 -17.77,8.8 -12.1,5.38 m -36.57,14.94 -0.7,0.27 -34.43,11.97 -2.2,0.67 m -37.85,11.4 -3.45,1.03 -34.8,8.9 m -38.45,9.03 -38.66,8.2 m -38.87,7.07 -38.97,6.56 m -39.08,5.8 -39.2,4.92 m -39.2,4.93 -7.3,0.9 -32.05,2.7 m -39.38,3.28 -39.38,3.28 m -39.45,2.1 -39.48,1.63 m -39.48,1.64 -27.7,1.16 -11.8,0.12 m -39.5,0.4 -19.75,0.2 -19.75,-0.4 m -39.5,-0.83 -39.5,-0.82 m -39.52,-0.82 -2.16,-0.04 -37.28,-2.34 m -39.45,-2.47 -39.43,-2.48 m -39.35,-3.57 -39.3,-4.1 m -39.3,-4.12 -7.96,-0.83 -31.16,-4.6 m -39.1,-5.73 -24.7,-3.64 -14.3,-2.7 m -38.8,-7.4 -24.3,-4.6 -14.4,-3.37 m -38.48,-9 -8.93,-2.08 -29.23,-8.14 m -37.84,-11.36 -20.53,-6.65 -16.8,-6.24 m -36.68,-14.72 -1.7,-0.7 -19.72,-9.28 -14.08,-7.35 m -33.58,-20.77 -1.46,-1 -7.6,-5.8 -6.47,-5.33 -5.5,-4.94 -4.7,-4.6 -3.98,-4.24 M 3.1,749.43 l -0.74,-2.45 -0.7,-2.7 -0.55,-2.64 -0.43,-2.6 -0.33,-2.6 -0.22,-2.58 -0.1,-2.57 L 0,730 l 0.05,-2.58 0.17,-2.57 0.27,-2.58 0.37,-2.6 0.5,-2.64 0.63,-2.66 0.76,-2.72 0.35,-1.08 m 20.37,-33.5 1.87,-2.1 4.36,-4.44 5.1,-4.77 5.94,-5.13 7,-5.55 5.44,-3.95 m 33.6,-20.75 5.65,-3.1 17.77,-8.8 12.1,-5.38 m 36.57,-14.94 0.7,-0.27 34.43,-11.97 2.2,-0.67 m 37.85,-11.4 3.45,-1.03 34.8,-8.9 m 38.45,-9.03 38.66,-8.2 m 38.87,-7.07 38.97,-6.56 m 39.08,-5.8 39.2,-4.92 m 39.2,-4.93 7.3,-0.9 32.05,-2.7 m 39.38,-3.28 39.38,-3.28 m 39.45,-2.1 39.48,-1.63 m 39.48,-1.64 27.7,-1.16 11.8,-0.12 m 39.5,-0.4 19.75,-0.2 19.75,0.4 m 39.5,0.83 39.5,0.82 m 39.52,0.82 2.16,0.04 37.28,2.34 m 39.45,2.47 39.43,2.48 m 39.35,3.57 39.3,4.1 m 39.3,4.12 7.96,0.83 31.16,4.6 m 39.1,5.73 24.7,3.64 14.3,2.7 m 38.8,7.4 24.3,4.6 14.4,3.37 m 38.48,9 8.93,2.08 29.23,8.14 m 37.84,11.36 20.53,6.65 16.8,6.24 m 36.68,14.72 1.7,0.7 19.72,9.28 14.08,7.35 m 33.58,20.77 1.46,1 7.6,5.8 6.47,5.33 5.5,4.94 4.7,4.6 3.98,4.24 m 20.35,33.53 0.74,2.45 0.7,2.7 0.55,2.64 0.43,2.6 0.33,2.6 0.22,2.58 0.1,2.57 0.02,1.3 -0.05,2.58 -0.17,2.57 -0.27,2.58 -0.37,2.6 -0.5,2.64 -0.63,2.66 -0.76,2.72 -0.35,1.08"
         stroke="#ff8f80"
         stroke-width="10"
         fill="none"
         id="path14" />
      <path
         style="display:inline;opacity:0.247588;stroke:#008000;stroke-width:10;stroke-miterlimit:4;stroke-dasharray:40, 40;stroke-dashoffset:0"
         d="m 1520,670 c 0,370.03 -282.06,670 -630,670 C 542.06,1340 260,1040.03 260,670 260,299.97 542.06,0 890,0 c 347.94,0 630,299.97 630,670 z"
         stroke="#7ae266"
         stroke-width="2"
         fill="#7ae266"
         fill-opacity="0.4"
         opacity="0.33"
         id="path16" />
      <path
         style="display:inline;opacity:0.2"
         d="M 1760,730 C 1760,857.03 1366,960 880,960 394,960 0,857.03 0,730 0,602.97 394,500 880,500 c 486,0 880,102.97 880,230 z"
         fill="#ff8f80"
         fill-opacity="0.4"
         id="path12" />
      <path
         style="display:inline"
         d="m 1008.97,578.05 c 0,186.7 -151.35,338.06 -338.05,338.06 -186.7,0 -338.05,-151.35 -338.05,-338.05 0,-186.7 151.35,-338.05 338.05,-338.05 186.7,0 338.05,151.35 338.05,338.05 z"
         stroke="#3278cc"
         stroke-width="2"
         fill="#3278cc"
         fill-opacity="0.4"
         id="path18" />
      <path
         style="display:inline"
         d="m 1209.08,941.95 c 0,186.7 -151.35,338.05 -338.05,338.05 -186.7,0 -338.06,-151.35 -338.06,-338.05 0,-186.7 151.35,-338.06 338.06,-338.06 186.7,0 338.05,151.35 338.05,338.05 z"
         stroke="#ffcd78"
         stroke-width="2"
         fill="#ffcd78"
         fill-opacity="0.4"
         id="path20" />
      <path
         style="display:inline"
         d="m 1427.13,578.05 c 0,186.7 -151.35,338.06 -338.05,338.06 -186.7,0 -338.05,-151.35 -338.05,-338.05 0,-186.7 151.35,-338.05 338.05,-338.05 186.7,0 338.05,151.35 338.05,338.05 z"
         stroke="#58d8d9"
         stroke-width="2"
         fill="#58d8d9"
         fill-opacity="0.4"
         id="path28" />
      <use
         xlink:href="#a"
         transform="translate(744.17645,1232.132)"
         id="use24"
         x="0"
         y="0"
         width="100%"
         height="100%" />
      <use
         xlink:href="#c"
         transform="translate(523.44605,339.67647)"
         id="use32"
         x="0"
         y="0"
         width="100%"
         height="100%" />
      <use
         xlink:href="#d"
         transform="translate(1014.8946,325.8714)"
         id="use38"
         x="0"
         y="0"
         width="100%"
         height="100%" />
      <use
         xlink:href="#e"
         transform="translate(741.64021,76.537344)"
         id="use44"
         x="0"
         y="0"
         width="100%"
         height="100%" />
      <use
         xlink:href="#f"
         transform="translate(43.753086,511.22222)"
         id="use48"
         x="0"
         y="0"
         width="100%"
         height="100%" />
      <use
         xlink:href="#g"
         transform="translate(3.3888889,580.55556)"
         id="use50"
         x="0"
         y="0"
         width="100%"
         height="100%" />
    </g>
  </g>
</svg>
