<?xml version="1.0" encoding="UTF-8" standalone="no"?>
<!-- Created with Inkscape (http://www.inkscape.org/) -->

<svg
   width="419.63919"
   height="60"
   viewBox="0 0 393.41174 56.249999"
   id="svg3754"
   version="1.1"
   inkscape:version="1.3.2 (091e20e, 2023-11-25)"
   sodipodi:docname="LF2l-Navigation-02.svg"
   xml:space="preserve"
   xmlns:inkscape="http://www.inkscape.org/namespaces/inkscape"
   xmlns:sodipodi="http://sodipodi.sourceforge.net/DTD/sodipodi-0.dtd"
   xmlns="http://www.w3.org/2000/svg"
   xmlns:svg="http://www.w3.org/2000/svg"
   xmlns:rdf="http://www.w3.org/1999/02/22-rdf-syntax-ns#"
   xmlns:cc="http://creativecommons.org/ns#"
   xmlns:dc="http://purl.org/dc/elements/1.1/"><defs
     id="defs3756"><clipPath
       clipPathUnits="userSpaceOnUse"
       id="clipPath16"><path
         d="M 0,841.89 H 1190.55 V 0 H 0 Z"
         id="path18"
         inkscape:connector-curvature="0" /></clipPath></defs><sodipodi:namedview
     id="base"
     pagecolor="#ffffff"
     bordercolor="#666666"
     borderopacity="1.0"
     inkscape:pageopacity="0.0"
     inkscape:pageshadow="2"
     inkscape:zoom="0.95780753"
     inkscape:cx="231.25732"
     inkscape:cy="17.226843"
     inkscape:document-units="px"
     inkscape:current-layer="layer1"
     showgrid="false"
     fit-margin-top="0"
     fit-margin-left="0"
     fit-margin-right="0"
     fit-margin-bottom="0"
     inkscape:window-width="1728"
     inkscape:window-height="1051"
     inkscape:window-x="0"
     inkscape:window-y="38"
     inkscape:window-maximized="0"
     inkscape:showpageshadow="2"
     inkscape:pagecheckerboard="0"
     inkscape:deskcolor="#d1d1d1" /><metadata
     id="metadata3759"><rdf:RDF><cc:Work
         rdf:about=""><dc:format>image/svg+xml</dc:format><dc:type
           rdf:resource="http://purl.org/dc/dcmitype/StillImage" /></cc:Work></rdf:RDF></metadata><g
     inkscape:label="Capa 1"
     inkscape:groupmode="layer"
     id="layer1"
     transform="translate(653.55555,83.222959)"><g
       id="g5"><g
         id="g4"
         transform="translate(0,-2.34375)"><text
           xml:space="preserve"
           style="font-style:normal;font-variant:normal;font-weight:normal;font-stretch:normal;font-size:18.7521px;line-height:0%;font-family:Georgia;-inkscape-font-specification:'Georgia, Normal';text-align:start;letter-spacing:0.649625px;word-spacing:0px;writing-mode:lr-tb;text-anchor:start;fill:#ffffff;fill-opacity:1;stroke:none;stroke-width:0.988373px;stroke-linecap:butt;stroke-linejoin:miter;stroke-opacity:1"
           x="-332.11838"
           y="-57.836029"
           id="text3"><tspan
             sodipodi:role="line"
             id="tspan1"
             x="-332.11838"
             y="-57.836029"
             style="font-style:normal;font-variant:normal;font-weight:800;font-stretch:normal;font-size:18.7521px;line-height:1.25;font-family:'Avenir LT Std';-inkscape-font-specification:'Avenir LT Std Ultra-Bold';text-align:center;letter-spacing:0.649625px;text-anchor:middle;fill:#ffffff;stroke-width:0.988373px"
             dx="0">LORRAINE FAB</tspan><tspan
             sodipodi:role="line"
             x="-331.79358"
             y="-34.395905"
             id="tspan3"
             style="font-style:normal;font-variant:normal;font-weight:800;font-stretch:normal;font-size:18.7521px;line-height:1.25;font-family:'Avenir LT Std';-inkscape-font-specification:'Avenir LT Std Ultra-Bold';text-align:center;letter-spacing:0.649625px;text-anchor:middle;fill:#ffffff;stroke-width:0.988373px">LIVING LAB<tspan
   style="font-style:normal;font-variant:normal;font-weight:800;font-stretch:normal;font-size:10.7155px;font-family:'Avenir LT Std';-inkscape-font-specification:'Avenir LT Std Ultra-Bold';text-align:center;letter-spacing:0.649625px;baseline-shift:super;text-anchor:middle;fill:#ffffff;fill-opacity:1;stroke-width:0.988373px"
   id="tspan2">®</tspan></tspan></text><g
           transform="matrix(0.19301957,0,0,-0.19301957,-433.31869,-46.351559)"
           id="g3"
           inkscape:export-filename="/Users/fabbiocrux.ms/Dropbox/Doctorado/Images/logos/LF2L-Avatar.png"
           inkscape:export-xdpi="299.53125"
           inkscape:export-ydpi="299.53125"><path
             inkscape:connector-curvature="0"
             id="path1"
             style="fill:none;fill-opacity:1;fill-rule:nonzero;stroke:#ffffff;stroke-width:6.58612;stroke-dasharray:none;stroke-opacity:1"
             d="M 0,-2.613191e-7 C 71.949,-2.613191e-7 130.275,58.325996 130.275,130.275 130.275,202.224 71.949,260.55 0,260.55 -71.949,260.55 -130.275,202.224 -130.275,130.275 -130.275,58.325996 -71.949,-2.6131913e-7 0,-2.6131913e-7"
             transform="translate(-9.2148106,-97.104006)" /><path
             inkscape:connector-curvature="0"
             id="path2"
             style="fill:#ffffff;fill-opacity:1;fill-rule:nonzero;stroke:none"
             d="m 0,0 v 28.147 c 0,0 34.454,1.888 56.294,-7.607 17.496,-7.608 35.754,-22.061 38.037,-47.166 2.281,-25.104 -1.021,-41.625 -15.977,-60.097 -12.931,-15.976 -42.6,-20.54 -51.728,-21.301 -9.129,-0.761 -25.865,-1.337 -25.865,-1.337 L 0,-81.398 c 0,0 28.568,0.76 38.037,4.564 9.467,3.804 24.343,11.411 25.864,29.669 1.522,18.257 -6.205,34.993 -16.416,40.318 C 37.276,-1.521 33.472,0.761 0,0"
             transform="translate(-11.466288,74.521987)" /><path
             inkscape:connector-curvature="0"
             id="path3"
             style="fill:#ffffff;fill-opacity:1;fill-rule:nonzero;stroke:none"
             d="m 0,0 v 24.424 h -16.792 l -1.526,84.721 H -50.375 L -106.092,22.897 -107.223,0 l 60.664,-0.067 1.527,-29.381 h 26.714 V 0 Z m -45.032,25.187 h -31.293 l 31.293,47.322 z" /></g></g><g
         inkscape:export-ydpi="150"
         inkscape:export-xdpi="150"
         inkscape:export-filename="/Users/fabio/Documents/Personal/MdC/Poste-ENSGSI/Figures/logos/UL-ENSGSI-ERPI.png"
         transform="matrix(1.1588858,0,0,-1.1588858,-1265.7773,432.72853)"
         id="g7520"><g
           id="g7518"
           clip-path="url(#clipPath16)"><g
             id="g7434"
             transform="translate(585.6777,432.9629)"><path
               d="m 0,0 v -8.199 c 0,-1.12 0.487,-1.704 1.575,-1.704 1.088,0 1.591,0.584 1.591,1.704 V 0 h 2.24 v -8.215 c 0,-2.581 -1.526,-3.669 -3.831,-3.669 -2.305,0 -3.815,1.088 -3.815,3.669 V 0 Z"
               style="fill:#ffffff;fill-opacity:1;fill-rule:nonzero;stroke:none"
               id="path7432"
               inkscape:connector-curvature="0" /></g><g
             id="g7438"
             transform="translate(592.6982,421.2412)"><path
               d="M 0,0 V 11.722 H 2.452 L 5.569,4.773 h 0.033 v 6.949 H 7.647 V 0 H 5.504 L 2.078,7.565 H 2.046 V 0 Z"
               style="fill:#ffffff;fill-opacity:1;fill-rule:nonzero;stroke:none"
               id="path7436"
               inkscape:connector-curvature="0" /></g><path
             d="m 601.967,432.963 h 2.239 v -11.722 h -2.239 z"
             style="fill:#ffffff;fill-opacity:1;fill-rule:nonzero;stroke:none"
             id="path7440"
             inkscape:connector-curvature="0" /><g
             id="g7444"
             transform="translate(605.2603,432.9629)"><path
               d="M 0,0 H 2.208 L 4.271,-8.377 H 4.303 L 6.349,0 H 8.54 L 5.553,-11.722 H 3.004 Z"
               style="fill:#ffffff;fill-opacity:1;fill-rule:nonzero;stroke:none"
               id="path7442"
               inkscape:connector-curvature="0" /></g><g
             id="g7448"
             transform="translate(614.8491,421.2412)"><path
               d="M 0,0 V 11.722 H 6.138 V 9.741 H 2.24 V 7.046 H 5.212 V 5.065 H 2.24 V 1.98 H 6.3 V 0 Z"
               style="fill:#ffffff;fill-opacity:1;fill-rule:nonzero;stroke:none"
               id="path7446"
               inkscape:connector-curvature="0" /></g><g
             id="g7452"
             transform="translate(624.8442,427.8652)"><path
               d="m 0,0 h 1.151 c 0.993,0 1.592,0.487 1.592,1.624 0,1.136 -0.599,1.623 -1.592,1.623 H 0 Z M 3.02,-6.624 1.07,-1.851 H 0 V -6.624 H -2.24 V 5.098 h 3.247 c 2.694,0 3.976,-1.299 3.976,-3.507 0,-1.461 -0.518,-2.516 -1.768,-2.987 l 2.208,-5.228 z"
               style="fill:#ffffff;fill-opacity:1;fill-rule:nonzero;stroke:none"
               id="path7450"
               inkscape:connector-curvature="0" /></g><g
             id="g7456"
             transform="translate(636.0112,429.6997)"><path
               d="m 0,0 c -0.373,1.104 -0.859,1.575 -1.64,1.575 -0.795,0 -1.233,-0.487 -1.233,-1.283 0,-1.769 5,-1.899 5,-5.568 0,-2.014 -1.38,-3.345 -3.732,-3.345 -1.82,0 -3.233,0.991 -3.833,3.296 l 2.209,0.471 c 0.258,-1.413 1.071,-1.916 1.737,-1.916 0.778,0 1.38,0.52 1.38,1.396 0,2.208 -5.001,2.241 -5.001,5.52 0,2.014 1.202,3.28 3.522,3.28 1.997,0 3.215,-1.185 3.606,-2.842 z"
               style="fill:#ffffff;fill-opacity:1;fill-rule:nonzero;stroke:none"
               id="path7454"
               inkscape:connector-curvature="0" /></g><path
             d="m 639.229,432.963 h 2.24 v -11.722 h -2.24 z"
             style="fill:#ffffff;fill-opacity:1;fill-rule:nonzero;stroke:none"
             id="path7458"
             inkscape:connector-curvature="0" /><g
             id="g7462"
             transform="translate(649.9976,432.9629)"><path
               d="m 0,0 v -1.98 h -2.613 v -9.742 H -4.854 V -1.98 H -7.468 V 0 Z"
               style="fill:#ffffff;fill-opacity:1;fill-rule:nonzero;stroke:none"
               id="path7460"
               inkscape:connector-curvature="0" /></g><g
             id="g7466"
             transform="translate(656.7397,435.999)"><path
               d="M 0,0 -2.388,-2.37 H -4.026 L -2.518,0 Z m -5.698,-14.758 v 11.722 h 6.136 v -1.981 h -3.896 v -2.695 h 2.971 v -1.98 h -2.971 v -3.085 h 4.059 v -1.981 z"
               style="fill:#ffffff;fill-opacity:1;fill-rule:nonzero;stroke:none"
               id="path7464"
               inkscape:connector-curvature="0" /></g><g
             id="g7470"
             transform="translate(585.5479,408.9727)"><path
               d="m 0,0 h 0.779 c 1.234,0 1.949,0.585 1.949,2.338 v 3.085 c 0,1.656 -0.552,2.338 -1.949,2.338 H 0 Z m -2.24,9.741 h 3.117 c 2.565,0 3.994,-1.103 4.091,-4.058 V 2.078 C 4.871,-0.876 3.442,-1.979 0.877,-1.979 H -2.24 Z"
               style="fill:#ffffff;fill-opacity:1;fill-rule:nonzero;stroke:none"
               id="path7468"
               inkscape:connector-curvature="0" /></g><g
             id="g7474"
             transform="translate(592.1338,406.9922)"><path
               d="M 0,0 V 11.722 H 6.137 V 9.741 H 2.24 V 7.046 H 5.211 V 5.065 H 2.24 V 1.979 H 6.299 V 0 Z"
               style="fill:#ffffff;fill-opacity:1;fill-rule:nonzero;stroke:none"
               id="path7472"
               inkscape:connector-curvature="0" /></g><g
             id="g7478"
             transform="translate(603.9478,406.9922)"><path
               d="M 0,0 V 11.722 H 2.24 V 1.979 H 5.846 V 0 Z"
               style="fill:#ffffff;fill-opacity:1;fill-rule:nonzero;stroke:none"
               id="path7476"
               inkscape:connector-curvature="0" /></g><g
             id="g7482"
             transform="translate(612.8979,410.4668)"><path
               d="m 0,0 c 0,-1.299 0.568,-1.656 1.463,-1.656 0.891,0 1.461,0.357 1.461,1.656 v 4.772 c 0,1.299 -0.57,1.657 -1.461,1.657 C 0.568,6.429 0,6.071 0,4.772 Z m -2.239,4.479 c 0,2.891 1.525,3.93 3.702,3.93 2.175,0 3.7,-1.039 3.7,-3.93 V 0.292 c 0,-2.89 -1.525,-3.929 -3.7,-3.929 -2.177,0 -3.702,1.039 -3.702,3.929 z"
               style="fill:#ffffff;fill-opacity:1;fill-rule:nonzero;stroke:none"
               id="path7480"
               inkscape:connector-curvature="0" /></g><g
             id="g7486"
             transform="translate(621.9438,413.6162)"><path
               d="m 0,0 h 1.151 c 0.993,0 1.592,0.487 1.592,1.623 0,1.137 -0.599,1.624 -1.592,1.624 H 0 Z M 3.02,-6.624 1.07,-1.851 H 0 V -6.624 H -2.24 V 5.098 h 3.247 c 2.694,0 3.976,-1.299 3.976,-3.507 0,-1.461 -0.518,-2.517 -1.768,-2.987 l 2.208,-5.228 z"
               style="fill:#ffffff;fill-opacity:1;fill-rule:nonzero;stroke:none"
               id="path7484"
               inkscape:connector-curvature="0" /></g><g
             id="g7490"
             transform="translate(630.6655,413.6162)"><path
               d="m 0,0 h 1.152 c 0.993,0 1.592,0.487 1.592,1.623 0,1.137 -0.599,1.624 -1.592,1.624 H 0 Z m 3.021,-6.624 -1.95,4.773 H 0 V -6.624 H -2.239 V 5.098 h 3.247 c 2.694,0 3.976,-1.299 3.976,-3.507 0,-1.461 -0.518,-2.517 -1.768,-2.987 l 2.208,-5.228 z"
               style="fill:#ffffff;fill-opacity:1;fill-rule:nonzero;stroke:none"
               id="path7488"
               inkscape:connector-curvature="0" /></g><g
             id="g7494"
             transform="translate(639.9487,411.4404)"><path
               d="M 0,0 H 2.226 L 1.138,4.741 H 1.104 Z M -3.197,-4.448 -0.292,7.273 H 2.582 L 5.406,-4.448 H 3.265 l -0.57,2.468 h -3.099 l -0.634,-2.468 z"
               style="fill:#ffffff;fill-opacity:1;fill-rule:nonzero;stroke:none"
               id="path7492"
               inkscape:connector-curvature="0" /></g><path
             d="m 646.429,418.714 h 2.24 v -11.722 h -2.24 z"
             style="fill:#ffffff;fill-opacity:1;fill-rule:nonzero;stroke:none"
             id="path7496"
             inkscape:connector-curvature="0" /><g
             id="g7500"
             transform="translate(650.312,406.9922)"><path
               d="M 0,0 V 11.722 H 2.45 L 5.567,4.773 h 0.034 v 6.949 H 7.646 V 0 H 5.504 L 2.077,7.565 H 2.045 V 0 Z"
               style="fill:#ffffff;fill-opacity:1;fill-rule:nonzero;stroke:none"
               id="path7498"
               inkscape:connector-curvature="0" /></g><g
             id="g7504"
             transform="translate(659.5229,406.9922)"><path
               d="M 0,0 V 11.722 H 6.137 V 9.741 H 2.239 V 7.046 H 5.211 V 5.065 H 2.239 V 1.979 h 4.06 L 6.299,0 Z"
               style="fill:#ffffff;fill-opacity:1;fill-rule:nonzero;stroke:none"
               id="path7502"
               inkscape:connector-curvature="0" /></g><g
             id="g7508"
             transform="translate(576.3218,420.9434)"><path
               d="m 0,0 c 0,-13.125 -10.642,-23.768 -23.768,-23.768 -13.128,0 -23.769,10.643 -23.769,23.768 0,13.127 10.641,23.77 23.769,23.77 C -10.642,23.77 0,13.127 0,0"
               style="fill:none;fill-opacity:1;fill-rule:nonzero;stroke:#ffffff"
               id="path7506"
               inkscape:connector-curvature="0" /></g><g
             id="g7512"
             transform="translate(552.1968,413.9941)"><path
               d="m 0,0 c -0.53,-0.289 -1.185,-0.443 -1.967,-0.443 -2.277,0 -3.689,0.881 -3.689,5.277 v 14.118 h -7.34 V 4.732 c 0,-7.529 4.02,-11.847 11.029,-11.847 2.126,0 3.743,0.351 5.337,1.128 C 1.772,-4.464 0.625,-2.452 0,0"
               style="fill:#ffffff;fill-opacity:1;fill-rule:nonzero;stroke:none"
               id="path7510"
               inkscape:connector-curvature="0" /></g><g
             id="g7516"
             transform="translate(561.3638,418.8311)"><path
               d="M 0,0 V 14.118 H -7.34 V -0.103 c 0,-7.527 4.022,-11.846 11.029,-11.846 h 2.909 v 6.671 H 3.689 C 1.412,-5.278 0,-4.396 0,0"
               style="fill:#ffffff;fill-opacity:1;fill-rule:nonzero;stroke:none"
               id="path7514"
               inkscape:connector-curvature="0" /></g></g></g><path
         style="fill:none;stroke:#ffffff;stroke-width:1.875;stroke-dasharray:none"
         d="m -477.52216,-77.95715 v 45.71838"
         id="path4"
         sodipodi:nodetypes="cc" /></g></g></svg>
