<?xml version="1.0" encoding="UTF-8" standalone="no"?>
<svg
   xmlns:dc="http://purl.org/dc/elements/1.1/"
   xmlns:cc="http://creativecommons.org/ns#"
   xmlns:rdf="http://www.w3.org/1999/02/22-rdf-syntax-ns#"
   xmlns:svg="http://www.w3.org/2000/svg"
   xmlns="http://www.w3.org/2000/svg"
   xmlns:sodipodi="http://sodipodi.sourceforge.net/DTD/sodipodi-0.dtd"
   xmlns:inkscape="http://www.inkscape.org/namespaces/inkscape"
   version="1.1"
   x="0px"
   y="0px"
   viewBox="0 0 80.000002 79.999998"
   enable-background="new 0 0 35.2001 33.759"
   xml:space="preserve"
   id="svg2"
   inkscape:version="0.91 r13725"
   sodipodi:docname="Recycling.svg"
   width="80"
   height="80"><metadata
     id="metadata14"><rdf:RDF><cc:Work
         rdf:about=""><dc:format>image/svg+xml</dc:format><dc:type
           rdf:resource="http://purl.org/dc/dcmitype/StillImage" /><dc:title></dc:title></cc:Work></rdf:RDF></metadata><defs
     id="defs12" /><sodipodi:namedview
     pagecolor="#ffffff"
     bordercolor="#666666"
     borderopacity="1"
     objecttolerance="10"
     gridtolerance="10"
     guidetolerance="10"
     inkscape:pageopacity="0"
     inkscape:pageshadow="2"
     inkscape:window-width="1436"
     inkscape:window-height="855"
     id="namedview10"
     showgrid="false"
     fit-margin-top="0"
     fit-margin-left="0"
     fit-margin-right="0"
     fit-margin-bottom="0"
     inkscape:zoom="5.5925828"
     inkscape:cx="44.063659"
     inkscape:cy="55.573583"
     inkscape:window-x="0"
     inkscape:window-y="1"
     inkscape:window-maximized="1"
     inkscape:current-layer="svg2" /><path
     d="m 65.864826,46.363529 -7.168159,12.41861 c -0.795491,1.382741 -2.253473,2.150832 -3.746111,2.139132 l -6.196271,0 0.0057,3.58556 c 0.0029,0.556889 -0.280665,0.659677 -0.621907,0.218461 -1.573654,-2.036493 -5.585916,-7.467635 -5.585916,-9.962673 0,-2.494888 4.012262,-7.92455 5.585916,-9.961042 0.341242,-0.442697 0.62487,-0.33991 0.621907,0.21683 l -0.0057,3.601557 c 0,-0.0043 12.158234,-0.0043 12.158234,-0.0043 1.90053,0.01733 3.696939,-0.844812 4.882992,-2.295535 0.352794,-0.43381 0.347019,-0.438254 0.06932,0.0434 z m -7.463192,-25.65137 -3.106873,1.802185 c 0,0 -1.556325,-2.719126 -2.175271,-3.795283 -0.885246,-1.512928 -2.499333,-2.464675 -4.249532,-2.460232 -1.753013,0.0013 -3.372876,0.960336 -4.235017,2.484818 0,0.0029 -1.428951,2.457418 -2.860866,4.953788 l 2.89271,5.007404 -3.144346,1.761604 c -0.48313,0.273408 -0.433958,0.565626 0.118635,0.639385 2.551319,0.344204 9.259601,1.100743 11.423319,-0.147517 2.158091,-1.249741 4.856926,-7.434459 5.834738,-9.815156 0.211203,-0.516307 -0.01733,-0.711514 -0.497497,-0.430996 z m -2.965133,12.217478 -1.915045,1.105037 c -2.415355,1.392962 -3.239875,4.479397 -1.845581,6.891938 l 3.688348,6.385849 c 2.878194,0 5.718917,0.0014 5.718917,0.0014 1.755976,0.01451 3.390354,-0.924198 4.269675,-2.43846 0.87073,-1.51293 0.86214,-3.400426 -0.02311,-4.909059 0,-0.0043 -1.365413,-2.364851 -2.999792,-5.192539 -1.394293,-2.412563 -4.480876,-3.236935 -6.893416,-1.844122 z m -40.932327,12.974016 7.16816,12.415646 c 0.277704,0.483131 0.269113,0.483131 0.07242,-0.03614 -0.66249,-1.751531 -0.512011,-3.740333 0.454101,-5.381969 l 6.080598,-10.529632 3.112502,1.805148 c 0.48313,0.279185 0.711662,0.08679 0.497645,-0.429663 -0.972037,-2.380697 -3.670872,-8.56823 -5.831775,-9.816488 -2.163867,-1.246778 -8.872149,-0.49024 -11.423468,-0.146036 -0.552593,0.07657 -0.604579,0.370272 -0.121449,0.649456 l 3.115464,1.78619 -3.101098,5.370417 c -0.757871,1.28588 -0.818596,2.927515 -0.0231,4.313071 z m 11.597051,2.845018 c -1.43769,2.495037 -2.858051,4.955268 -2.858051,4.958231 -0.888059,1.507004 -0.899612,3.387392 -0.02029,4.906096 0.873692,1.52004 2.50807,2.455938 4.261083,2.442904 0,0 2.730678,0 5.996621,0 2.785774,0 5.044875,-2.260729 5.044875,-5.046504 l 0,-2.215853 c 0,-2.784145 -2.259101,-5.044874 -5.044875,-5.044874 l -7.379362,0 z m 7.460378,-33.748172 c -1.599721,0 -2.947805,0.898131 -3.723007,2.169495 -0.714475,1.157172 -2.47045,4.197397 -3.968864,6.818178 -1.385557,2.415504 -0.543855,5.509195 1.865872,6.903639 l 1.955477,1.128143 c 2.415502,1.395775 5.499124,0.565479 6.890456,-1.848544 2.48778,-4.308775 6.04594,-10.471722 6.971619,-12.065667 0.954559,-1.644449 2.522437,-2.734972 4.344913,-3.028672 0.549632,-0.08813 0.555407,-0.07657 -0.0029,-0.07657 l -14.333505,0 z"
     id="path4"
     inkscape:connector-curvature="0"
     style="fill:#ffffff" /></svg>