<?xml version="1.0" encoding="UTF-8" standalone="no"?>
<!-- Created with Inkscape (http://www.inkscape.org/) -->

<svg
   xmlns:dc="http://purl.org/dc/elements/1.1/"
   xmlns:cc="http://creativecommons.org/ns#"
   xmlns:rdf="http://www.w3.org/1999/02/22-rdf-syntax-ns#"
   xmlns:svg="http://www.w3.org/2000/svg"
   xmlns="http://www.w3.org/2000/svg"
   xmlns:sodipodi="http://sodipodi.sourceforge.net/DTD/sodipodi-0.dtd"
   xmlns:inkscape="http://www.inkscape.org/namespaces/inkscape"
   width="80"
   height="80"
   viewBox="0 0 80 79.999997"
   id="svg14372"
   version="1.1"
   inkscape:version="0.91 r13725"
   sodipodi:docname="3DP.svg">
  <defs
     id="defs14374" />
  <sodipodi:namedview
     id="base"
     pagecolor="#ffffff"
     bordercolor="#666666"
     borderopacity="1.0"
     inkscape:pageopacity="0.0"
     inkscape:pageshadow="2"
     inkscape:zoom="0.98994949"
     inkscape:cx="95.698854"
     inkscape:cy="48.213805"
     inkscape:document-units="px"
     inkscape:current-layer="layer1"
     showgrid="false"
     fit-margin-top="0"
     fit-margin-left="0"
     fit-margin-right="0"
     fit-margin-bottom="0"
     inkscape:window-width="1436"
     inkscape:window-height="855"
     inkscape:window-x="0"
     inkscape:window-y="1"
     inkscape:window-maximized="1"
     units="px" />
  <metadata
     id="metadata14377">
    <rdf:RDF>
      <cc:Work
         rdf:about="">
        <dc:format>image/svg+xml</dc:format>
        <dc:type
           rdf:resource="http://purl.org/dc/dcmitype/StillImage" />
        <dc:title></dc:title>
      </cc:Work>
    </rdf:RDF>
  </metadata>
  <g
     inkscape:label="Capa 1"
     inkscape:groupmode="layer"
     id="layer1"
     transform="translate(219.45964,-395.82633)">
    <g
       transform="matrix(0.33900433,0,0,0.33900433,-1124.8963,384.34379)"
       id="g3683">
      <path
         style="clip-rule:evenodd;fill:#ffffff;fill-rule:evenodd"
         inkscape:connector-curvature="0"
         d="m 2749.115,77.014 c 0,2.027 -0.087,3.767 0.058,5.49 0.039,0.463 0.711,1.01 1.22,1.257 0.44,0.214 1.062,0.057 1.602,0.057 24.781,0.002 49.563,-0.016 74.343,0.037 1.77,0.003 2.549,-0.377 2.332,-2.28 -0.16,-1.414 -0.031,-2.863 -0.031,-4.541 2.17,0 4.191,-0.003 6.213,0 3.366,0.01 6.757,-0.22 10.085,0.143 1.598,0.172 3.122,1.383 4.594,2.264 3.896,2.337 7.708,4.809 11.633,7.094 1.106,0.645 1.43,1.232 1.376,2.526 -0.133,3.232 0.039,6.475 0.041,9.714 0.01,33.565 0.021,67.127 10e-4,100.689 -10e-4,5.434 -0.176,10.869 -0.196,16.303 -0.011,3.119 0.102,6.241 0.219,9.36 0.049,1.258 -0.419,1.648 -1.684,1.629 -4.685,-0.068 -9.371,0.019 -14.056,-0.06 -0.732,-0.011 -1.629,-0.402 -2.152,-0.918 -4.967,-4.897 -9.889,-9.839 -14.773,-14.818 -0.92,-0.938 -1.872,-1.278 -3.176,-1.278 -25.383,0.036 -50.764,0.015 -76.147,0.074 -0.887,0 -1.976,0.496 -2.628,1.117 -5.115,4.89 -10.134,9.881 -15.222,14.801 -0.468,0.452 -1.201,0.873 -1.823,0.887 -4.748,0.117 -9.498,0.091 -14.246,0.193 -1.203,0.026 -1.563,-0.395 -1.557,-1.546 0.028,-5.836 0,-11.669 -0.01,-17.505 0,-2.444 0.021,-4.887 0.02,-7.332 -0.01,-33.921 -0.015,-67.846 -0.022,-101.769 0,-3.237 0.07,-6.476 -0.01,-9.713 -0.028,-1.19 0.399,-1.912 1.385,-2.466 3.387,-1.908 6.758,-3.844 10.136,-5.768 1.849,-1.051 3.695,-2.105 5.55,-3.145 0.355,-0.201 0.747,-0.473 1.124,-0.474 5.165,-0.031 10.329,-0.022 15.795,-0.022 z m 79.523,26.56 c -8.721,0 -17.169,0 -25.651,0 -0.05,0.489 -0.17,0.86 -0.108,1.195 0.572,3.119 -0.64,5.459 -3.094,7.287 -0.285,0.214 -0.509,0.509 -0.769,0.758 -3.111,2.989 -6.225,5.978 -9.16,8.796 -3.091,-2.979 -6.244,-6.202 -9.599,-9.194 -2.342,-2.086 -3.873,-4.304 -3.291,-7.601 0.245,-1.38 -0.834,-1.31 -1.768,-1.31 -8.179,0.005 -16.359,0.002 -24.538,0.011 -0.458,0 -0.914,0.1 -1.444,0.162 -0.039,0.52 -0.097,0.931 -0.097,1.342 -0.01,22.915 0.01,45.83 -0.032,68.745 0,1.412 0.542,1.723 1.806,1.71 4.685,-0.049 9.371,-0.019 14.056,-0.019 20.442,0.003 40.884,0.005 61.326,0.003 2.363,0 2.364,-0.014 2.364,-2.377 10e-4,-22.374 10e-4,-44.748 10e-4,-67.122 0,-0.711 0,-1.42 0,-2.386 z m 11.152,89.606 c -3.801,-4.226 -7.264,-8.113 -10.798,-11.938 -0.327,-0.353 -1.091,-0.416 -1.655,-0.424 -2.58,-0.045 -5.159,-0.021 -7.74,-0.021 -23.018,-0.002 -46.037,-0.015 -69.055,0.047 -0.879,0.002 -1.967,0.502 -2.596,1.13 -1.866,1.865 -3.554,3.909 -5.307,5.888 -1.492,1.684 -2.976,3.373 -4.691,5.318 34.022,0 67.646,0 101.842,0 z m -5.387,-85.013 c -0.089,0.648 -0.151,0.884 -0.151,1.121 -0.01,22.011 -0.016,44.023 0.024,66.035 0,0.623 0.39,1.373 0.834,1.846 1.972,2.102 4.017,4.137 6.059,6.176 1.289,1.286 2.615,2.536 3.925,3.801 0.146,-0.057 0.292,-0.115 0.437,-0.173 0,-0.633 0,-1.268 0,-1.903 0.047,-21.409 0.036,-42.819 0.211,-64.23 0.022,-2.793 -0.564,-4.699 -2.979,-6.277 -2.84,-1.854 -5.415,-4.113 -8.36,-6.396 z m -91.333,-0.113 c -0.908,0.699 -1.367,1.036 -1.808,1.394 -2.661,2.157 -5.289,4.354 -7.992,6.458 -0.901,0.701 -1.229,1.449 -1.23,2.583 0,7.637 -0.098,15.273 -0.127,22.91 -0.056,14.556 -0.089,29.11 -0.125,43.665 0,0.623 0.052,1.245 0.093,2.165 0.603,-0.447 0.955,-0.646 1.231,-0.921 2.898,-2.877 5.755,-5.797 8.688,-8.639 0.935,-0.905 1.295,-1.853 1.292,-3.161 -0.036,-21.232 -0.023,-42.463 -0.022,-63.694 0,-0.714 0,-1.426 0,-2.76 z m 36.131,-17.431 c -1.208,0 -1.799,0 -2.392,0 -7.821,0 -15.643,-0.049 -23.463,0.021 -5.054,0.045 -4.1,-1.002 -4.255,4.427 -0.036,1.265 0.529,1.488 1.623,1.485 7.58,-0.033 15.162,-0.013 22.74,-0.036 0.509,-0.002 1.218,-0.058 1.488,-0.381 1.366,-1.633 2.618,-3.362 4.259,-5.516 z m 49.439,5.912 c 0,-1.579 -0.079,-2.894 0.023,-4.193 0.104,-1.346 -0.382,-1.749 -1.725,-1.739 -8.28,0.052 -16.557,0.019 -24.837,0.033 -0.366,0 -0.73,0.152 -1.312,0.282 1.229,1.618 2.223,3.125 3.435,4.427 0.563,0.602 1.548,1.114 2.358,1.138 4.016,0.115 8.035,0.052 12.056,0.052 3.231,0 6.462,0 10.002,0 z"
         id="path3685" />
      <path
         style="clip-rule:evenodd;fill:#ffffff;fill-rule:evenodd"
         inkscape:connector-curvature="0"
         d="m 2789.556,124.302 c 2.241,2.698 3.974,4.997 4.57,7.883 0.366,1.775 -0.314,3.346 -1.901,4.34 -1.635,1.027 -3.368,0.978 -4.906,-0.141 -1.477,-1.074 -2.264,-2.74 -1.584,-4.443 1.007,-2.516 2.411,-4.87 3.821,-7.639 z"
         id="path3687" />
    </g>
  </g>
</svg>
