<svg xmlns="http://www.w3.org/2000/svg" xmlns:xlink="http://www.w3.org/1999/xlink" version="1.1" x="0px" y="0px" viewBox="0 0 100 125" style="enable-background:new 0 0 100 100;" xml:space="preserve"><g><path d="M65.162,35.65V24.733c0-5.101-3.675-9.34-8.521-10.223v-1.458h1.021v-2.129h-1.021V9.638h1.673V0.059H41.685v9.579h1.673   v1.286h-1.02v2.129h1.02v1.458c-4.846,0.883-8.52,5.123-8.52,10.223V35.65c0,2.079,0.613,4.013,1.664,5.637   c-2.027,2.074-3.279,4.91-3.279,8.039v39.113c0,6.352,5.149,11.502,11.501,11.502h10.551c6.353,0,11.502-5.15,11.502-11.502V49.326   c0-3.129-1.252-5.965-3.279-8.039C64.549,39.663,65.162,37.729,65.162,35.65z M55.533,2.012h0.828v5.673h-0.828V2.012z    M53.424,2.012h1.133v5.673h-1.133V2.012z M50.478,2.012h1.969v5.673h-1.969V2.012z M47.533,2.012h1.968v5.673h-1.968V2.012z    M45.423,2.012h1.134v5.673h-1.134V2.012z M43.638,2.012h0.808v5.673h-0.808V2.012z M60.584,73.819c0,0-1.41,2.748-2.209,4.223   c-0.543,1.002-2.149,1.015-2.149,1.015l-2.255,0.01l0.006,1.332l-3.871-3.765l0.002,2.659c0,0-5.42,0.01-6.593,0   c-1.146-0.097-1.922-1.545-1.922-1.545s-1.595-2.645-2.428-4.101c-0.566-0.989,0.268-2.362,0.268-2.362l1.18-1.921l-1.135-0.696   l5.27-1.318l1.609,5.539l-1.179-0.724l-0.988,1.61h5.915l0.002,2.809l3.84-4.257l0.005,1.383l1.89-0.007l-3.124-5.023l2.385-1.479   l-5.573-1.434l1.223-0.646l-0.882-1.671l-3.002,5.096l-4.76-2.813c0,0,2.782-4.651,3.389-5.655   c0.667-0.938,2.278-0.886,2.278-0.886s3.088-0.024,4.765,0c1.141,0.017,1.896,1.434,1.896,1.434l1.053,1.994l1.178-0.622   l-1.546,5.192l2.297-1.425c0,0,2.831,4.621,3.44,5.625C61.377,72.416,60.584,73.819,60.584,73.819z M61.48,27.554H38.52v-3.136   c0-4.045,3.291-7.337,7.337-7.337h8.288c4.045,0,7.336,3.292,7.336,7.337V27.554z"/></g><g><path d="M-3104-1374c0-2.431-8.793-4.146-9.156-6.475c-0.377-2.39,7.452-6.728,6.721-8.979c-0.742-2.291-9.634-1.2-10.716-3.316   c-1.09-2.139,5.007-8.696,3.604-10.622c-1.409-1.937-9.528,1.847-11.217,0.156c-1.689-1.688,2.095-9.806,0.157-11.214   c-1.927-1.404-8.484,4.693-10.621,3.602c-2.118-1.081-1.025-9.969-3.317-10.714c-2.253-0.732-6.591,7.097-8.981,6.721   c-2.328-0.367-4.043-9.158-6.475-9.158s-4.146,8.791-6.474,9.158c-2.391,0.375-6.729-7.455-8.98-6.723   c-2.291,0.744-1.2,9.635-3.316,10.715c-2.139,1.093-8.695-5.005-10.623-3.602c-1.936,1.409,1.848,9.527,0.159,11.216   c-1.69,1.689-9.807-2.095-11.215-0.158c-1.404,1.928,4.692,8.483,3.6,10.622c-1.081,2.117-9.97,1.025-10.714,3.317   c-0.731,2.252,7.098,6.59,6.722,8.98c-0.366,2.328-9.157,4.044-9.157,6.475c0,2.432,8.791,4.147,9.155,6.475   c0.377,2.39-7.452,6.729-6.721,8.98c0.744,2.291,9.634,1.199,10.714,3.316c1.093,2.14-5.005,8.694-3.603,10.622   c1.412,1.937,9.526-1.849,11.216-0.158c1.691,1.69-2.095,9.806-0.159,11.215c1.929,1.404,8.484-4.692,10.622-3.6   c2.119,1.082,1.027,9.971,3.318,10.715c2.252,0.73,6.59-7.099,8.981-6.723c2.328,0.366,4.043,9.157,6.474,9.157   s4.147-8.791,6.475-9.157c2.391-0.376,6.727,7.454,8.98,6.723c2.291-0.743,1.2-9.634,3.316-10.715   c2.14-1.09,8.693,5.006,10.624,3.602c1.936-1.409-1.85-9.526-0.159-11.216c1.69-1.688,9.805,2.095,11.215,0.158   c1.404-1.929-4.693-8.483-3.601-10.621c1.083-2.118,9.971-1.026,10.716-3.317c0.729-2.252-7.098-6.591-6.722-8.981   C-3112.793-1369.853-3104-1371.568-3104-1374z M-3149.589-1341.922v-5.19h3.255v-7.389l9.142-11.518v-10.975h-4.581v-14.592   c0.01-2.092-1.61-3.781-3.705-3.771c-2.094,0.01-3.867,1.715-3.878,3.808v14.556h-9.287v-14.556   c-0.01-2.092-1.784-3.797-3.878-3.808c-2.095-0.009-3.714,1.68-3.705,3.771v14.592h-4.581v10.975l9.142,11.518v7.389h3.255v5.19   c-15.794-2.152-27.966-15.691-27.966-32.078c0-17.881,14.496-32.376,32.376-32.376c17.882,0,32.378,14.495,32.378,32.376   C-3121.622-1357.613-3133.794-1344.074-3149.589-1341.922z"/></g><text x="0" y="115" fill="#000000" font-size="5px" font-weight="bold" font-family="'Helvetica Neue', Helvetica, Arial-Unicode, Arial, Sans-serif">Created by b farias</text><text x="0" y="120" fill="#000000" font-size="5px" font-weight="bold" font-family="'Helvetica Neue', Helvetica, Arial-Unicode, Arial, Sans-serif">from the Noun Project</text></svg>