<svg id="Groupe_42" data-name="Groupe 42" xmlns="http://www.w3.org/2000/svg" width="168.886" height="47.801" viewBox="0 0 168.886 47.801">
  <path id="Tracé_1" data-name="Tracé 1" d="M289.539,255.186h.43a.662.662,0,0,0,.8-.777v-8.754a.773.773,0,0,0-.174-.562.805.805,0,0,0-.583-.174h-.471v-1.493h4.622v1.493h-.491a.631.631,0,0,0-.736.736v9.531h3.539a.844.844,0,0,0,.593-.174.774.774,0,0,0,.184-.583v-.655h1.964v2.884h-9.674Z" transform="translate(-240.597 -230.193)" fill="#ce5e51"/>
  <path id="Tracé_2" data-name="Tracé 2" d="M327.782,263.307a4.92,4.92,0,0,1-1.4-3.794,5.533,5.533,0,0,1,1.3-4,4.906,4.906,0,0,1,3.692-1.34,4.483,4.483,0,0,1,3.5,1.309,5.072,5.072,0,0,1,1.186,3.539v.941h-7.506a3.278,3.278,0,0,0,.808,2.444,2.986,2.986,0,0,0,2.178.788,6.432,6.432,0,0,0,1.309-.113,2.974,2.974,0,0,0,.961-.378v-.736h1.9V263.4a6.237,6.237,0,0,1-1.851.91,8.231,8.231,0,0,1-2.342.3A5.271,5.271,0,0,1,327.782,263.307Zm6.167-4.673q0-2.986-2.6-2.986a2.658,2.658,0,0,0-2.086.8,3.158,3.158,0,0,0-.716,2.189Z" transform="translate(-266.784 -237.833)" fill="#ce5e51"/>
  <path id="Tracé_3" data-name="Tracé 3" d="M364.781,263.89a2.9,2.9,0,0,1,.082-4.183,5.111,5.111,0,0,1,2.69-.808l2.864-.184v-1.247a1.971,1.971,0,0,0-.409-1.391,1.867,1.867,0,0,0-1.391-.43,4.606,4.606,0,0,0-1.115.113,2.609,2.609,0,0,0-.808.358v.736h-1.9v-1.616a7.2,7.2,0,0,1,3.866-1.064q3.927,0,3.927,3.477v4.479a.923.923,0,0,0,.153.593.618.618,0,0,0,.5.184h.45V264.3h-2.352l-.266-1.288a3.912,3.912,0,0,1-1.524,1.217,5.789,5.789,0,0,1-2.28.378A3.766,3.766,0,0,1,364.781,263.89ZM369.7,262.6a1.882,1.882,0,0,0,.716-1.616V260l-2.7.2a2.281,2.281,0,0,0-1.391.419,1.476,1.476,0,0,0-.389,1.135,1.238,1.238,0,0,0,.429,1.023,2.213,2.213,0,0,0,1.391.348A3.19,3.19,0,0,0,369.7,262.6Z" transform="translate(-293.475 -237.833)" fill="#ce5e51"/>
  <path id="Tracé_4" data-name="Tracé 4" d="M402.471,263.54h.512a.639.639,0,0,0,.757-.757v-5.277a.845.845,0,0,0-.164-.572.709.709,0,0,0-.552-.184h-.429v-1.513h2.822l.286,1.125a2.153,2.153,0,0,1,1.053-.88,4.281,4.281,0,0,1,1.524-.245h.941v1.513h-1.145a2.2,2.2,0,0,0-1.657.522,2.272,2.272,0,0,0-.491,1.605v3.906a.838.838,0,0,0,.164.583.735.735,0,0,0,.552.174h.511v1.513h-4.684Z" transform="translate(-320.867 -238.588)" fill="#ce5e51"/>
  <path id="Tracé_5" data-name="Tracé 5" d="M429.2,262.786h.511a.64.64,0,0,0,.757-.757v-5.256a.84.84,0,0,0-.164-.583.768.768,0,0,0-.572-.174h-.43v-1.534h2.618l.123,1.37a4.238,4.238,0,0,1,1.585-1.278,5.257,5.257,0,0,1,2.158-.4q3.272,0,3.272,3.4v4.459a.64.64,0,0,0,.757.757h.573V264.3h-3.518v-6.709a2.129,2.129,0,0,0-.43-1.483,1.826,1.826,0,0,0-1.391-.46,2.507,2.507,0,0,0-1.718.593,2.091,2.091,0,0,0-.675,1.657v4.131a.879.879,0,0,0,.153.583.7.7,0,0,0,.542.174h.532V264.3H429.2Z" transform="translate(-339.867 -237.833)" fill="#ce5e51"/>
  <path id="Tracé_6" data-name="Tracé 6" d="M471.985,255.1h.593a.775.775,0,0,0,.583-.184.845.845,0,0,0,.174-.593v-5.257a.773.773,0,0,0-.174-.562.806.806,0,0,0-.583-.174h-.593v-1.534h3.538v7.547a.659.659,0,0,0,.757.757h.593v1.513h-4.888Zm1.289-11.74h2.311v1.882h-2.311Z" transform="translate(-370.277 -230.143)" fill="#ce5e51"/>
  <path id="Tracé_7" data-name="Tracé 7" d="M493.693,262.786h.512a.64.64,0,0,0,.757-.757v-5.256a.84.84,0,0,0-.164-.583.768.768,0,0,0-.573-.174H493.8v-1.534h2.618l.123,1.37a4.238,4.238,0,0,1,1.586-1.278,5.257,5.257,0,0,1,2.158-.4q3.272,0,3.272,3.4v4.459a.64.64,0,0,0,.757.757h.573V264.3h-3.518v-6.709a2.127,2.127,0,0,0-.43-1.483,1.827,1.827,0,0,0-1.391-.46,2.506,2.506,0,0,0-1.718.593,2.09,2.09,0,0,0-.675,1.657v4.131a.877.877,0,0,0,.154.583.7.7,0,0,0,.542.174h.532V264.3h-4.684Z" transform="translate(-385.707 -237.833)" fill="#ce5e51"/>
  <path id="Tracé_8" data-name="Tracé 8" d="M536.054,266.958v-1.411h1.882v.736a2.378,2.378,0,0,0,.828.4,4.4,4.4,0,0,0,1.074.113,1.889,1.889,0,0,0,2.127-2.148v-1.636a3.28,3.28,0,0,1-1.35,1.1,4.734,4.734,0,0,1-1.9.348,4,4,0,0,1-3.221-1.329,5.8,5.8,0,0,1-1.135-3.866,5.435,5.435,0,0,1,1.2-3.763,4.143,4.143,0,0,1,3.242-1.33,4.364,4.364,0,0,1,2,.419,3.86,3.86,0,0,1,1.432,1.34l.184-1.473h2.741v1.411h-.43a.6.6,0,0,0-.511.194,1.112,1.112,0,0,0-.143.645v7.608a3.835,3.835,0,0,1-4.091,4.07A5.436,5.436,0,0,1,536.054,266.958Zm5.164-4.858a3.293,3.293,0,0,0,.685-2.26V258.9a3.525,3.525,0,0,0-.7-2.3,2.9,2.9,0,0,0-4.08-.02,4.418,4.418,0,0,0-.644,2.689,4.646,4.646,0,0,0,.634,2.771,2.488,2.488,0,0,0,2.107.829A2.535,2.535,0,0,0,541.218,262.1Z" transform="translate(-414.609 -237.833)" fill="#ce5e51"/>
  <path id="Tracé_9" data-name="Tracé 9" d="M577.242,250.552h.525a.992.992,0,0,0,.72-.217.919.919,0,0,0,.217-.674v-8.429q0-.845-.914-.845h-.548V238.08h6.487v2.307H583.2q-.914,0-.914.845v9.319H584.6a.8.8,0,0,0,.914-.891v-.891h3.266v4.089H577.242Z" transform="translate(-445.092 -226.393)" fill="#ce5e51"/>
  <path id="Tracé_10" data-name="Tracé 10" d="M621.408,260.924a2.794,2.794,0,0,1-.994-2.3,2.944,2.944,0,0,1,1.119-2.524,6.132,6.132,0,0,1,3.29-.971l2.421-.16v-1.279a1.368,1.368,0,0,0-.32-1.017,1.482,1.482,0,0,0-1.051-.308,2.506,2.506,0,0,0-1.439.434v.822h-3.015v-2.261a8.668,8.668,0,0,1,4.591-1.279,5.367,5.367,0,0,1,3.666,1.074,3.7,3.7,0,0,1,1.2,2.9v4.249a.937.937,0,0,0,.172.628.712.712,0,0,0,.56.194h.342v2.261h-3.038l-.32-1.439a4.81,4.81,0,0,1-1.747,1.382,6.358,6.358,0,0,1-2.479.4A4.6,4.6,0,0,1,621.408,260.924Zm5.31-1.873a1.625,1.625,0,0,0,.526-1.313v-.868l-2.056.16a1.948,1.948,0,0,0-1.131.366,1.2,1.2,0,0,0-.331.936q0,1.165,1.462,1.165A2.306,2.306,0,0,0,626.719,259.051Z" transform="translate(-475.778 -234.926)" fill="#ce5e51"/>
  <path id="Tracé_11" data-name="Tracé 11" d="M665.132,251.926a3.712,3.712,0,0,1-1.588-1.439l-.182,1.531h-2.49V240.162a1.083,1.083,0,0,0-.183-.685.808.808,0,0,0-.662-.228h-.388V236.9h4.523v5.071a4.628,4.628,0,0,1,1.576-.959,5.922,5.922,0,0,1,1.964-.3,4.356,4.356,0,0,1,3.621,1.531,6.928,6.928,0,0,1,1.222,4.409,5.981,5.981,0,0,1-1.382,4.215,4.78,4.78,0,0,1-3.689,1.5A5.614,5.614,0,0,1,665.132,251.926Zm3.335-2.5a5.834,5.834,0,0,0,.514-2.821,5.694,5.694,0,0,0-.514-2.8,1.942,1.942,0,0,0-1.816-.857,2,2,0,0,0-1.679.788,3.546,3.546,0,0,0-.606,2.2V247.2a3.748,3.748,0,0,0,.628,2.216,1.976,1.976,0,0,0,1.7.891A1.88,1.88,0,0,0,668.467,249.424Z" transform="translate(-503.658 -225.551)" fill="#ce5e51"/>
  <path id="Tracé_12" data-name="Tracé 12" d="M299.4,323.108l-5.733-10.416c.137,1.6.137,2.993.137,3.906v6.51H289.7V307.347h5.117L300.8,318.22c-.114-1.6-.137-3.221-.137-4.135v-6.738h4.112v15.761Z" transform="translate(-240.709 -275.627)" fill="#3f3e3e"/>
  <path id="Tracé_13" data-name="Tracé 13" d="M358.968,326.009h-8.5c.206,2.033,1.1,2.6,2.262,2.6a1.843,1.843,0,0,0,2.033-1.531h4.043c-.708,2.764-2.992,4.317-6.122,4.317-3.495,0-6.282-2.079-6.282-6.373a6.21,6.21,0,0,1,6.51-6.464,5.949,5.949,0,0,1,6.122,6.259A10.968,10.968,0,0,1,358.968,326.009Zm-8.36-2.513h4.135c-.229-1.439-.936-2.147-2.033-2.147C351.636,321.349,350.882,321.989,350.608,323.5Z" transform="translate(-281.017 -283.599)" fill="#3f3e3e"/>
  <path id="Tracé_14" data-name="Tracé 14" d="M398.425,318.111c0,.411,0,.868.023,1.187.092,1.234.48,1.508,2.421,1.416v2.558a13.843,13.843,0,0,1-2.421.206c-3.038,0-3.952-.937-4.088-2.809-.046-.708-.046-1.279-.046-1.965V313.61h-1.941v-2.558h1.941v-3.634h4.112v3.634h2.7v2.558h-2.7Z" transform="translate(-313.689 -275.678)" fill="#3f3e3e"/>
  <path id="Tracé_15" data-name="Tracé 15" d="M441.3,331.866h-4.591l-1.553-8.223-1.554,8.223h-4.591l-3.86-12.2h4.523l1.6,8.726,1.462-8.634h4.888l1.553,8.657,1.553-8.749h4.431Z" transform="translate(-336.987 -284.385)" fill="#3f3e3e"/>
  <path id="Tracé_16" data-name="Tracé 16" d="M507.131,324.981c0,3.906-2.558,6.419-6.556,6.419s-6.556-2.513-6.556-6.419c0-3.929,2.558-6.419,6.556-6.419S507.131,321.052,507.131,324.981Zm-4.2,0c0-2.444-.891-3.632-2.353-3.632s-2.353,1.188-2.353,3.632c0,2.421.891,3.632,2.353,3.632S502.928,327.4,502.928,324.981Z" transform="translate(-385.939 -283.599)" fill="#3f3e3e"/>
  <path id="Tracé_17" data-name="Tracé 17" d="M552.25,318.631v3.358c-3.084-.206-4.2.937-4.2,4.614v4.477h-4.112v-12.2h4.112v2.467l.868-1.713a3.349,3.349,0,0,1,2.4-1.074A5.612,5.612,0,0,1,552.25,318.631Z" transform="translate(-421.418 -283.599)" fill="#3f3e3e"/>
  <path id="Tracé_18" data-name="Tracé 18" d="M581.219,317.019v3.563h-4.111V303.793h4.111V313.5l4.294-5.117h4.82l-5.162,5.6,5.231,6.6h-5.048l-3.266-4.523Z" transform="translate(-444.997 -273.101)" fill="#3f3e3e"/>
  <circle id="Ellipse_1" data-name="Ellipse 1" cx="3.171" cy="3.171" r="3.171" transform="translate(0 13.668)" fill="#3f3e3e"/>
  <g id="Groupe_2" data-name="Groupe 2" transform="translate(0)">
    <path id="Tracé_19" data-name="Tracé 19" d="M139.472,212.239a6.517,6.517,0,0,1,.011-9.14v0a3.168,3.168,0,0,0,0-4.5v0h0a3.166,3.166,0,0,0-4.5.05,6.515,6.515,0,0,1-9.251-.05h-.013a3.171,3.171,0,1,0-.01,4.523v.022a6.52,6.52,0,1,1,9.331,9.108h.009a3.171,3.171,0,1,0,4.418,0Z" transform="translate(-120.317 -197.672)" fill="#ce5e51"/>
    <path id="Tracé_20" data-name="Tracé 20" d="M138.941,247.988h.019l-.019-.02Z" transform="translate(-133.555 -233.422)" fill="#ce5e51"/>
  </g>
  <g id="Groupe_3" data-name="Groupe 3" transform="translate(13.788 27.446)">
    <path id="Tracé_21" data-name="Tracé 21" d="M187.135,307.138h.01a6.517,6.517,0,0,1,.011-9.14v0a3.168,3.168,0,0,0,0-4.505v0h0a3.166,3.166,0,0,0-4.5.05,6.515,6.515,0,0,1-9.251-.05h-.013a3.171,3.171,0,1,0-.011,4.523v.022a6.52,6.52,0,1,1,9.331,9.108h.009a3.171,3.171,0,1,0,4.418,0Z" transform="translate(-167.99 -292.571)" fill="#3f3e3e"/>
    <path id="Tracé_22" data-name="Tracé 22" d="M186.613,342.887h.02l-.02-.021Z" transform="translate(-181.227 -328.32)" fill="#3f3e3e"/>
  </g>
  <g id="Groupe_4" data-name="Groupe 4" transform="translate(0.002 27.465)">
    <path id="Tracé_23" data-name="Tracé 23" d="M137.26,306.3a3.159,3.159,0,0,0-2.216.9v-.022a6.52,6.52,0,1,1-9.331-9.108H125.7a3.171,3.171,0,1,0-4.418,0h-.011a6.517,6.517,0,0,1-.011,9.14v0a3.168,3.168,0,0,0,0,4.5v0h0a3.167,3.167,0,0,0,4.5-.05,6.515,6.515,0,0,1,9.251.05h.013a3.17,3.17,0,1,0,2.226-5.427Z" transform="translate(-120.324 -292.634)" fill="#3f3e3e"/>
    <path id="Tracé_24" data-name="Tracé 24" d="M171.172,311.453h-.019l.019.02Z" transform="translate(-156.452 -306.01)" fill="#3f3e3e"/>
  </g>
</svg>
