<?xml version="1.0" encoding="utf-8"?>
<!-- Generator: Adobe Illustrator 26.3.1, SVG Export Plug-In . SVG Version: 6.00 Build 0)  -->
<svg version="1.1" id="Calque_1" xmlns="http://www.w3.org/2000/svg" xmlns:xlink="http://www.w3.org/1999/xlink" x="0px" y="0px"
	 viewBox="0 0 962.6 659.1" style="enable-background:new 0 0 962.6 659.1;" xml:space="preserve">
<style type="text/css">
	.st0{fill:#273375;}
	.st1{fill:#E30613;}
	.st2{fill:#9D9D9C;}
</style>
<g id="Calque_1_00000023249486159149823880000003997589899144038566_">
</g>
<g id="vect">
	<g>
		<path d="M211.1,636.9c1.7,0,3.2,1.3,2.4,4.6l-8,1.9C206.9,639.6,209.2,636.9,211.1,636.9 M215.5,649.7h-1.6
			c-2,2.4-4.1,4.2-6.3,4.2s-3.3-1.3-3.3-4.2c0-1.2,0.1-2.4,0.4-3.5l12.8-4.2c2.5-5.9-0.5-8.5-4-8.5c-6.1,0-13,10.1-13,19
			c0,4,1.9,6.2,4.9,6.2C208.9,658.7,212.5,655.3,215.5,649.7 M212.9,631.1l9-8.4v-1H217l-5.6,9.4H212.9z M185.3,637.1h4.3l-6.8,18.5
			c-0.6,1.6,0.2,3.1,1.9,3.1c3.8,0,10-3.8,12.2-9h-1.2c-1.7,1.8-5,4.2-7.8,4.7l6.2-17.4h6.3l0.8-2.6H195l2.4-6.7h-2.5l-4.4,6.7
			l-5.2,0.7V637.1z M179.5,636.2c0.5-1.7-0.6-2.7-1.5-2.7c-3.7,0-8.1,3.3-9.9,8h1.2c1.2-1.7,3.2-3.6,5.1-3.9l-7.1,18.4
			c-0.6,1.7,0.6,2.7,1.5,2.7c3.5,0,7.6-3.4,9.4-8H177c-1.2,1.7-3.2,3.6-5.1,3.9L179.5,636.2z M180.8,626.9c1.7,0,3.1-1.3,3.1-3.1
			c0-1.7-1.4-3.1-3.1-3.1c-1.7,0-3.1,1.4-3.1,3.1C177.8,625.6,179.1,626.9,180.8,626.9 M140,655.3c-0.9,2.1,0,3.4,2.1,3.4
			c1.3,0,1.8-0.3,2.3-1.7l4.9-13c2.3-2.8,6.9-5.7,8.8-5.7c1.3,0,1.2,1.1,0.3,2.8l-7.5,14.5c-0.7,1.4,0.2,3.1,1.9,3.1
			c3.7,0,8.1-3.3,9.9-8h-1.2c-1.2,1.7-3.2,3.6-5.1,3.9l6.5-13.1c0.8-1.7,1.3-3.2,1.3-4.5c0-2.1-1.2-3.5-3.4-3.5
			c-3.2,0-6.4,3.6-10.3,8.1v-3.4c0-2.5-0.8-4.6-3-4.6c-1.4,0-2.7,1.2-4,2.9v0.5c2.4-0.1,3.5,3.5,1.8,7.3L140,655.3z M139.9,639.1
			c0.9-3,0.4-5.6-1.9-5.6c-2.7,0-3.4,2.1-6.2,8.1v-3.4c0-2.5-0.8-4.6-3-4.6c-2.6,0-5,4-6.8,8h1.2c1.3-1.8,2.4-2.9,3.3-2.9
			c1.1,0,1.7,1.7,0,5.5l-5,11.1c-0.9,2.1,0,3.4,2.1,3.4c1.3,0,1.8-0.3,2.3-1.7l4.9-13c1.4-1.7,2.6-3.2,4.2-4.9L139.9,639.1
			L139.9,639.1z M111.5,636.9c1.7,0,3.2,1.3,2.4,4.6l-8,1.9C107.3,639.6,109.6,636.9,111.5,636.9 M115.9,649.7h-1.6
			c-2,2.4-4.1,4.2-6.3,4.2c-2.2,0-3.3-1.3-3.3-4.2c0-1.2,0.1-2.4,0.4-3.5L118,642c2.5-5.9-0.5-8.5-4-8.5c-6.1,0-13,10.1-13,19
			c0,4,1.9,6.2,4.9,6.2C109.3,658.7,112.9,655.3,115.9,649.7 M85.7,637.1H90l-6.8,18.5c-0.6,1.6,0.2,3.1,1.9,3.1
			c3.8,0,10-3.8,12.2-9H96c-1.7,1.8-5,4.2-7.8,4.7l6.2-17.4h6.3l0.8-2.6h-6.2l2.4-6.7h-2.5l-4.4,6.7l-5.2,0.7L85.7,637.1L85.7,637.1
			z M62.3,651.5c0-5.7,6.3-13.4,9.9-13.4c0.8,0,1.5,0.1,2.2,0.3l-3.7,9.9c-2.1,2.6-5.4,5.7-6.9,5.7
			C62.8,653.9,62.3,653.2,62.3,651.5 M81.8,632.4l-1.9-0.1l-2.2,2.1h-0.5c-10.6,0-19.7,11.9-19.7,20.5c0,2.4,1.5,3.8,3.8,3.8
			c2.7,0,5.4-3.9,8.4-8.1l-0.1,1.5c-0.4,4.3,0.9,6.6,3.1,6.6c2.6,0,5-4,6.8-8h-1.2c-1.3,1.8-2.4,2.9-3.3,2.9c-1,0-1.7-1.8,0-5.5
			L81.8,632.4z M59.3,639.1c0.9-3,0.4-5.6-1.9-5.6c-2.7,0-3.4,2.1-6.2,8.1v-3.4c0-2.5-0.8-4.6-3-4.6c-2.6,0-5,4-6.8,8h1.2
			c1.3-1.8,2.4-2.9,3.3-2.9c1.1,0,1.7,1.7,0,5.5l-5,11.1c-0.9,2.1,0,3.4,2.1,3.4c1.3,0,1.8-0.3,2.3-1.7l4.9-13
			c1.4-1.7,2.6-3.2,4.2-4.9L59.3,639.1L59.3,639.1z M23.8,657.8l0.5-1.4c-6.2-1.2-6.9-1.2-4.5-7.9l2.5-6.9h6.8
			c3.1,0,3.1,1.3,2.6,4.6h1.8l4.1-11.2h-1.8c-1.5,2.6-2.7,4.6-6.1,4.6H23l3.6-9.8c1.1-3.1,1.8-3.8,5.9-3.8h3c4.3,0,4.8,1.2,4.8,5.5
			H42l1.4-7.6H17.9l-0.5,1.4c5,1,5.4,1.5,3.1,7.9l-5.6,15.2c-2.3,6.3-3.3,6.9-9,7.9l-0.4,1.4L23.8,657.8L23.8,657.8z"/>
		<path d="M149.1,579c1.7,0,3.2,1.3,2.4,4.6l-8,1.9C144.9,581.8,147.2,579,149.1,579 M153.5,591.9h-1.6c-2,2.4-4.1,4.2-6.3,4.2
			s-3.3-1.3-3.3-4.2c0-1.2,0.1-2.4,0.4-3.5l12.8-4.2c2.5-5.9-0.5-8.5-4-8.5c-6.1,0-13,10.1-13,19c0,4,1.9,6.2,4.9,6.2
			C146.9,600.8,150.5,597.4,153.5,591.9 M150.9,573.2l9-8.4v-1H155l-5.6,9.4H150.9z M123.3,579.2h4.3l-6.8,18.5
			c-0.6,1.6,0.2,3.1,1.9,3.1c3.8,0,10-3.8,12.2-9h-1.2c-1.7,1.8-5,4.2-7.8,4.7l6.2-17.4h6.3l0.8-2.6H133l2.4-6.7h-2.5l-4.4,6.7
			l-5.2,0.7V579.2z M117.5,578.3c0.5-1.7-0.6-2.7-1.5-2.7c-3.7,0-8.1,3.3-9.9,8h1.2c1.2-1.7,3.2-3.6,5.1-3.9l-7.1,18.4
			c-0.6,1.7,0.6,2.7,1.5,2.7c3.5,0,7.6-3.4,9.4-8H115c-1.2,1.7-3.2,3.6-5.1,3.9L117.5,578.3z M118.8,569c1.7,0,3.1-1.3,3.1-3.1
			c0-1.7-1.4-3.1-3.1-3.1s-3.1,1.4-3.1,3.1C115.8,567.7,117.1,569,118.8,569 M94.2,596.7l12.9-33.9l-0.4-0.5l-8.1,0.9v1l1.6,1.2
			c1.4,1.1,1,2.2-0.3,5.6l-10.1,26.6c-0.7,1.4,0.2,3.1,1.9,3.1c3.7,0,7.6-3.3,9.4-8h-1.2C98.6,594.5,96.1,596.4,94.2,596.7
			 M69.6,593.6c0-5.7,6.3-13.4,9.9-13.4c0.8,0,1.5,0.1,2.2,0.3l-3.7,9.9c-2.1,2.6-5.4,5.7-6.9,5.7C70.2,596,69.6,595.3,69.6,593.6
			 M89.1,574.5l-1.9-0.1l-2.2,2.1h-0.5c-10.6,0-19.7,11.9-19.7,20.5c0,2.4,1.5,3.8,3.8,3.8c2.7,0,5.4-3.9,8.4-8.1l-0.1,1.5
			c-0.4,4.3,0.9,6.6,3.1,6.6c2.6,0,5-4,6.8-8h-1.2c-1.3,1.8-2.4,2.9-3.3,2.9c-1,0-1.7-1.8,0-5.5L89.1,574.5z M42,605.3
			c0-2.5,2.4-4,5.7-5.3c1.1,0.6,2.8,1.2,5,1.9c3.5,1.2,4.9,1.6,4.9,2.7c0,2.3-3.8,4-9.1,4C44.1,608.5,42,607.6,42,605.3 M51.6,590.3
			c-1.5,0-2.1-1.3-2.1-2.8c0-4.1,2.2-10.2,5.7-10.2c1.5,0,2.1,1.3,2.1,2.8C57.3,584.3,55,590.3,51.6,590.3 M61.6,603
			c0-3-2.6-4-6.9-5.3c-3.7-1.1-5.4-1.4-5.4-2.6c0-1,0.8-2.1,2.4-3c6.1-0.3,10-5.8,10-10.4c0-1-0.2-1.8-0.5-2.5h5.1l0.8-2.6h-8.2
			c-1-0.6-2.1-0.9-3.3-0.9c-6.4,0-10.6,5.6-10.6,10.2c0,3.5,2.2,5.6,4.9,6.2c-3,1.3-4.7,2.9-4.7,4.8c0,1.1,0.4,1.8,1.3,2.5
			c-6.9,2-9.7,4.4-9.7,7.6c0,3.2,4.2,4.5,9.2,4.5C54.5,611.4,61.6,606.9,61.6,603 M29.3,583.2c3.1,0,3.1,1.3,2.6,4.6h1.8l4.1-11.2
			H36c-1.5,2.6-2.7,4.6-6.1,4.6h-6.7l3.4-9.3c1.1-3.1,1.8-3.7,5.9-3.7h3c4.3,0,4.8,1.2,4.8,5.5H42l1.4-7.6H17.9l-0.5,1.4
			c5,1,5.4,1.5,3.1,7.9l-5.6,15.2c-2.3,6.3-3.3,6.9-9,7.9l-0.4,1.4H34l5.1-8.1h-1.9c-3.2,3.1-7.3,6-13,6c-7.5,0-6.9-0.3-4.4-7.2
			l2.7-7.4L29.3,583.2L29.3,583.2z M33,563.8l9-6.2v-1h-5.5l-5,7.2H33z"/>
		<path d="M146.1,521.1c1.7,0,3.2,1.3,2.4,4.6l-8,1.9C141.9,523.9,144.2,521.1,146.1,521.1 M150.5,534h-1.6c-2,2.4-4.1,4.2-6.3,4.2
			s-3.3-1.3-3.3-4.2c0-1.2,0.1-2.4,0.4-3.5l12.8-4.2c2.5-5.9-0.5-8.5-4-8.5c-6.1,0-13,10.1-13,19c0,4,1.9,6.2,4.9,6.2
			C143.9,542.9,147.5,539.5,150.5,534 M147.9,515.4l9-8.4v-1H152l-5.6,9.4H147.9z M121.4,521.3h3.4l-6.8,18.5
			c-0.6,1.6,0.2,3.1,1.9,3.1c3.8,0,10-3.8,12.2-9h-1.2c-1.7,1.8-5,4.2-7.8,4.7l6.2-17.4h6.3l0.8-2.6h-6.2l2.4-6.7h-2.5l-4.4,6.7
			l-4.4,0.7L121.4,521.3L121.4,521.3z M118.1,523.4c0.9-3,0.4-5.6-1.9-5.6c-2.7,0-3.4,2.1-6.2,8.1v-3.4c0-2.5-0.8-4.6-3-4.6
			c-2.6,0-5,4-6.8,8h1.2c1.3-1.8,2.4-2.9,3.3-2.9c1.1,0,1.7,1.7,0,5.5l-5,11.1c-0.9,2.1,0,3.4,2.1,3.4c1.3,0,1.8-0.3,2.3-1.7l4.9-13
			c1.4-1.7,2.6-3.2,4.2-4.9L118.1,523.4L118.1,523.4z M89.6,521.1c1.7,0,3.2,1.3,2.4,4.6l-8,1.9C85.5,523.9,87.8,521.1,89.6,521.1
			 M94,534h-1.6c-2,2.4-4.1,4.2-6.3,4.2c-2.2,0-3.3-1.3-3.3-4.2c0-1.2,0.1-2.4,0.4-3.5l12.8-4.2c2.5-5.9-0.5-8.5-4-8.5
			c-6.1,0-13,10.1-13,19c0,4,1.9,6.2,4.9,6.2C87.5,542.9,91.1,539.5,94,534 M62.6,539.2c-1.3,0-3.1-1.2-3.1-2.2
			c0-0.3,0.6-1.8,1.3-3.6l2.1-5.5c2.2-2.6,5.6-5.5,7.5-5.5c1.2,0,2,0.7,2,2.5C72.4,529.9,67.7,539.2,62.6,539.2 M77.2,522.9
			c0-3.8-1.4-5.1-4-5.1c-3.2,0-6.3,3.4-9.4,7.6l7.7-20.3l-0.4-0.5l-8.1,0.9v1l1.6,1.2c1.4,1.1,1,2.3-0.3,5.6L56,534.7
			c-0.6,1.6-1.3,3.4-1.3,3.9c0,2.2,3,4.3,5.7,4.3C66.7,542.9,77.2,531.6,77.2,522.9 M52,520.4c0.5-1.7-0.6-2.7-1.5-2.7
			c-3.7,0-8.1,3.3-9.9,8h1.2c1.2-1.7,3.2-3.6,5.1-3.9l-7.1,18.4c-0.6,1.7,0.6,2.7,1.5,2.7c3.5,0,7.6-3.4,9.4-8h-1.2
			c-1.2,1.7-3.2,3.6-5.1,3.9L52,520.4z M53.3,511.1c1.7,0,3.1-1.3,3.1-3.1c0-1.7-1.4-3.1-3.1-3.1c-1.7,0-3.1,1.4-3.1,3.1
			C50.2,509.8,51.6,511.1,53.3,511.1 M34.6,508.2H17.8l-0.5,1.4c5,1,5.4,1.5,3.1,7.9l-5.5,15.2c-2.3,6.3-3.3,6.9-9,7.9L5.5,542h25.7
			l5.6-9.9h-1.9c-3.1,3.5-6.9,7.8-12.5,7.8c-4.3,0-4.8-0.7-2.5-7.2l5.5-15.2c2.3-6.3,3.3-6.9,9-7.9L34.6,508.2z"/>
	</g>
	<g id="zone">
		<g>
			<path d="M5.7,125.9h16.1L37,151.8l15.2-25.9h16.1v63H55.5v-44.8l-14,23.2h-9l-14-23.2v44.8H5.7V125.9z"/>
			<path d="M86,125.9h12.8v63H86V125.9z"/>
			<path d="M116.6,125.9H133l28.2,45.1v-45.1H174v63h-16.4l-28.2-45.3v45.3h-12.8C116.6,188.9,116.6,125.9,116.6,125.9z"/>
			<path d="M191.8,125.9h12.8v63h-12.8V125.9z"/>
			<path d="M226,171.6c3.8,4.9,8.8,7.7,14,7.7c5,0,8.1-2.7,8.1-7.3c0-11.2-28.8-8.7-28.8-29.7c0-10,8.2-18.3,20.2-18.3
				c9.4,0,16.7,4.2,22,10.6l-9.4,8.4c-3.7-4.8-7.8-7.8-12.6-7.8c-4.4,0-7.3,2.9-7.3,6.6c0,11.2,28.8,8.6,28.8,30
				c-0.2,11.7-9.4,18.9-20.9,18.9c-10.6,0-17.8-3.9-23.4-10.5L226,171.6z"/>
			<path d="M267.7,125.9h51.7v11.6H300v51.4h-12.8v-51.4h-19.4v-11.6H267.7z"/>
			<path d="M330.7,125.9h36.7v10.9h-23.9v14.6h20.3v10.9h-20.3V178h23.9v10.9h-36.7V125.9z M331.8,108.4H345l10.2,12.1h-11.7
				L331.8,108.4z"/>
			<path d="M382.5,125.9h19.3c13.9,0,22.4,7.1,22.4,18.8c0,7.6-3.7,13.2-10.1,16.3l19.8,27.9h-15.3l-16.7-25.5h-6.6v25.5h-12.8
				L382.5,125.9L382.5,125.9z M395.3,136.8v15.7h7.2c5.4,0,8.5-2.9,8.5-8c0-4.8-3.2-7.7-8.5-7.7H395.3z"/>
			<path d="M442,125.9h36.7v10.9h-23.9v14.6h20.3v10.9h-20.3V178h23.9v10.9H442V125.9z"/>
			<path d="M5.7,216.9h24.7c20,0,33.5,14.5,33.5,31.5s-13.5,31.5-33.5,31.5H5.7V216.9z M18.4,228.5v39.8h12.1
				c11.7,0,20.2-8.7,20.2-19.9c0-11.2-8.5-19.9-20.2-19.9H18.4z"/>
			<path d="M76.4,216.9h36.7v10.9H89.2v14.6h20.3v10.9H89.2V269h23.9v10.9H76.4V216.9z"/>
			<path d="M151.7,216.9h12.8v51.4h23.9v11.6h-36.7V216.9z"/>
			<path d="M185.9,242.8l8.1-25.9h13l-10.4,25.9H185.9z"/>
			<path d="M217.1,216.9h36.7v10.9h-23.9v14.6h20.3v10.9h-20.3V269h23.9v10.9h-36.7V216.9z"/>
			<path d="M268.8,216.9h16.4l28.2,45.1v-45.1h12.8v63h-16.4l-28.2-45.3v45.3h-12.8V216.9z"/>
			<path d="M347.6,262.6c3.8,4.9,8.8,7.7,14,7.7c5,0,8.1-2.7,8.1-7.3c0-11.2-28.8-8.7-28.8-29.7c0-10,8.2-18.3,20.2-18.3
				c9.4,0,16.7,4.2,22,10.6l-9.4,8.4c-3.7-4.8-7.8-7.8-12.6-7.8c-4.4,0-7.3,2.9-7.3,6.6c0,11.2,28.8,8.6,28.8,30
				c-0.2,11.7-9.4,18.9-20.9,18.9c-10.6,0-17.8-3.9-23.4-10.5L347.6,262.6z"/>
			<path d="M396.2,216.9h36.7v10.9H409v14.6h20.3v10.9H409V269h23.9v10.9h-36.7L396.2,216.9L396.2,216.9z"/>
			<path d="M447.9,216.9h12.8v63h-12.8V216.9z"/>
			<path d="M522.2,264.3v-10.6h-16V242H535v26.8c-5.8,7.8-15.7,12.9-27.4,12.9c-20.4,0-34.4-15.3-34.4-33.3s13.6-33.3,33.5-33.3
				c11.4,0,20.8,5.1,26.5,12.8l-10.1,7.8c-3.6-5.1-9.3-8.6-16.5-8.6c-11.9,0-20.3,9.3-20.3,21.3c0,12.1,8.9,21.3,21.2,21.3
				C513.4,269.8,518.6,267.7,522.2,264.3z"/>
			<path d="M549.4,216.9h16.4L594,262v-45.1h12.8v63h-16.4l-28.2-45.3v45.3h-12.8V216.9z"/>
			<path d="M624.5,216.9h36.7v10.9h-23.9v14.6h20.3v10.9h-20.3V269h23.9v10.9h-36.7V216.9z"/>
			<path d="M676.3,216.9h16.1l15.2,25.9l15.2-25.9h16.1v63h-12.8v-44.8l-14,23.2h-9l-14-23.2v44.8h-12.8V216.9z"/>
			<path d="M756.6,216.9h36.7v10.9h-23.9v14.6h20.3v10.9h-20.3V269h23.9v10.9h-36.7V216.9z"/>
			<path d="M808.4,216.9h16.4L853,262v-45.1h12.8v63h-16.4l-28.2-45.3v45.3h-12.8V216.9z"/>
			<path d="M877,216.9h51.7v11.6h-19.4v51.4h-12.8v-51.4H877V216.9z"/>
			<path d="M9.3,353.6c3.8,4.9,8.8,7.7,14,7.7c5,0,8.1-2.7,8.1-7.3c0-11.2-28.8-8.7-28.8-29.7c0-10,8.2-18.3,20.2-18.3
				c9.4,0,16.7,4.2,22,10.6l-9.4,8.4c-3.7-4.8-7.8-7.8-12.6-7.8c-4.4,0-7.3,2.9-7.3,6.6c0,11.2,28.8,8.6,28.8,30
				c-0.2,11.7-9.4,18.9-20.9,18.9c-10.6,0-17.8-3.9-23.4-10.5L9.3,353.6z"/>
			<path d="M94.3,307.9h12.8v38.3c0,16.6-9.7,26.5-25.6,26.5c-15.7,0-25.5-9.9-25.5-26.5v-38.3h12.8v39.4c0,8.5,4.8,13.4,12.8,13.4
				c7.8,0,12.7-5,12.7-13.4C94.3,347.3,94.3,307.9,94.3,307.9z"/>
			<path d="M123.1,307.9h20.8c13.9,0,22.3,7.1,22.3,18.8c0,11.6-8.5,18.7-22.3,18.7h-8v25.5h-12.8
				C123.1,370.9,123.1,307.9,123.1,307.9z M135.9,318.8v15.7h8.5c5.4,0,8.6-2.9,8.6-8c0-4.8-3.2-7.7-8.6-7.7H135.9z"/>
			<path d="M176.9,307.9h36.7v10.9h-23.9v14.6H210v10.9h-20.3V360h23.9v10.9h-36.7V307.9z M189.4,302.5l10.2-12.1h13.1L201,302.5
				H189.4z"/>
			<path d="M228.7,307.9H248c13.9,0,22.4,7.1,22.4,18.8c0,7.6-3.7,13.2-10.1,16.3l19.8,27.9h-15.3L248,345.5h-6.6V371h-12.8v-63.1
				H228.7z M241.5,318.8v15.7h7.2c5.4,0,8.5-2.9,8.5-8c0-4.8-3.2-7.7-8.5-7.7H241.5z"/>
			<path d="M288.2,307.9H301v63h-12.8V307.9z"/>
			<path d="M318.8,307.9h36.7v10.9h-23.9v14.6h20.3v10.9h-20.3V360h23.9v10.9h-36.7V307.9z"/>
			<path d="M407.3,307.9h12.8v38.3c0,16.6-9.7,26.5-25.6,26.5c-15.7,0-25.5-9.9-25.5-26.5v-38.3h12.8v39.4c0,8.5,4.8,13.4,12.8,13.4
				c7.8,0,12.7-5,12.7-13.4L407.3,307.9L407.3,307.9z"/>
			<path d="M436.1,307.9h19.3c13.9,0,22.4,7.1,22.4,18.8c0,7.6-3.7,13.2-10.1,16.3l19.8,27.9h-15.3l-16.7-25.5h-6.6v25.5h-12.8
				L436.1,307.9L436.1,307.9z M448.9,318.8v15.7h7.2c5.4,0,8.5-2.9,8.5-8c0-4.8-3.2-7.7-8.5-7.7H448.9z"/>
			<path d="M5.7,398.9h36.7v10.9h-24v14.6h20.3v10.9H18.4V451h23.9v10.9H5.7V398.9z"/>
			<path d="M52.3,398.9H104v11.6H84.5v51.4H71.7v-51.4H52.3V398.9z"/>
			<path d="M139,398.9h24.7c20,0,33.5,14.5,33.5,31.5s-13.5,31.5-33.5,31.5H139V398.9z M151.7,410.5v39.8h12.1
				c11.7,0,20.2-8.7,20.2-19.9c0-11.2-8.5-19.9-20.2-19.9H151.7z"/>
			<path d="M209.7,398.9h36.7v10.9h-23.9v14.6h20.3v10.9h-20.3V451h23.9v10.9h-36.7V398.9z"/>
			<path d="M285,398.9h12.8v51.4h23.9v11.6H285V398.9z"/>
			<path d="M351.8,398.9h16.7l23.8,63h-13.6l-6-16.4h-25.2l-6,16.4H328L351.8,398.9z M368.8,434.7l-8.6-23.7l-8.6,23.7H368.8z"/>
			<path d="M425.9,398.9h19.3c13.9,0,22.4,7.1,22.4,18.8c0,7.6-3.7,13.2-10.1,16.3l19.8,27.9H462l-16.7-25.5h-6.6v25.5h-12.8V398.9z
				 M438.7,409.8v15.8h7.2c5.4,0,8.5-2.9,8.5-8c0-4.8-3.2-7.7-8.5-7.7L438.7,409.8L438.7,409.8z"/>
			<path d="M485.4,398.9h36.7v10.9h-23.9v14.6h20.3v10.9h-20.3V451h23.9v10.9h-36.7L485.4,398.9L485.4,398.9z"/>
			<path d="M580.2,443.1l10.1,7.7c-5.8,7.8-15.1,12.9-26.5,12.9c-19.9,0-33.5-15.3-33.5-33.3s13.6-33.3,33.5-33.3
				c11.4,0,20.8,5.1,26.5,12.8l-10.1,7.8c-3.6-5.1-9.3-8.6-16.5-8.6c-11.9,0-20.3,9.3-20.3,21.3s8.5,21.3,20.3,21.3
				C571,451.8,576.6,448.2,580.2,443.1z"/>
			<path d="M601.6,398.9h12.8V424h31.8v-25.1H659v63h-12.8v-26.3h-31.8v26.3h-12.8V398.9z"/>
			<path d="M676.7,398.9h36.7v10.9h-23.9v14.6h20.3v10.9h-20.3V451h23.9v10.9h-36.7V398.9z"/>
			<path d="M728.5,398.9h19.3c13.9,0,22.4,7.1,22.4,18.8c0,7.6-3.7,13.2-10.1,16.3l19.8,27.9h-15.3l-16.7-25.5h-6.6v25.5h-12.8
				L728.5,398.9L728.5,398.9z M741.2,409.8v15.8h7.2c5.4,0,8.5-2.9,8.5-8c0-4.8-3.2-7.7-8.5-7.7L741.2,409.8L741.2,409.8z"/>
			<path d="M831.9,443.1l10.1,7.7c-5.8,7.8-15.1,12.9-26.5,12.9c-19.9,0-33.5-15.3-33.5-33.3s13.6-33.3,33.5-33.3
				c11.4,0,20.8,5.1,26.5,12.8l-10.1,7.8c-3.6-5.1-9.3-8.6-16.5-8.6c-11.9,0-20.3,9.3-20.3,21.3s8.5,21.3,20.3,21.3
				C822.6,451.8,828.3,448.2,831.9,443.1z"/>
			<path d="M853.2,398.9H866V424h31.8v-25.1h12.8v63h-12.8v-26.3H866v26.3h-12.8V398.9z"/>
			<path d="M928.3,398.9H965v10.9h-23.9v14.6h20.3v10.9h-20.3V451H965v10.9h-36.7V398.9z"/>
		</g>
	</g>
	<g>
		<path class="st0" d="M100.7,74c0.9-0.9,1.8-1.9,2.7-2.8l0,0c1.7-1.9,3.3-3.7,5.3-5.4c0.6-0.5,1.2-1,1.7-1.4
			c0.2-0.2,0.2-0.5,0.3-0.6c-0.8,0.3-1.3,1-2.1,1.3c-0.2,0-0.3-0.2-0.2-0.3c0.6-0.4,1.1-0.8,1.7-1.3H110c-0.2,0-0.2-0.2-0.2-0.3
			c-2.1-0.3-3.6,1.1-5.1,2.4c-0.3,0.2-0.6-0.2-0.8-0.2c-2.4,0.8-4.1,2.9-6.5,3.8c0-0.2,0-0.2,0-0.3c-1,0.3-1.9,0.9-2.9,1.1
			c-1.4,0.3-2.7,0.2-4,0.2c-1.9,0.2-3.8,0.6-5.8,1c-0.1,0-0.1,0-0.2,0c-1,0.3-2,0.7-3,1.2c0,0-0.1,0-0.1,0.1
			c-0.1,0.1-0.2,0.2-0.2,0.3c-0.3,0.4-0.6,0.7-1.1,0.9c-1,0.5-1.8,1.4-2.6,2.1c-0.1,0.1-0.2,0.1-0.3,0.1c-0.9,0.8-1.7,1.6-2.6,2.4
			c-0.1,0.1-0.3,0.1-0.5,0.1l0,0c0-0.1,0.1-0.1,0.1-0.2c0.1-0.2,0.3-0.4,0.4-0.7c0.2-0.2,0.3-0.5,0.5-0.7c0.2-0.3,0.4-0.7,0.7-1
			c0.1-0.1,0-0.2,0-0.2c-0.1-0.1-0.1-0.1-0.2-0.1c0.8-0.8,1.7-1.4,2.7-2l0,0c-0.1,0-0.3,0-0.2-0.2c0.1-0.1,0.2-0.3,0.3-0.4
			c0,0,0-0.1,0.1-0.1l-0.1-0.1c-0.3,0.2-0.5,0.3-0.7,0.5c-0.4,0.3-0.7,1-1.3,1c0,0-0.1,0-0.2,0s-0.1,0-0.2-0.1l0,0l0,0l0,0
			c0,0,0-0.1,0.1-0.1l0.1-0.1c0,0,0-0.1,0.1-0.1c0-0.1,0.1-0.1,0.1-0.2l0.1-0.1c0.1-0.1,0.1-0.2,0.2-0.3c0-0.1,0.1-0.1,0.1-0.2
			c0.1-0.1,0.1-0.2,0.2-0.3c0.1-0.1,0-0.2-0.1-0.3c0.3-0.4,0.7-0.7,1.1-0.9l0,0c0.6-0.3,1.2-0.7,1.8-1c0.1-0.1,0.2-0.2,0.3-0.2
			c-0.9,0.3-1.7,0.7-2.5,1.2c0,0-0.2,0.1-0.3,0.1c0,0-0.2,0.1-0.4-0.1v-0.1c0.2-0.3,0.6-0.5,1-0.8c0.2,0,0.3,0,0.3,0.2
			c5.1-4,12-3,17.9-5.1c0.5-0.3,1-0.6,1.4-1c0.8-0.3,1.4-1.1,2.4-1.6c1.3-1,2.2-2.1,2.7-3.6c0-0.2-0.2-0.3-0.2-0.3
			c-2.1,2.2-4.4,4-7,5.2c-3.3,1.7-7,1.4-10.5,1.9c0.2-0.3,0.5-0.3,0.8-0.3c0-0.5,0.3-0.6,0.6-1c0.2,0,0.3,0,0.5,0s0.2-0.3,0.3-0.3
			c0.3,0,0.8-0.2,0.6-0.2c-0.5-0.6-1.4,0.5-2.2,0c0.3-0.3,0.2-0.8,0.5-1c0.2,0,0.5,0,0.6,0c0-0.3,0.3-0.6,0.3-0.6
			c2.4-1.4,4.6-2.5,6.8-3.8c-0.5,0-0.8,0.5-1.3,0.2c0.3,0,0-0.5,0.3-0.5c1.7-0.5,3.2-1.4,4.9-2.1c-0.6,0-1.1,0.5-1.7,0
			c0.3-0.2,0.5-0.5,1-0.5c0-0.2,0-0.3,0-0.5s0.2-0.2,0.3-0.2c-0.2,0-0.3-0.2-0.3-0.2c0.2-0.3,0.6-0.2,1-0.5c-0.2,0-0.5,0-0.5-0.2
			c0.5-0.6,1.3-0.8,2.1-1c-0.2-0.3-0.6,0-0.6-0.3c0-0.2,0.2-0.2,0.3-0.2c-0.2,0-0.2,0-0.3,0c-0.3-0.2-0.2-0.5-0.2-0.6
			c1-1.1,1-2.5,1.4-3.8c-0.2,0-0.3,0-0.3-0.2c-1.6,1.7-4.1,2.4-6.5,3c-0.2,0-0.6,0-0.8,0c-0.8,0.3-1.9,0.3-2.7-0.2
			c-0.6-0.3-1-0.8-1.6-1.3c-1.3-0.8-2.5-1.4-4-1.9c-4-1.3-8.1-1.9-12.2-1.7c1.7-1,3.7-1,5.5-1.6c2.7-0.8,5.2-1.7,8.1-1.6
			c-0.5-0.2-1.1,0-1.6,0c-2.2-0.2-4.4,0.5-6.8,1c-1.6,0.3-3,1-4.6,1.3c-1,0.3-1.4,1.3-2.5,1.1c0,0,0-0.3,0-0.5c1.6-1.9,3.5-3.8,6-4
			c2.9-0.5,5.5,0,8.4,0.3c2.1,0.2,4,0.6,6,1.1c0.8,0,1,1.3,1.6,1.4c1,0.3,1.9,0,2.9,0.6c0-0.3-0.2-0.6,0-1c0.6-0.6,1.4,0.2,2.1-0.2
			c1.3-0.8-1.1-2.2-1.7-3.3c0-0.2,0.2-0.3,0.2-0.3c1.3,1.1,2.2,2.4,3.8,3.2c0.8,0.3,2.7,0.8,2.4-0.2c-0.8-1.7-2.4-3.2-3.6-4.8
			c0-0.2,0-0.5,0-0.6c-0.3,0-0.3-0.2-0.5-0.3c0-0.2,0-0.5,0-0.6c-0.6-0.3-0.5-1-0.8-1.4c-0.5-0.8-0.2-1.9-0.5-2.9s-0.5-1.7-0.6-2.7
			c-0.5-2.7-1.1-5.1-1.4-7.6c-0.3-3,1.7-5.4,3.2-8.1c1.1-1.9,2.4-3.8,4.4-5.1c0.5-1.9,1.7-3.5,3-5.1c1.3-1.5,3.4-2.5,4.9-3.2
			c2.2-1,4.2-1.6,4.2-1.6H5.4v83.9h77c3-2.2,6-3.2,10.2-5.3C94.6,77.6,99.2,75.5,100.7,74z M76.3,62.6c-0.3,0-1,0.2-0.8-0.2
			c0.2-0.8,1.3-0.8,1.9-1.1c0.3-0.2,0.8-0.5,1.1-0.3c0.3,0.5,0.8,0.3,1.1,0.6C78.7,62.6,77.4,62.1,76.3,62.6z M52.1,59.1
			c0,0-0.2-0.2-0.2-0.3c2.1-2.7,3.6-5.2,5.1-8.1c2.1-1.1,3.8-2.7,5.4-4.4c2.7-2.9,5.5-5.4,8.9-7c1.3-0.5,2.9-0.3,4.1,0.2
			c-0.5,0.6-1.3,0.5-1.9,1c-0.2,0-0.3,0-0.5-0.2c0.2-0.2,0.2-0.3,0.2-0.5c-1.6,1.7-3.8,2.5-5.1,4.6c-1,1.6-1.6,3.6-3.6,4.1
			c-0.6,0.2,0.2-0.5-0.2-0.3C59.4,51.2,55.9,54.9,52.1,59.1z M65.2,48.7c-0.2,0.3-0.3,0.4-0.5,0.6c-0.2,0.3-0.3,0.5-0.6,0.6
			c-0.2,0-0.3,0-0.3-0.2c0.2-0.6,0.6-1.3,1.3-1.4C65.2,48.4,65.2,48.5,65.2,48.7z M72.6,72.4c-0.1,0.2-0.2,0.3-0.4,0.5
			c0.2,0,0.3,0.1,0.2,0.2c-0.4,0.3-0.7,0.7-1.2,0.8c0,0-0.1,0-0.2,0c-0.2,0.2-0.4,0.4-0.6,0.6s-1.1,0-0.8-0.2
			c0.4-0.4,0.8-0.7,1.2-1.1c0.2-0.2,0.5-0.4,0.7-0.6c0.1-0.1,0.2-0.3,0.3-0.4C71.9,72.2,72.7,72.1,72.6,72.4z M69.8,71.1
			C69.7,71.1,69.7,71.1,69.8,71.1c-0.6,0.4-1.2,0.9-1.8,1.2c-0.7,0.4-1.4,0.7-2.1,1l0,0c-0.1-0.1-0.2-0.1-0.3-0.1
			C65,73.5,64.5,74,64,74.4c-0.1,0.1-0.1,0.1-0.2,0.2l0,0l0,0c-0.1,0.1-0.2,0.1-0.2,0.2l0,0l0,0c-0.1,0.1-0.2,0.2-0.3,0.4
			c-0.1,0.1-0.1,0.2-0.2,0.2c-0.1,0.1-0.4,0.1-0.3-0.1l0,0c-0.1,0-0.2,0.1-0.3,0.1s-0.2,0.1-0.2,0.1h-0.1h-0.1
			c-0.2,0.2-0.4,0.3-0.6,0.5c-0.3,0.3-0.6,0.6-0.9,1l0,0l0,0c0,0,0,0,0,0.1c0,0,0,0-0.1,0.1l0,0c0,0.1-0.1,0.1-0.1,0.2l0,0l-0.1,0.1
			c0,0,0-0.1-0.1-0.1v-0.1c0-0.1-0.1-0.2-0.1-0.3l0,0v-0.1c0.2-0.2,0.3-0.4,0.5-0.6l0,0c0.1-0.1,0.1-0.1,0.2-0.2
			c0.1-0.1,0.2-0.2,0.3-0.3l0.1-0.1c0.2-0.2,0.3-0.4,0.5-0.7l0,0c0,0,0-0.1,0.1-0.1c0.1-0.1,0.1-0.2,0.2-0.3
			c0.1-0.1,0.1-0.2,0.2-0.3l0,0l0,0c0,0,0,0,0-0.1c0.1-0.1,0.1-0.2,0.2-0.4l0,0v-0.1c0-0.1,0-0.1,0-0.2l0,0l0,0c0-0.1,0-0.2,0.1-0.2
			v-0.1c0.2-0.3,0.4-0.6,0.6-0.9c0,0,0,0-0.1,0c-0.2,0.1-0.4,0.3-0.6,0.5c-0.2,0.1-0.5-0.1-0.3-0.2c0.1-0.1,0.2-0.2,0.4-0.3l0,0
			c0.3-0.3,0.5-0.6,0.8-0.8c0.2-0.1,0.3-0.2,0.5-0.4c0,0,0,0,0.1-0.1s0.2-0.3,0.4-0.4l0,0c1.5-1.5,4.1-1.4,6.1-2.3
			c0.8-0.3,1.7,0.2,2.5,0c0.5,0,1,0,1.4,0.3C72.4,69.4,71.1,70.3,69.8,71.1z M73,60.1c-0.2-0.2,0.5,0,0.6-0.3c-0.5,0-0.8,0-1.3,0
			c-0.2,0-0.2-0.2-0.2-0.3c-0.8,0.2-1.7,0.5-2.5,0.6c-1.1,0.3-2.1,1.1-3.3,1.4c-1.7,0.6-3.2,2.1-5.1,2.7C61,64.2,61,64,61,63.9
			c0.2-0.5,0.8-0.6,1.1-1.1c0-0.2,0-0.3-0.2-0.3c1.3-1.7,3-2.7,4.6-4.1c0-0.2,0-0.3,0-0.5c0.5-0.6,1.3-1,1.6-1.7
			c0.2-0.5,0.8-1.1,1.6-1.4c-0.2-0.2-0.5-0.2-0.5-0.5c-0.6,0-1.3,0.3-1.9-0.2c0.3-0.3,0.6-0.5,1-0.6c-0.1,0-0.3-0.1-0.4-0.2
			c-0.2-0.3,0.3-0.7,0.8-0.8c0.6-0.2,1.4-0.2,1.9-0.6c-1.1-0.2-2.4,0.3-3.5-0.3c0.8-2.1,2.1-3.8,4-4.8c0.2,0,0.5,0,0.5,0.2
			c0,0.8-0.5,1.4-1.3,1.6c1.3,0.3,2.5,0.3,3.8,1c-0.2,0.3-0.5,0.2-0.6,0.2c0.8,0.5,1.7,0.2,2.5,0.8c-0.5,0.5-1,0-1.4,0
			c4.9,1.4,10.1,2.5,14.3,5.7c-3.5,1.7-7.1,2.5-10.9,3.3c-0.5,0-0.8,0-1.3-0.2c0,0.2,0,0.5-0.2,0.5c-0.6,0-1.1,0-1.6,0.3
			C74.4,60.4,73.5,60.6,73,60.1z"/>
		<path class="st1" d="M236,0h-90.2c0,0,0.2,0,0.9,0.4s1.7,0.9,2.3,1.2c1.2,0.6,2.3,1.4,3,2.5c0.3,0.5,0.8,1.4,0.5,2.1
			c-0.3,0.8-0.5,2.1-1.3,2.4c-1,0.5-2.2,0.5-3.3,0.3c-0.6,0-1.3-0.2-1.9-0.3c2.4,1,4.6,2.1,6.2,4.3c0.2,0.3,0.8,0.5,1.4,0.5
			c0.2,0,0.2,0.3,0.2,0.5c-0.3,0.3-0.6,0.5-0.5,1c0.2,0,0.3,0,0.5,0c0.8-0.3,0.6-1.9,1.7-1.4c0.8,0.5,1.1,1.6,0.6,2.4
			c-0.6,0.6-1.3,1.1-1.9,1.6c-0.2,0.3-0.2,0.8,0,1.1c0.5,0.6,0.6,1.3,0.8,1.9c0.5,1.1,0.6,2.4,1.1,3.5c0.6,2.4,1.3,4.8,1.1,7.1
			c0,1.3-0.6,2.4-0.2,3.6c0.3,1.3,1.1,2.2,1.7,3.3c0.6,1,1.3,1.6,1.7,2.5c1,1.6,2.7,3.2,1.9,5.1c-0.5,1.1-2.2,1-3.3,1.6
			c-1,0.8-0.2,2.1,0.3,2.9c0.8,1.4-1,2.4-2.1,2.9c0.3,0.5,1,0.3,1.1,0.6c0.2,0.8,1,1.3,0.5,2.1c-0.6,1-2.5,1.4-1.6,2.9
			c0.6,1.1,0.2,2.3-0.2,3.5c-0.5,1.4-1.7,2.1-2.9,2.4c-1,0.3-2.1,0.3-3,0.2c-0.3-0.2-0.6-0.3-1-0.3c-2.7-0.3-5.4-1.1-8.1-1.1
			c-0.8,0.2-1.6,0.3-2.2,0.6c-0.7,0.5-1.4,1.1-1.9,1.7l0,0c-0.1,0.1-0.2,0.3-0.3,0.4s-0.1,0.2-0.2,0.2c0,0.1-0.1,0.1-0.1,0.2
			c-0.5,0.6-0.9,1.2-1.2,1.8c0,0,0,0.1-0.1,0.1c0,0.1-0.1,0.1-0.1,0.2c-0.5,1-0.9,1.9-1.2,2.9c-1.1,3.6-0.6,6.7,0.1,7.5
			c0.2,0.2,5.2,1.8,8.7,3.3c1.6,0.7,2.8,1.3,3.7,1.9H236V0z"/>
		<path class="st2" d="M151.1,30.6c0.6,0.2,1.6,0.2,1.6,0.5c-0.3,1.3-2.2,1.6-3.2,2.9H149c-0.5,0.3-0.3,1.1-0.8,1.1
			c-0.5-0.2-1,0-1.4,0.2c0.6,0.6,1.4,1.1,2.4,1c0.2,0,0.5,0.3,0.5,0.6c0,0,0.2,0,0.3-0.2c0.2,0,0.3,0,0.3,0.2v0.6
			c-0.5,0.6-1.3,0.3-1.9,0.5c1.3,0.3,2.5,0.3,3.6,0c1-0.3,0-1.9,0.6-2.7c-0.3,0,0-0.5-0.3-0.5c0.3-0.3,0.6-0.8,1-1
			c0.3,0,0.8-0.2,1-0.5c0-0.3-0.6-0.5-0.5-0.8c1-0.6,1.7-1.6,1.4-2.5c-0.2-0.5-1.4-0.5-2.2-0.8s-1.7,0-2.7,0.2
			c-0.8,0-1.6,0.5-2.4,0.6c-1.1,0.3-2.1,1-3,1.6c1.1-0.5,2.2-0.6,3.5-1C149.4,30.6,150.2,30.4,151.1,30.6z"/>
	</g>
</g>
<g id="zone_1_">
</g>
</svg>
