<?xml version="1.0" encoding="UTF-8"?>
<!-- Generator: Adobe Illustrator 25.2.0, SVG Export Plug-In . SVG Version: 6.00 Build 0)  -->
<svg version="1.1" id="Calque_1" xmlns="http://www.w3.org/2000/svg" xmlns:xlink="http://www.w3.org/1999/xlink" x="0px" y="0px" viewBox="0 0 296 96" style="enable-background:new 0 0 296 96;" xml:space="preserve">
<style type="text/css">
	.st0{fill-rule:evenodd;clip-rule:evenodd;fill:#3D80E3;}
	.st1{enable-background:new    ;}
	.st2{fill:#3D80E3;}
	.st3{fill:none;}
</style>
<g>
	<path id="Fill-1_2_" class="st0" d="M22.2,33.2c0.8-0.9,1.2-2.3,1.2-4.1c0-1.8-0.5-3.1-1.6-3.8c-1.1-0.8-2.8-1.1-5-1.1h-3.9v10.4   h4.6C19.8,34.6,21.3,34.2,22.2,33.2 M27.2,21.1c2.2,1.8,3.3,4.7,3.3,8.5s-1.1,6.6-3.3,8.4c-2.2,1.8-5.6,2.7-10.2,2.7h-4.1v8.6H5.9   V18.3h10.9C21.6,18.3,25,19.2,27.2,21.1"/>
	<path id="Fill-4_2_" class="st0" d="M35.2,49.2h6.6V16.4h-6.6V49.2z"/>
	<path id="Fill-6_2_" class="st0" d="M63.5,38.3V25.4h6.7v23.8h-6.7v-3.1c-1.7,2.3-3.8,3.5-6.4,3.5c-2.4,0.1-4.8-0.8-6.6-2.5   c-1.8-1.6-2.7-4.1-2.7-7.3V25.4h6.7v13c0,3.7,1.3,5.5,4,5.5c1.3,0,2.5-0.5,3.5-1.4C63,41.5,63.5,40.1,63.5,38.3"/>
	<path id="Fill-7_2_" class="st0" d="M93.1,36.8c0-1.9-0.5-3.4-1.6-4.5c-1-1.1-2.5-1.7-3.9-1.6c-1.5,0-3,0.6-4,1.6   c-1.1,1.1-1.7,2.6-1.7,4.5c-0.1,1.7,0.5,3.3,1.7,4.6c1,1.1,2.5,1.8,4,1.7c1.5,0,3-0.6,4-1.7C92.6,40.2,93.1,38.7,93.1,36.8    M94,45.2c-2,2.3-4.8,3.5-7.8,3.5c-2.9,0.1-5.8-1.1-7.9-3.2c-2.1-2.1-3.2-4.9-3.2-8.4c0-3.5,1.1-6.4,3.3-8.7   c2.2-2.3,4.7-3.4,7.5-3.4c2.8,0,5.2,1.2,7,3.5v-3.1h6.6v20.7c0,1.9-0.3,3.9-1.1,5.7c-0.6,1.5-1.7,2.9-3,3.9c-2.5,2-5.5,3-8.7,2.9   c-1.8,0-3.7-0.3-5.4-0.9c-1.7-0.5-3.4-1.4-4.8-2.5l2.6-5c2,1.6,4.4,2.4,6.9,2.5c2.4,0,4.4-0.6,5.8-1.8C93.3,49.7,94,47.8,94,45.2"/>
	<path id="Fill-8_2_" class="st0" d="M117.6,49.2h6.6V25.4h-6.6V49.2z M118.2,22.4c-1.6-1.5-1.6-4-0.1-5.6c1.5-1.6,4-1.6,5.6-0.1   c1.6,1.5,1.6,4,0.1,5.6c-0.7,0.8-1.8,1.2-2.8,1.2C119.9,23.6,118.9,23.1,118.2,22.4z"/>
	<path id="Fill-9_2_" class="st0" d="M137.2,36v13.3h-6.6V25.4h6.6v2.7c2-2,4.3-3.1,6.8-3.1c2.4-0.1,4.7,0.9,6.3,2.7   c1.7,1.8,2.5,4.1,2.5,7.1v14.5h-6.6V35.8c0-3.7-1.3-5.5-4-5.5c-1.3,0-2.6,0.5-3.5,1.4C137.7,32.7,137.2,34.1,137.2,36"/>
	<path id="Fill-10_2_" class="st0" d="M170.5,49.2h6.6V16.4h-6.6V49.2z"/>
	<path id="Fill-11_2_" class="st0" d="M196.9,40.2V39h-4.2c-2.7,0-4,0.8-4,2.5c0,0.8,0.3,1.5,1,2c0.8,0.5,1.8,0.7,2.7,0.7   c1.1,0,2.2-0.4,3.1-1.1C196.5,42.4,197,41.3,196.9,40.2z M203.6,49.2h-6.2v-2.9c-1.7,2.2-3.8,3.2-6.3,3.2c-2.3,0.1-4.6-0.7-6.3-2.2   c-1.7-1.4-2.7-3.6-2.6-5.8c0-2.4,0.9-4.3,2.7-5.5c1.8-1.2,4.2-1.8,7.3-1.8h5v-0.1c0-2.5-1.3-3.8-4-3.8c-1.2,0-2.5,0.2-3.6,0.7   c-1.2,0.4-2.3,1-3.3,1.7l-3-4.3c3.1-2.3,6.9-3.5,10.7-3.4c2.9,0,5.2,0.7,7.1,2.2c1.8,1.4,2.7,3.7,2.7,6.9L203.6,49.2z"/>
	<path id="Fill-12_2_" class="st0" d="M216.2,37.4c-0.1,1.7,0.5,3.4,1.6,4.7c1,1.2,2.4,1.8,3.9,1.8c1.5,0,3-0.7,4-1.8   c1.2-1.3,1.8-3,1.7-4.7c0.1-1.8-0.5-3.5-1.7-4.8c-1-1.2-2.5-1.9-4-1.9c-1.5,0-3,0.7-4,1.9C216.7,33.9,216.2,35.6,216.2,37.4    M223.4,25c2.9,0,5.4,1.1,7.6,3.4c2.2,2.3,3.2,5.2,3.2,8.7c0,3.5-1.1,6.5-3.3,8.9c-2.2,2.4-4.7,3.6-7.5,3.6c-2.8,0-5.2-1.2-7-3.5   v3.1h-6.6V16.4h6.6v11.7C218.1,26.1,220.7,25,223.4,25"/>
	<path id="Fill-13_2_" class="st0" d="M248.9,34.5c-1.1-0.3-2.2-0.7-3.2-1.2c-0.6-0.3-1-0.8-1-1.5c0-1.1,1-1.7,3.1-1.7   c1.1,0,2.1,0.2,3.1,0.6v4.5C250.3,35,249.7,34.8,248.9,34.5L248.9,34.5z M250.9,6v19.4c-1-0.2-1.9-0.3-2.9-0.3   c-2.8,0-5.1,0.7-6.9,2.1c-1.7,1.3-2.7,3.3-2.7,5.4c-0.1,2,0.9,3.9,2.7,5c0.8,0.5,1.5,0.9,2.4,1.3c0.7,0.3,1.7,0.6,3,1.1   c1.1,0.3,2.1,0.7,3,1.3c0.7,0.5,1,1,1,1.5c0,0.6-0.3,1.1-0.8,1.3c-0.6,0.4-1.3,0.5-2,0.5c-2.9,0-5.7-1-7.9-2.9l-2.9,4.2   c1.5,1.2,3.3,2.2,5.2,2.8c1.8,0.6,3.6,0.9,5.5,1c1.1,0,2.2-0.1,3.2-0.4V92h3.4V6H250.9z"/>
	<g class="st1">
		<path class="st2" d="M140,81.5h9.8v3h-13.5V62.9h3.7V81.5z"/>
		<path class="st2" d="M151.8,76.3c0-1.6,0.3-3,0.9-4.2c0.6-1.3,1.5-2.2,2.6-2.9c1.1-0.7,2.4-1,3.9-1c2.2,0,3.9,0.7,5.3,2.1    c1.3,1.4,2.1,3.2,2.2,5.5l0,0.8c0,1.6-0.3,3-0.9,4.2c-0.6,1.2-1.5,2.2-2.6,2.9c-1.1,0.7-2.4,1-3.9,1c-2.3,0-4.1-0.8-5.4-2.3    c-1.4-1.5-2-3.5-2-6V76.3z M155.4,76.7c0,1.6,0.3,2.9,1,3.9c0.7,0.9,1.6,1.4,2.8,1.4s2.2-0.5,2.8-1.4c0.7-0.9,1-2.3,1-4.2    c0-1.6-0.3-2.9-1-3.8s-1.6-1.4-2.8-1.4c-1.2,0-2.1,0.5-2.8,1.4C155.8,73.4,155.4,74.8,155.4,76.7z"/>
		<path class="st2" d="M178.4,71.8c-0.5-0.1-1-0.1-1.5-0.1c-1.6,0-2.8,0.6-3.3,1.9v11H170v-16h3.4l0.1,1.8c0.9-1.4,2.1-2.1,3.6-2.1    c0.5,0,0.9,0.1,1.3,0.2L178.4,71.8z"/>
		<path class="st2" d="M189.2,71.8c-0.5-0.1-1-0.1-1.5-0.1c-1.6,0-2.8,0.6-3.3,1.9v11h-3.6v-16h3.4l0.1,1.8c0.9-1.4,2.1-2.1,3.6-2.1    c0.5,0,0.9,0.1,1.3,0.2L189.2,71.8z"/>
		<path class="st2" d="M200.9,84.5c-0.2-0.3-0.3-0.8-0.4-1.5c-1.1,1.2-2.5,1.8-4.2,1.8c-1.6,0-2.9-0.5-3.9-1.4    c-1-0.9-1.5-2.1-1.5-3.4c0-1.7,0.6-3,1.9-3.9c1.3-0.9,3.1-1.4,5.4-1.4h2.2v-1.1c0-0.8-0.2-1.5-0.7-2c-0.5-0.5-1.2-0.7-2.1-0.7    c-0.8,0-1.5,0.2-2,0.6c-0.5,0.4-0.8,0.9-0.8,1.6h-3.6c0-0.9,0.3-1.7,0.9-2.5c0.6-0.8,1.4-1.4,2.4-1.8c1-0.4,2.1-0.7,3.4-0.7    c1.9,0,3.4,0.5,4.5,1.4c1.1,0.9,1.7,2.3,1.7,4v7.2c0,1.4,0.2,2.6,0.6,3.5v0.3H200.9z M196.9,81.9c0.7,0,1.4-0.2,2-0.5    c0.6-0.3,1.1-0.8,1.4-1.4v-3h-1.9c-1.3,0-2.3,0.2-3,0.7c-0.7,0.5-1,1.1-1,2c0,0.7,0.2,1.2,0.7,1.7    C195.5,81.7,196.1,81.9,196.9,81.9z"/>
		<path class="st2" d="M207.9,64.3c0-0.6,0.2-1,0.5-1.4c0.4-0.4,0.9-0.5,1.5-0.5c0.7,0,1.2,0.2,1.5,0.5c0.4,0.4,0.5,0.8,0.5,1.4    c0,0.5-0.2,1-0.5,1.4c-0.4,0.4-0.9,0.5-1.5,0.5c-0.7,0-1.2-0.2-1.5-0.5C208.1,65.3,207.9,64.9,207.9,64.3z M211.7,84.5h-3.6v-16    h3.6V84.5z"/>
		<path class="st2" d="M219.2,68.5l0.1,1.9c1.2-1.4,2.7-2.1,4.7-2.1c3.3,0,5,1.9,5.1,5.7v10.6h-3.6V74.1c0-1-0.2-1.8-0.7-2.3    c-0.4-0.5-1.2-0.7-2.2-0.7c-1.5,0-2.5,0.7-3.2,2v11.4h-3.6v-16H219.2z"/>
		<path class="st2" d="M240,84.8c-2.3,0-4.1-0.7-5.5-2.2c-1.4-1.4-2.1-3.3-2.1-5.7v-0.4c0-1.6,0.3-3,0.9-4.3    c0.6-1.3,1.5-2.2,2.6-2.9c1.1-0.7,2.4-1.1,3.7-1.1c2.2,0,3.9,0.7,5.1,2.1c1.2,1.4,1.8,3.4,1.8,5.9v1.5h-10.5    c0.1,1.3,0.5,2.4,1.3,3.1c0.8,0.8,1.7,1.2,2.9,1.2c1.6,0,3-0.7,4-2l1.9,1.9c-0.6,1-1.5,1.7-2.6,2.2    C242.5,84.5,241.3,84.8,240,84.8z M239.5,71.1c-1,0-1.8,0.3-2.4,1c-0.6,0.7-1,1.7-1.2,2.9h6.9v-0.3c-0.1-1.2-0.4-2.1-1-2.7    C241.3,71.4,240.5,71.1,239.5,71.1z"/>
	</g>
	<path class="st3" d="M286.9,15.8C286.9,15.8,286.8,15.8,286.9,15.8l-2.1,2.5c-1.3,1.5-3.5,1.7-5.1,0.4v0c-1.5-1.3-1.7-3.5-0.4-5.1   l2.1-2.5c0.3-0.4,0.7-0.7,1.1-0.9l-3.9-1.9c-0.4-0.2-0.9-0.3-1.3-0.3c-0.5,0-0.9,0.1-1.3,0.3l-6.1,3c-0.8,0.4-1.5,1.2-1.7,2.1   l-1.5,6.8c-0.2,0.9,0,1.9,0.6,2.6l4.3,5.5c0.6,0.7,1.5,1.2,2.4,1.2h6.8v0c0.9,0,1.8-0.4,2.4-1.2l4.3-5.5c0.6-0.7,0.8-1.7,0.6-2.6   L286.9,15.8z"/>
	<g>
		<path class="st2" d="M290.1,21c0-0.4,0-0.8-0.1-1.2v0l-1.5-6.8c-0.3-1.6-1.4-2.9-2.8-3.6l-6.1-3C278.8,6.2,278,6,277.3,6h-0.1    c-0.8,0-1.5,0.2-2.2,0.5l-6.1,3c-1.4,0.7-2.5,2-2.8,3.6l-1.5,6.8c-0.1,0.4-0.1,0.8-0.1,1.1v0.1c0,1.2,0.4,2.3,1.1,3.2l4.3,5.5    c1,1.3,2.5,2,4.1,2h6.8c1.6,0,3.1-0.7,4.1-2l4.3-5.5C289.7,23.3,290.1,22.2,290.1,21L290.1,21z M287.3,22.9l-4.3,5.5    c-0.6,0.7-1.5,1.2-2.4,1.2v0h-6.8c-0.9,0-1.8-0.4-2.4-1.2l-4.3-5.5c-0.6-0.7-0.8-1.7-0.6-2.6l1.5-6.8c0.2-0.9,0.8-1.7,1.7-2.1    l6.1-3c0.4-0.2,0.9-0.3,1.3-0.3c0.5,0,0.9,0.1,1.3,0.3l3.9,1.9c1.2-0.6,2.8-0.5,3.9,0.4l0,0c1.5,1.3,1.7,3.5,0.5,5l1,4.5    C288.1,21.3,287.9,22.2,287.3,22.9z"/>
		<path class="st2" d="M281.3,11.2l-2.1,2.5c-1.3,1.5-1.1,3.8,0.4,5.1v0c1.5,1.3,3.8,1.1,5.1-0.4l2.1-2.5c0,0,0,0,0,0    c1.2-1.5,1-3.8-0.5-5l0,0c-1.1-1-2.7-1.1-3.9-0.4C282,10.5,281.7,10.8,281.3,11.2z"/>
	</g>
</g>
</svg>