<?xml version="1.0" encoding="UTF-8" standalone="no"?>
<!-- Generator: Adobe Illustrator 26.3.1, SVG Export Plug-In . SVG Version: 6.00 Build 0)  -->

<svg
   version="1.1"
   id="Calque_1"
   x="0px"
   y="0px"
   viewBox="0 0 300.00001 300.00001"
   xml:space="preserve"
   sodipodi:docname="MESR.svg"
   width="300"
   height="300"
   inkscape:version="1.3.2 (091e20e, 2023-11-25)"
   xmlns:inkscape="http://www.inkscape.org/namespaces/inkscape"
   xmlns:sodipodi="http://sodipodi.sourceforge.net/DTD/sodipodi-0.dtd"
   xmlns="http://www.w3.org/2000/svg"
   xmlns:svg="http://www.w3.org/2000/svg"><defs
   id="defs55" /><sodipodi:namedview
   id="namedview55"
   pagecolor="#ffffff"
   bordercolor="#000000"
   borderopacity="0.25"
   inkscape:showpageshadow="2"
   inkscape:pageopacity="0.0"
   inkscape:pagecheckerboard="0"
   inkscape:deskcolor="#d1d1d1"
   inkscape:zoom="0.52522477"
   inkscape:cx="172.30718"
   inkscape:cy="200.86638"
   inkscape:window-width="1840"
   inkscape:window-height="1027"
   inkscape:window-x="0"
   inkscape:window-y="62"
   inkscape:window-maximized="0"
   inkscape:current-layer="Calque_1" />
<style
   type="text/css"
   id="style1">
	.st0{fill:#273375;}
	.st1{fill:#E30613;}
	.st2{fill:#9D9D9C;}
</style>
<g
   id="Calque_1_00000023249486159149823880000003997589899144038566_">
</g>
<g
   id="vect"
   transform="matrix(0.25906736,0,0,0.25906736,24.999999,64.715025)">
	<g
   id="g3">
		<path
   d="m 211.1,636.9 c 1.7,0 3.2,1.3 2.4,4.6 l -8,1.9 c 1.4,-3.8 3.7,-6.5 5.6,-6.5 m 4.4,12.8 h -1.6 c -2,2.4 -4.1,4.2 -6.3,4.2 -2.2,0 -3.3,-1.3 -3.3,-4.2 0,-1.2 0.1,-2.4 0.4,-3.5 l 12.8,-4.2 c 2.5,-5.9 -0.5,-8.5 -4,-8.5 -6.1,0 -13,10.1 -13,19 0,4 1.9,6.2 4.9,6.2 3.5,0 7.1,-3.4 10.1,-9 m -2.6,-18.6 9,-8.4 v -1 H 217 l -5.6,9.4 z m -27.6,6 h 4.3 l -6.8,18.5 c -0.6,1.6 0.2,3.1 1.9,3.1 3.8,0 10,-3.8 12.2,-9 h -1.2 c -1.7,1.8 -5,4.2 -7.8,4.7 l 6.2,-17.4 h 6.3 l 0.8,-2.6 H 195 l 2.4,-6.7 h -2.5 l -4.4,6.7 -5.2,0.7 z m -5.8,-0.9 c 0.5,-1.7 -0.6,-2.7 -1.5,-2.7 -3.7,0 -8.1,3.3 -9.9,8 h 1.2 c 1.2,-1.7 3.2,-3.6 5.1,-3.9 l -7.1,18.4 c -0.6,1.7 0.6,2.7 1.5,2.7 3.5,0 7.6,-3.4 9.4,-8 H 177 c -1.2,1.7 -3.2,3.6 -5.1,3.9 z m 1.3,-9.3 c 1.7,0 3.1,-1.3 3.1,-3.1 0,-1.7 -1.4,-3.1 -3.1,-3.1 -1.7,0 -3.1,1.4 -3.1,3.1 0.1,1.8 1.4,3.1 3.1,3.1 M 140,655.3 c -0.9,2.1 0,3.4 2.1,3.4 1.3,0 1.8,-0.3 2.3,-1.7 l 4.9,-13 c 2.3,-2.8 6.9,-5.7 8.8,-5.7 1.3,0 1.2,1.1 0.3,2.8 l -7.5,14.5 c -0.7,1.4 0.2,3.1 1.9,3.1 3.7,0 8.1,-3.3 9.9,-8 h -1.2 c -1.2,1.7 -3.2,3.6 -5.1,3.9 l 6.5,-13.1 c 0.8,-1.7 1.3,-3.2 1.3,-4.5 0,-2.1 -1.2,-3.5 -3.4,-3.5 -3.2,0 -6.4,3.6 -10.3,8.1 v -3.4 c 0,-2.5 -0.8,-4.6 -3,-4.6 -1.4,0 -2.7,1.2 -4,2.9 v 0.5 c 2.4,-0.1 3.5,3.5 1.8,7.3 z m -0.1,-16.2 c 0.9,-3 0.4,-5.6 -1.9,-5.6 -2.7,0 -3.4,2.1 -6.2,8.1 v -3.4 c 0,-2.5 -0.8,-4.6 -3,-4.6 -2.6,0 -5,4 -6.8,8 h 1.2 c 1.3,-1.8 2.4,-2.9 3.3,-2.9 1.1,0 1.7,1.7 0,5.5 l -5,11.1 c -0.9,2.1 0,3.4 2.1,3.4 1.3,0 1.8,-0.3 2.3,-1.7 l 4.9,-13 c 1.4,-1.7 2.6,-3.2 4.2,-4.9 z m -28.4,-2.2 c 1.7,0 3.2,1.3 2.4,4.6 l -8,1.9 c 1.4,-3.8 3.7,-6.5 5.6,-6.5 m 4.4,12.8 h -1.6 c -2,2.4 -4.1,4.2 -6.3,4.2 -2.2,0 -3.3,-1.3 -3.3,-4.2 0,-1.2 0.1,-2.4 0.4,-3.5 L 118,642 c 2.5,-5.9 -0.5,-8.5 -4,-8.5 -6.1,0 -13,10.1 -13,19 0,4 1.9,6.2 4.9,6.2 3.4,0 7,-3.4 10,-9 M 85.7,637.1 H 90 l -6.8,18.5 c -0.6,1.6 0.2,3.1 1.9,3.1 3.8,0 10,-3.8 12.2,-9 H 96 c -1.7,1.8 -5,4.2 -7.8,4.7 L 94.4,637 h 6.3 l 0.8,-2.6 h -6.2 l 2.4,-6.7 h -2.5 l -4.4,6.7 -5.2,0.7 z m -23.4,14.4 c 0,-5.7 6.3,-13.4 9.9,-13.4 0.8,0 1.5,0.1 2.2,0.3 l -3.7,9.9 c -2.1,2.6 -5.4,5.7 -6.9,5.7 -1,-0.1 -1.5,-0.8 -1.5,-2.5 m 19.5,-19.1 -1.9,-0.1 -2.2,2.1 h -0.5 c -10.6,0 -19.7,11.9 -19.7,20.5 0,2.4 1.5,3.8 3.8,3.8 2.7,0 5.4,-3.9 8.4,-8.1 l -0.1,1.5 c -0.4,4.3 0.9,6.6 3.1,6.6 2.6,0 5,-4 6.8,-8 h -1.2 c -1.3,1.8 -2.4,2.9 -3.3,2.9 -1,0 -1.7,-1.8 0,-5.5 z m -22.5,6.7 c 0.9,-3 0.4,-5.6 -1.9,-5.6 -2.7,0 -3.4,2.1 -6.2,8.1 v -3.4 c 0,-2.5 -0.8,-4.6 -3,-4.6 -2.6,0 -5,4 -6.8,8 h 1.2 c 1.3,-1.8 2.4,-2.9 3.3,-2.9 1.1,0 1.7,1.7 0,5.5 l -5,11.1 c -0.9,2.1 0,3.4 2.1,3.4 1.3,0 1.8,-0.3 2.3,-1.7 l 4.9,-13 c 1.4,-1.7 2.6,-3.2 4.2,-4.9 z m -35.5,18.7 0.5,-1.4 c -6.2,-1.2 -6.9,-1.2 -4.5,-7.9 l 2.5,-6.9 h 6.8 c 3.1,0 3.1,1.3 2.6,4.6 h 1.8 L 37.6,635 h -1.8 c -1.5,2.6 -2.7,4.6 -6.1,4.6 H 23 l 3.6,-9.8 c 1.1,-3.1 1.8,-3.8 5.9,-3.8 h 3 c 4.3,0 4.8,1.2 4.8,5.5 H 42 l 1.4,-7.6 H 17.9 l -0.5,1.4 c 5,1 5.4,1.5 3.1,7.9 l -5.6,15.2 c -2.3,6.3 -3.3,6.9 -9,7.9 l -0.4,1.4 z"
   id="path1" />
		<path
   d="m 149.1,579 c 1.7,0 3.2,1.3 2.4,4.6 l -8,1.9 c 1.4,-3.7 3.7,-6.5 5.6,-6.5 m 4.4,12.9 h -1.6 c -2,2.4 -4.1,4.2 -6.3,4.2 -2.2,0 -3.3,-1.3 -3.3,-4.2 0,-1.2 0.1,-2.4 0.4,-3.5 l 12.8,-4.2 c 2.5,-5.9 -0.5,-8.5 -4,-8.5 -6.1,0 -13,10.1 -13,19 0,4 1.9,6.2 4.9,6.2 3.5,-0.1 7.1,-3.5 10.1,-9 m -2.6,-18.7 9,-8.4 v -1 H 155 l -5.6,9.4 z m -27.6,6 h 4.3 l -6.8,18.5 c -0.6,1.6 0.2,3.1 1.9,3.1 3.8,0 10,-3.8 12.2,-9 h -1.2 c -1.7,1.8 -5,4.2 -7.8,4.7 l 6.2,-17.4 h 6.3 l 0.8,-2.6 H 133 l 2.4,-6.7 h -2.5 l -4.4,6.7 -5.2,0.7 z m -5.8,-0.9 c 0.5,-1.7 -0.6,-2.7 -1.5,-2.7 -3.7,0 -8.1,3.3 -9.9,8 h 1.2 c 1.2,-1.7 3.2,-3.6 5.1,-3.9 l -7.1,18.4 c -0.6,1.7 0.6,2.7 1.5,2.7 3.5,0 7.6,-3.4 9.4,-8 H 115 c -1.2,1.7 -3.2,3.6 -5.1,3.9 z m 1.3,-9.3 c 1.7,0 3.1,-1.3 3.1,-3.1 0,-1.7 -1.4,-3.1 -3.1,-3.1 -1.7,0 -3.1,1.4 -3.1,3.1 0.1,1.8 1.4,3.1 3.1,3.1 m -24.6,27.7 12.9,-33.9 -0.4,-0.5 -8.1,0.9 v 1 l 1.6,1.2 c 1.4,1.1 1,2.2 -0.3,5.6 l -10.1,26.6 c -0.7,1.4 0.2,3.1 1.9,3.1 3.7,0 7.6,-3.3 9.4,-8 h -1.2 c -1.3,1.8 -3.8,3.7 -5.7,4 m -24.6,-3.1 c 0,-5.7 6.3,-13.4 9.9,-13.4 0.8,0 1.5,0.1 2.2,0.3 l -3.7,9.9 c -2.1,2.6 -5.4,5.7 -6.9,5.7 -0.9,-0.1 -1.5,-0.8 -1.5,-2.5 m 19.5,-19.1 -1.9,-0.1 -2.2,2.1 h -0.5 c -10.6,0 -19.7,11.9 -19.7,20.5 0,2.4 1.5,3.8 3.8,3.8 2.7,0 5.4,-3.9 8.4,-8.1 l -0.1,1.5 c -0.4,4.3 0.9,6.6 3.1,6.6 2.6,0 5,-4 6.8,-8 h -1.2 c -1.3,1.8 -2.4,2.9 -3.3,2.9 -1,0 -1.7,-1.8 0,-5.5 z M 42,605.3 c 0,-2.5 2.4,-4 5.7,-5.3 1.1,0.6 2.8,1.2 5,1.9 3.5,1.2 4.9,1.6 4.9,2.7 0,2.3 -3.8,4 -9.1,4 -4.4,-0.1 -6.5,-1 -6.5,-3.3 m 9.6,-15 c -1.5,0 -2.1,-1.3 -2.1,-2.8 0,-4.1 2.2,-10.2 5.7,-10.2 1.5,0 2.1,1.3 2.1,2.8 0,4.2 -2.3,10.2 -5.7,10.2 m 10,12.7 c 0,-3 -2.6,-4 -6.9,-5.3 -3.7,-1.1 -5.4,-1.4 -5.4,-2.6 0,-1 0.8,-2.1 2.4,-3 6.1,-0.3 10,-5.8 10,-10.4 0,-1 -0.2,-1.8 -0.5,-2.5 h 5.1 l 0.8,-2.6 h -8.2 c -1,-0.6 -2.1,-0.9 -3.3,-0.9 -6.4,0 -10.6,5.6 -10.6,10.2 0,3.5 2.2,5.6 4.9,6.2 -3,1.3 -4.7,2.9 -4.7,4.8 0,1.1 0.4,1.8 1.3,2.5 -6.9,2 -9.7,4.4 -9.7,7.6 0,3.2 4.2,4.5 9.2,4.5 8.5,-0.1 15.6,-4.6 15.6,-8.5 M 29.3,583.2 c 3.1,0 3.1,1.3 2.6,4.6 h 1.8 l 4.1,-11.2 H 36 c -1.5,2.6 -2.7,4.6 -6.1,4.6 h -6.7 l 3.4,-9.3 c 1.1,-3.1 1.8,-3.7 5.9,-3.7 h 3 c 4.3,0 4.8,1.2 4.8,5.5 H 42 l 1.4,-7.6 H 17.9 l -0.5,1.4 c 5,1 5.4,1.5 3.1,7.9 l -5.6,15.2 c -2.3,6.3 -3.3,6.9 -9,7.9 l -0.4,1.4 H 34 l 5.1,-8.1 h -1.9 c -3.2,3.1 -7.3,6 -13,6 -7.5,0 -6.9,-0.3 -4.4,-7.2 l 2.7,-7.4 z m 3.7,-19.4 9,-6.2 v -1 h -5.5 l -5,7.2 z"
   id="path2" />
		<path
   d="m 146.1,521.1 c 1.7,0 3.2,1.3 2.4,4.6 l -8,1.9 c 1.4,-3.7 3.7,-6.5 5.6,-6.5 m 4.4,12.9 h -1.6 c -2,2.4 -4.1,4.2 -6.3,4.2 -2.2,0 -3.3,-1.3 -3.3,-4.2 0,-1.2 0.1,-2.4 0.4,-3.5 l 12.8,-4.2 c 2.5,-5.9 -0.5,-8.5 -4,-8.5 -6.1,0 -13,10.1 -13,19 0,4 1.9,6.2 4.9,6.2 3.5,-0.1 7.1,-3.5 10.1,-9 m -2.6,-18.6 9,-8.4 v -1 H 152 l -5.6,9.4 z m -26.5,5.9 h 3.4 l -6.8,18.5 c -0.6,1.6 0.2,3.1 1.9,3.1 3.8,0 10,-3.8 12.2,-9 h -1.2 c -1.7,1.8 -5,4.2 -7.8,4.7 l 6.2,-17.4 h 6.3 l 0.8,-2.6 h -6.2 l 2.4,-6.7 h -2.5 l -4.4,6.7 -4.4,0.7 z m -3.3,2.1 c 0.9,-3 0.4,-5.6 -1.9,-5.6 -2.7,0 -3.4,2.1 -6.2,8.1 v -3.4 c 0,-2.5 -0.8,-4.6 -3,-4.6 -2.6,0 -5,4 -6.8,8 h 1.2 c 1.3,-1.8 2.4,-2.9 3.3,-2.9 1.1,0 1.7,1.7 0,5.5 l -5,11.1 c -0.9,2.1 0,3.4 2.1,3.4 1.3,0 1.8,-0.3 2.3,-1.7 l 4.9,-13 c 1.4,-1.7 2.6,-3.2 4.2,-4.9 z m -28.5,-2.3 c 1.7,0 3.2,1.3 2.4,4.6 l -8,1.9 c 1.5,-3.7 3.8,-6.5 5.6,-6.5 M 94,534 h -1.6 c -2,2.4 -4.1,4.2 -6.3,4.2 -2.2,0 -3.3,-1.3 -3.3,-4.2 0,-1.2 0.1,-2.4 0.4,-3.5 L 96,526.3 c 2.5,-5.9 -0.5,-8.5 -4,-8.5 -6.1,0 -13,10.1 -13,19 0,4 1.9,6.2 4.9,6.2 3.6,-0.1 7.2,-3.5 10.1,-9 m -31.4,5.2 c -1.3,0 -3.1,-1.2 -3.1,-2.2 0,-0.3 0.6,-1.8 1.3,-3.6 l 2.1,-5.5 c 2.2,-2.6 5.6,-5.5 7.5,-5.5 1.2,0 2,0.7 2,2.5 0,5 -4.7,14.3 -9.8,14.3 m 14.6,-16.3 c 0,-3.8 -1.4,-5.1 -4,-5.1 -3.2,0 -6.3,3.4 -9.4,7.6 l 7.7,-20.3 -0.4,-0.5 -8.1,0.9 v 1 l 1.6,1.2 c 1.4,1.1 1,2.3 -0.3,5.6 L 56,534.7 c -0.6,1.6 -1.3,3.4 -1.3,3.9 0,2.2 3,4.3 5.7,4.3 6.3,0 16.8,-11.3 16.8,-20 M 52,520.4 c 0.5,-1.7 -0.6,-2.7 -1.5,-2.7 -3.7,0 -8.1,3.3 -9.9,8 h 1.2 c 1.2,-1.7 3.2,-3.6 5.1,-3.9 l -7.1,18.4 c -0.6,1.7 0.6,2.7 1.5,2.7 3.5,0 7.6,-3.4 9.4,-8 h -1.2 c -1.2,1.7 -3.2,3.6 -5.1,3.9 z m 1.3,-9.3 c 1.7,0 3.1,-1.3 3.1,-3.1 0,-1.7 -1.4,-3.1 -3.1,-3.1 -1.7,0 -3.1,1.4 -3.1,3.1 0,1.8 1.4,3.1 3.1,3.1 M 34.6,508.2 H 17.8 l -0.5,1.4 c 5,1 5.4,1.5 3.1,7.9 l -5.5,15.2 c -2.3,6.3 -3.3,6.9 -9,7.9 L 5.5,542 h 25.7 l 5.6,-9.9 h -1.9 c -3.1,3.5 -6.9,7.8 -12.5,7.8 -4.3,0 -4.8,-0.7 -2.5,-7.2 l 5.5,-15.2 c 2.3,-6.3 3.3,-6.9 9,-7.9 z"
   id="path3" />
	</g>
	<g
   id="zone">
		<g
   id="g52">
			<path
   d="M 5.7,125.9 H 21.8 L 37,151.8 52.2,125.9 h 16.1 v 63 H 55.5 v -44.8 l -14,23.2 h -9 l -14,-23.2 v 44.8 H 5.7 Z"
   id="path4" />
			<path
   d="m 86,125.9 h 12.8 v 63 H 86 Z"
   id="path5" />
			<path
   d="M 116.6,125.9 H 133 L 161.2,171 V 125.9 H 174 v 63 h -16.4 l -28.2,-45.3 v 45.3 h -12.8 c 0,0 0,-63 0,-63 z"
   id="path6" />
			<path
   d="m 191.8,125.9 h 12.8 v 63 h -12.8 z"
   id="path7" />
			<path
   d="m 226,171.6 c 3.8,4.9 8.8,7.7 14,7.7 5,0 8.1,-2.7 8.1,-7.3 0,-11.2 -28.8,-8.7 -28.8,-29.7 0,-10 8.2,-18.3 20.2,-18.3 9.4,0 16.7,4.2 22,10.6 l -9.4,8.4 c -3.7,-4.8 -7.8,-7.8 -12.6,-7.8 -4.4,0 -7.3,2.9 -7.3,6.6 0,11.2 28.8,8.6 28.8,30 -0.2,11.7 -9.4,18.9 -20.9,18.9 -10.6,0 -17.8,-3.9 -23.4,-10.5 z"
   id="path8" />
			<path
   d="m 267.7,125.9 h 51.7 v 11.6 H 300 v 51.4 h -12.8 v -51.4 h -19.4 v -11.6 z"
   id="path9" />
			<path
   d="m 330.7,125.9 h 36.7 v 10.9 h -23.9 v 14.6 h 20.3 v 10.9 H 343.5 V 178 h 23.9 v 10.9 h -36.7 z m 1.1,-17.5 H 345 l 10.2,12.1 h -11.7 z"
   id="path10" />
			<path
   d="m 382.5,125.9 h 19.3 c 13.9,0 22.4,7.1 22.4,18.8 0,7.6 -3.7,13.2 -10.1,16.3 l 19.8,27.9 h -15.3 l -16.7,-25.5 h -6.6 v 25.5 h -12.8 z m 12.8,10.9 v 15.7 h 7.2 c 5.4,0 8.5,-2.9 8.5,-8 0,-4.8 -3.2,-7.7 -8.5,-7.7 z"
   id="path11" />
			<path
   d="m 442,125.9 h 36.7 v 10.9 h -23.9 v 14.6 h 20.3 v 10.9 H 454.8 V 178 h 23.9 v 10.9 H 442 Z"
   id="path12" />
			<path
   d="m 5.7,216.9 h 24.7 c 20,0 33.5,14.5 33.5,31.5 0,17 -13.5,31.5 -33.5,31.5 H 5.7 Z m 12.7,11.6 v 39.8 h 12.1 c 11.7,0 20.2,-8.7 20.2,-19.9 0,-11.2 -8.5,-19.9 -20.2,-19.9 z"
   id="path13" />
			<path
   d="m 76.4,216.9 h 36.7 v 10.9 H 89.2 v 14.6 h 20.3 v 10.9 H 89.2 V 269 h 23.9 v 10.9 H 76.4 Z"
   id="path14" />
			<path
   d="m 151.7,216.9 h 12.8 v 51.4 h 23.9 v 11.6 h -36.7 z"
   id="path15" />
			<path
   d="m 185.9,242.8 8.1,-25.9 h 13 l -10.4,25.9 z"
   id="path16" />
			<path
   d="m 217.1,216.9 h 36.7 v 10.9 h -23.9 v 14.6 h 20.3 v 10.9 H 229.9 V 269 h 23.9 v 10.9 h -36.7 z"
   id="path17" />
			<path
   d="m 268.8,216.9 h 16.4 l 28.2,45.1 v -45.1 h 12.8 v 63 h -16.4 l -28.2,-45.3 v 45.3 h -12.8 z"
   id="path18" />
			<path
   d="m 347.6,262.6 c 3.8,4.9 8.8,7.7 14,7.7 5,0 8.1,-2.7 8.1,-7.3 0,-11.2 -28.8,-8.7 -28.8,-29.7 0,-10 8.2,-18.3 20.2,-18.3 9.4,0 16.7,4.2 22,10.6 l -9.4,8.4 c -3.7,-4.8 -7.8,-7.8 -12.6,-7.8 -4.4,0 -7.3,2.9 -7.3,6.6 0,11.2 28.8,8.6 28.8,30 -0.2,11.7 -9.4,18.9 -20.9,18.9 -10.6,0 -17.8,-3.9 -23.4,-10.5 z"
   id="path19" />
			<path
   d="m 396.2,216.9 h 36.7 v 10.9 H 409 v 14.6 h 20.3 v 10.9 H 409 V 269 h 23.9 v 10.9 h -36.7 z"
   id="path20" />
			<path
   d="m 447.9,216.9 h 12.8 v 63 h -12.8 z"
   id="path21" />
			<path
   d="m 522.2,264.3 v -10.6 h -16 V 242 H 535 v 26.8 c -5.8,7.8 -15.7,12.9 -27.4,12.9 -20.4,0 -34.4,-15.3 -34.4,-33.3 0,-18 13.6,-33.3 33.5,-33.3 11.4,0 20.8,5.1 26.5,12.8 l -10.1,7.8 c -3.6,-5.1 -9.3,-8.6 -16.5,-8.6 -11.9,0 -20.3,9.3 -20.3,21.3 0,12.1 8.9,21.3 21.2,21.3 5.9,0.1 11.1,-2 14.7,-5.4 z"
   id="path22" />
			<path
   d="m 549.4,216.9 h 16.4 L 594,262 v -45.1 h 12.8 v 63 h -16.4 l -28.2,-45.3 v 45.3 h -12.8 z"
   id="path23" />
			<path
   d="m 624.5,216.9 h 36.7 v 10.9 h -23.9 v 14.6 h 20.3 v 10.9 H 637.3 V 269 h 23.9 v 10.9 h -36.7 z"
   id="path24" />
			<path
   d="m 676.3,216.9 h 16.1 l 15.2,25.9 15.2,-25.9 h 16.1 v 63 h -12.8 v -44.8 l -14,23.2 h -9 l -14,-23.2 v 44.8 h -12.8 z"
   id="path25" />
			<path
   d="m 756.6,216.9 h 36.7 v 10.9 h -23.9 v 14.6 h 20.3 v 10.9 H 769.4 V 269 h 23.9 v 10.9 h -36.7 z"
   id="path26" />
			<path
   d="m 808.4,216.9 h 16.4 L 853,262 v -45.1 h 12.8 v 63 h -16.4 l -28.2,-45.3 v 45.3 h -12.8 z"
   id="path27" />
			<path
   d="m 877,216.9 h 51.7 v 11.6 h -19.4 v 51.4 H 896.5 V 228.5 H 877 Z"
   id="path28" />
			<path
   d="m 9.3,353.6 c 3.8,4.9 8.8,7.7 14,7.7 5,0 8.1,-2.7 8.1,-7.3 0,-11.2 -28.8,-8.7 -28.8,-29.7 0,-10 8.2,-18.3 20.2,-18.3 9.4,0 16.7,4.2 22,10.6 l -9.4,8.4 c -3.7,-4.8 -7.8,-7.8 -12.6,-7.8 -4.4,0 -7.3,2.9 -7.3,6.6 0,11.2 28.8,8.6 28.8,30 -0.2,11.7 -9.4,18.9 -20.9,18.9 -10.6,0 -17.8,-3.9 -23.4,-10.5 z"
   id="path29" />
			<path
   d="m 94.3,307.9 h 12.8 v 38.3 c 0,16.6 -9.7,26.5 -25.6,26.5 -15.7,0 -25.5,-9.9 -25.5,-26.5 v -38.3 h 12.8 v 39.4 c 0,8.5 4.8,13.4 12.8,13.4 7.8,0 12.7,-5 12.7,-13.4 z"
   id="path30" />
			<path
   d="m 123.1,307.9 h 20.8 c 13.9,0 22.3,7.1 22.3,18.8 0,11.6 -8.5,18.7 -22.3,18.7 h -8 v 25.5 h -12.8 c 0,0 0,-63 0,-63 z m 12.8,10.9 v 15.7 h 8.5 c 5.4,0 8.6,-2.9 8.6,-8 0,-4.8 -3.2,-7.7 -8.6,-7.7 z"
   id="path31" />
			<path
   d="m 176.9,307.9 h 36.7 v 10.9 h -23.9 v 14.6 H 210 v 10.9 H 189.7 V 360 h 23.9 v 10.9 h -36.7 z m 12.5,-5.4 10.2,-12.1 h 13.1 L 201,302.5 Z"
   id="path32" />
			<path
   d="M 228.7,307.9 H 248 c 13.9,0 22.4,7.1 22.4,18.8 0,7.6 -3.7,13.2 -10.1,16.3 l 19.8,27.9 H 264.8 L 248,345.5 h -6.6 V 371 h -12.8 v -63.1 z m 12.8,10.9 v 15.7 h 7.2 c 5.4,0 8.5,-2.9 8.5,-8 0,-4.8 -3.2,-7.7 -8.5,-7.7 z"
   id="path33" />
			<path
   d="M 288.2,307.9 H 301 v 63 h -12.8 z"
   id="path34" />
			<path
   d="m 318.8,307.9 h 36.7 v 10.9 h -23.9 v 14.6 h 20.3 v 10.9 H 331.6 V 360 h 23.9 v 10.9 h -36.7 z"
   id="path35" />
			<path
   d="m 407.3,307.9 h 12.8 v 38.3 c 0,16.6 -9.7,26.5 -25.6,26.5 -15.7,0 -25.5,-9.9 -25.5,-26.5 v -38.3 h 12.8 v 39.4 c 0,8.5 4.8,13.4 12.8,13.4 7.8,0 12.7,-5 12.7,-13.4 z"
   id="path36" />
			<path
   d="m 436.1,307.9 h 19.3 c 13.9,0 22.4,7.1 22.4,18.8 0,7.6 -3.7,13.2 -10.1,16.3 l 19.8,27.9 h -15.3 l -16.7,-25.5 h -6.6 v 25.5 h -12.8 z m 12.8,10.9 v 15.7 h 7.2 c 5.4,0 8.5,-2.9 8.5,-8 0,-4.8 -3.2,-7.7 -8.5,-7.7 z"
   id="path37" />
			<path
   d="m 5.7,398.9 h 36.7 v 10.9 h -24 v 14.6 h 20.3 v 10.9 H 18.4 V 451 h 23.9 v 10.9 H 5.7 Z"
   id="path38" />
			<path
   d="M 52.3,398.9 H 104 v 11.6 H 84.5 v 51.4 H 71.7 V 410.5 H 52.3 Z"
   id="path39" />
			<path
   d="m 139,398.9 h 24.7 c 20,0 33.5,14.5 33.5,31.5 0,17 -13.5,31.5 -33.5,31.5 H 139 Z m 12.7,11.6 v 39.8 h 12.1 c 11.7,0 20.2,-8.7 20.2,-19.9 0,-11.2 -8.5,-19.9 -20.2,-19.9 z"
   id="path40" />
			<path
   d="m 209.7,398.9 h 36.7 v 10.9 h -23.9 v 14.6 h 20.3 v 10.9 H 222.5 V 451 h 23.9 v 10.9 h -36.7 z"
   id="path41" />
			<path
   d="m 285,398.9 h 12.8 v 51.4 h 23.9 v 11.6 H 285 Z"
   id="path42" />
			<path
   d="m 351.8,398.9 h 16.7 l 23.8,63 h -13.6 l -6,-16.4 h -25.2 l -6,16.4 H 328 Z m 17,35.8 -8.6,-23.7 -8.6,23.7 z"
   id="path43" />
			<path
   d="m 425.9,398.9 h 19.3 c 13.9,0 22.4,7.1 22.4,18.8 0,7.6 -3.7,13.2 -10.1,16.3 l 19.8,27.9 H 462 l -16.7,-25.5 h -6.6 v 25.5 h -12.8 z m 12.8,10.9 v 15.8 h 7.2 c 5.4,0 8.5,-2.9 8.5,-8 0,-4.8 -3.2,-7.7 -8.5,-7.7 z"
   id="path44" />
			<path
   d="m 485.4,398.9 h 36.7 v 10.9 h -23.9 v 14.6 h 20.3 v 10.9 H 498.2 V 451 h 23.9 v 10.9 h -36.7 z"
   id="path45" />
			<path
   d="m 580.2,443.1 10.1,7.7 c -5.8,7.8 -15.1,12.9 -26.5,12.9 -19.9,0 -33.5,-15.3 -33.5,-33.3 0,-18 13.6,-33.3 33.5,-33.3 11.4,0 20.8,5.1 26.5,12.8 l -10.1,7.8 c -3.6,-5.1 -9.3,-8.6 -16.5,-8.6 -11.9,0 -20.3,9.3 -20.3,21.3 0,12 8.5,21.3 20.3,21.3 7.3,0.1 12.9,-3.5 16.5,-8.6 z"
   id="path46" />
			<path
   d="m 601.6,398.9 h 12.8 V 424 h 31.8 V 398.9 H 659 v 63 h -12.8 v -26.3 h -31.8 v 26.3 h -12.8 z"
   id="path47" />
			<path
   d="m 676.7,398.9 h 36.7 v 10.9 h -23.9 v 14.6 h 20.3 v 10.9 H 689.5 V 451 h 23.9 v 10.9 h -36.7 z"
   id="path48" />
			<path
   d="m 728.5,398.9 h 19.3 c 13.9,0 22.4,7.1 22.4,18.8 0,7.6 -3.7,13.2 -10.1,16.3 l 19.8,27.9 h -15.3 l -16.7,-25.5 h -6.6 v 25.5 h -12.8 z m 12.7,10.9 v 15.8 h 7.2 c 5.4,0 8.5,-2.9 8.5,-8 0,-4.8 -3.2,-7.7 -8.5,-7.7 z"
   id="path49" />
			<path
   d="m 831.9,443.1 10.1,7.7 c -5.8,7.8 -15.1,12.9 -26.5,12.9 -19.9,0 -33.5,-15.3 -33.5,-33.3 0,-18 13.6,-33.3 33.5,-33.3 11.4,0 20.8,5.1 26.5,12.8 l -10.1,7.8 c -3.6,-5.1 -9.3,-8.6 -16.5,-8.6 -11.9,0 -20.3,9.3 -20.3,21.3 0,12 8.5,21.3 20.3,21.3 7.2,0.1 12.9,-3.5 16.5,-8.6 z"
   id="path50" />
			<path
   d="M 853.2,398.9 H 866 V 424 h 31.8 v -25.1 h 12.8 v 63 H 897.8 V 435.6 H 866 v 26.3 h -12.8 z"
   id="path51" />
			<path
   d="M 928.3,398.9 H 965 v 10.9 h -23.9 v 14.6 h 20.3 v 10.9 H 941.1 V 451 H 965 v 10.9 h -36.7 z"
   id="path52" />
		</g>
	</g>
	<g
   id="g55">
		<path
   class="st0"
   d="m 100.7,74 c 0.9,-0.9 1.8,-1.9 2.7,-2.8 v 0 c 1.7,-1.9 3.3,-3.7 5.3,-5.4 0.6,-0.5 1.2,-1 1.7,-1.4 0.2,-0.2 0.2,-0.5 0.3,-0.6 -0.8,0.3 -1.3,1 -2.1,1.3 -0.2,0 -0.3,-0.2 -0.2,-0.3 0.6,-0.4 1.1,-0.8 1.7,-1.3 H 110 c -0.2,0 -0.2,-0.2 -0.2,-0.3 -2.1,-0.3 -3.6,1.1 -5.1,2.4 -0.3,0.2 -0.6,-0.2 -0.8,-0.2 -2.4,0.8 -4.1,2.9 -6.5,3.8 0,-0.2 0,-0.2 0,-0.3 -1,0.3 -1.9,0.9 -2.9,1.1 -1.4,0.3 -2.7,0.2 -4,0.2 -1.9,0.2 -3.8,0.6 -5.8,1 -0.1,0 -0.1,0 -0.2,0 -1,0.3 -2,0.7 -3,1.2 0,0 -0.1,0 -0.1,0.1 -0.1,0.1 -0.2,0.2 -0.2,0.3 -0.3,0.4 -0.6,0.7 -1.1,0.9 -1,0.5 -1.8,1.4 -2.6,2.1 -0.1,0.1 -0.2,0.1 -0.3,0.1 -0.9,0.8 -1.7,1.6 -2.6,2.4 -0.1,0.1 -0.3,0.1 -0.5,0.1 v 0 c 0,-0.1 0.1,-0.1 0.1,-0.2 0.1,-0.2 0.3,-0.4 0.4,-0.7 0.2,-0.2 0.3,-0.5 0.5,-0.7 0.2,-0.3 0.4,-0.7 0.7,-1 0.1,-0.1 0,-0.2 0,-0.2 -0.1,-0.1 -0.1,-0.1 -0.2,-0.1 0.8,-0.8 1.7,-1.4 2.7,-2 v 0 c -0.1,0 -0.3,0 -0.2,-0.2 0.1,-0.1 0.2,-0.3 0.3,-0.4 0,0 0,-0.1 0.1,-0.1 l -0.1,-0.1 c -0.3,0.2 -0.5,0.3 -0.7,0.5 -0.4,0.3 -0.7,1 -1.3,1 0,0 -0.1,0 -0.2,0 -0.1,0 -0.1,0 -0.2,-0.1 v 0 0 0 c 0,0 0,-0.1 0.1,-0.1 l 0.1,-0.1 c 0,0 0,-0.1 0.1,-0.1 0,-0.1 0.1,-0.1 0.1,-0.2 l 0.1,-0.1 c 0.1,-0.1 0.1,-0.2 0.2,-0.3 0,-0.1 0.1,-0.1 0.1,-0.2 0.1,-0.1 0.1,-0.2 0.2,-0.3 0.1,-0.1 0,-0.2 -0.1,-0.3 0.3,-0.4 0.7,-0.7 1.1,-0.9 v 0 c 0.6,-0.3 1.2,-0.7 1.8,-1 0.1,-0.1 0.2,-0.2 0.3,-0.2 -0.9,0.3 -1.7,0.7 -2.5,1.2 0,0 -0.2,0.1 -0.3,0.1 0,0 -0.2,0.1 -0.4,-0.1 v -0.1 c 0.2,-0.3 0.6,-0.5 1,-0.8 0.2,0 0.3,0 0.3,0.2 5.1,-4 12,-3 17.9,-5.1 0.5,-0.3 1,-0.6 1.4,-1 0.8,-0.3 1.4,-1.1 2.4,-1.6 1.3,-1 2.2,-2.1 2.7,-3.6 0,-0.2 -0.2,-0.3 -0.2,-0.3 -2.1,2.2 -4.4,4 -7,5.2 -3.3,1.7 -7,1.4 -10.5,1.9 0.2,-0.3 0.5,-0.3 0.8,-0.3 0,-0.5 0.3,-0.6 0.6,-1 0.2,0 0.3,0 0.5,0 0.2,0 0.2,-0.3 0.3,-0.3 0.3,0 0.8,-0.2 0.6,-0.2 -0.5,-0.6 -1.4,0.5 -2.2,0 0.3,-0.3 0.2,-0.8 0.5,-1 0.2,0 0.5,0 0.6,0 0,-0.3 0.3,-0.6 0.3,-0.6 2.4,-1.4 4.6,-2.5 6.8,-3.8 -0.5,0 -0.8,0.5 -1.3,0.2 0.3,0 0,-0.5 0.3,-0.5 1.7,-0.5 3.2,-1.4 4.9,-2.1 -0.6,0 -1.1,0.5 -1.7,0 0.3,-0.2 0.5,-0.5 1,-0.5 0,-0.2 0,-0.3 0,-0.5 0,-0.2 0.2,-0.2 0.3,-0.2 -0.2,0 -0.3,-0.2 -0.3,-0.2 0.2,-0.3 0.6,-0.2 1,-0.5 -0.2,0 -0.5,0 -0.5,-0.2 0.5,-0.6 1.3,-0.8 2.1,-1 -0.2,-0.3 -0.6,0 -0.6,-0.3 0,-0.2 0.2,-0.2 0.3,-0.2 -0.2,0 -0.2,0 -0.3,0 -0.3,-0.2 -0.2,-0.5 -0.2,-0.6 1,-1.1 1,-2.5 1.4,-3.8 -0.2,0 -0.3,0 -0.3,-0.2 -1.6,1.7 -4.1,2.4 -6.5,3 -0.2,0 -0.6,0 -0.8,0 -0.8,0.3 -1.9,0.3 -2.7,-0.2 -0.6,-0.3 -1,-0.8 -1.6,-1.3 -1.3,-0.8 -2.5,-1.4 -4,-1.9 -4,-1.3 -8.1,-1.9 -12.2,-1.7 1.7,-1 3.7,-1 5.5,-1.6 2.7,-0.8 5.2,-1.7 8.1,-1.6 -0.5,-0.2 -1.1,0 -1.6,0 -2.2,-0.2 -4.4,0.5 -6.8,1 -1.6,0.3 -3,1 -4.6,1.3 -1,0.3 -1.4,1.3 -2.5,1.1 0,0 0,-0.3 0,-0.5 1.6,-1.9 3.5,-3.8 6,-4 2.9,-0.5 5.5,0 8.4,0.3 2.1,0.2 4,0.6 6,1.1 0.8,0 1,1.3 1.6,1.4 1,0.3 1.9,0 2.9,0.6 0,-0.3 -0.2,-0.6 0,-1 0.6,-0.6 1.4,0.2 2.1,-0.2 1.3,-0.8 -1.1,-2.2 -1.7,-3.3 0,-0.2 0.2,-0.3 0.2,-0.3 1.3,1.1 2.2,2.4 3.8,3.2 0.8,0.3 2.7,0.8 2.4,-0.2 -0.8,-1.7 -2.4,-3.2 -3.6,-4.8 0,-0.2 0,-0.5 0,-0.6 -0.3,0 -0.3,-0.2 -0.5,-0.3 0,-0.2 0,-0.5 0,-0.6 -0.6,-0.3 -0.5,-1 -0.8,-1.4 -0.5,-0.8 -0.2,-1.9 -0.5,-2.9 -0.3,-1 -0.5,-1.7 -0.6,-2.7 -0.5,-2.7 -1.1,-5.1 -1.4,-7.6 -0.3,-3 1.7,-5.4 3.2,-8.1 1.1,-1.9 2.4,-3.8 4.4,-5.1 0.5,-1.9 1.7,-3.5 3,-5.1 1.3,-1.5 3.4,-2.5 4.9,-3.2 2.2,-1 4.2,-1.6 4.2,-1.6 H 5.4 v 83.9 h 77 c 3,-2.2 6,-3.2 10.2,-5.3 2,-0.7 6.6,-2.8 8.1,-4.3 z M 76.3,62.6 c -0.3,0 -1,0.2 -0.8,-0.2 0.2,-0.8 1.3,-0.8 1.9,-1.1 0.3,-0.2 0.8,-0.5 1.1,-0.3 0.3,0.5 0.8,0.3 1.1,0.6 -0.9,1 -2.2,0.5 -3.3,1 z M 52.1,59.1 c 0,0 -0.2,-0.2 -0.2,-0.3 2.1,-2.7 3.6,-5.2 5.1,-8.1 2.1,-1.1 3.8,-2.7 5.4,-4.4 2.7,-2.9 5.5,-5.4 8.9,-7 1.3,-0.5 2.9,-0.3 4.1,0.2 -0.5,0.6 -1.3,0.5 -1.9,1 -0.2,0 -0.3,0 -0.5,-0.2 0.2,-0.2 0.2,-0.3 0.2,-0.5 -1.6,1.7 -3.8,2.5 -5.1,4.6 -1,1.6 -1.6,3.6 -3.6,4.1 -0.6,0.2 0.2,-0.5 -0.2,-0.3 -4.9,3 -8.4,6.7 -12.2,10.9 z M 65.2,48.7 c -0.2,0.3 -0.3,0.4 -0.5,0.6 -0.2,0.3 -0.3,0.5 -0.6,0.6 -0.2,0 -0.3,0 -0.3,-0.2 0.2,-0.6 0.6,-1.3 1.3,-1.4 0.1,0.1 0.1,0.2 0.1,0.4 z m 7.4,23.7 c -0.1,0.2 -0.2,0.3 -0.4,0.5 0.2,0 0.3,0.1 0.2,0.2 -0.4,0.3 -0.7,0.7 -1.2,0.8 0,0 -0.1,0 -0.2,0 -0.2,0.2 -0.4,0.4 -0.6,0.6 -0.2,0.2 -1.1,0 -0.8,-0.2 0.4,-0.4 0.8,-0.7 1.2,-1.1 0.2,-0.2 0.5,-0.4 0.7,-0.6 0.1,-0.1 0.2,-0.3 0.3,-0.4 0.1,0 0.9,-0.1 0.8,0.2 z m -2.8,-1.3 c -0.1,0 -0.1,0 0,0 -0.6,0.4 -1.2,0.9 -1.8,1.2 -0.7,0.4 -1.4,0.7 -2.1,1 v 0 C 65.8,73.2 65.7,73.2 65.6,73.2 65,73.5 64.5,74 64,74.4 c -0.1,0.1 -0.1,0.1 -0.2,0.2 v 0 0 c -0.1,0.1 -0.2,0.1 -0.2,0.2 v 0 0 c -0.1,0.1 -0.2,0.2 -0.3,0.4 -0.1,0.1 -0.1,0.2 -0.2,0.2 -0.1,0.1 -0.4,0.1 -0.3,-0.1 v 0 c -0.1,0 -0.2,0.1 -0.3,0.1 -0.1,0 -0.2,0.1 -0.2,0.1 h -0.1 -0.1 c -0.2,0.2 -0.4,0.3 -0.6,0.5 -0.3,0.3 -0.6,0.6 -0.9,1 v 0 0 c 0,0 0,0 0,0.1 0,0 0,0 -0.1,0.1 v 0 c 0,0.1 -0.1,0.1 -0.1,0.2 v 0 l -0.1,0.1 c 0,0 0,-0.1 -0.1,-0.1 v -0.1 c 0,-0.1 -0.1,-0.2 -0.1,-0.3 v 0 -0.1 c 0.2,-0.2 0.3,-0.4 0.5,-0.6 v 0 c 0.1,-0.1 0.1,-0.1 0.2,-0.2 0.1,-0.1 0.2,-0.2 0.3,-0.3 l 0.1,-0.1 c 0.2,-0.2 0.3,-0.4 0.5,-0.7 v 0 c 0,0 0,-0.1 0.1,-0.1 0.1,-0.1 0.1,-0.2 0.2,-0.3 0.1,-0.1 0.1,-0.2 0.2,-0.3 v 0 0 c 0,0 0,0 0,-0.1 0.1,-0.1 0.1,-0.2 0.2,-0.4 v 0 -0.1 c 0,-0.1 0,-0.1 0,-0.2 v 0 0 c 0,-0.1 0,-0.2 0.1,-0.2 v -0.1 c 0.2,-0.3 0.4,-0.6 0.6,-0.9 0,0 0,0 -0.1,0 -0.2,0.1 -0.4,0.3 -0.6,0.5 -0.2,0.1 -0.5,-0.1 -0.3,-0.2 0.1,-0.1 0.2,-0.2 0.4,-0.3 v 0 c 0.3,-0.3 0.5,-0.6 0.8,-0.8 0.2,-0.1 0.3,-0.2 0.5,-0.4 0,0 0,0 0.1,-0.1 0.1,-0.1 0.2,-0.3 0.4,-0.4 v 0 c 1.5,-1.5 4.1,-1.4 6.1,-2.3 0.8,-0.3 1.7,0.2 2.5,0 0.5,0 1,0 1.4,0.3 -1.9,0.8 -3.2,1.7 -4.5,2.5 z m 3.2,-11 c -0.2,-0.2 0.5,0 0.6,-0.3 -0.5,0 -0.8,0 -1.3,0 -0.2,0 -0.2,-0.2 -0.2,-0.3 -0.8,0.2 -1.7,0.5 -2.5,0.6 -1.1,0.3 -2.1,1.1 -3.3,1.4 -1.7,0.6 -3.2,2.1 -5.1,2.7 C 61,64.2 61,64 61,63.9 c 0.2,-0.5 0.8,-0.6 1.1,-1.1 0,-0.2 0,-0.3 -0.2,-0.3 1.3,-1.7 3,-2.7 4.6,-4.1 0,-0.2 0,-0.3 0,-0.5 0.5,-0.6 1.3,-1 1.6,-1.7 0.2,-0.5 0.8,-1.1 1.6,-1.4 -0.2,-0.2 -0.5,-0.2 -0.5,-0.5 -0.6,0 -1.3,0.3 -1.9,-0.2 0.3,-0.3 0.6,-0.5 1,-0.6 -0.1,0 -0.3,-0.1 -0.4,-0.2 -0.2,-0.3 0.3,-0.7 0.8,-0.8 0.6,-0.2 1.4,-0.2 1.9,-0.6 -1.1,-0.2 -2.4,0.3 -3.5,-0.3 0.8,-2.1 2.1,-3.8 4,-4.8 0.2,0 0.5,0 0.5,0.2 0,0.8 -0.5,1.4 -1.3,1.6 1.3,0.3 2.5,0.3 3.8,1 -0.2,0.3 -0.5,0.2 -0.6,0.2 0.8,0.5 1.7,0.2 2.5,0.8 -0.5,0.5 -1,0 -1.4,0 4.9,1.4 10.1,2.5 14.3,5.7 -3.5,1.7 -7.1,2.5 -10.9,3.3 -0.5,0 -0.8,0 -1.3,-0.2 0,0.2 0,0.5 -0.2,0.5 -0.6,0 -1.1,0 -1.6,0.3 -0.5,0.2 -1.4,0.4 -1.9,-0.1 z"
   id="path53" />
		<path
   class="st1"
   d="m 236,0 h -90.2 c 0,0 0.2,0 0.9,0.4 0.7,0.4 1.7,0.9 2.3,1.2 1.2,0.6 2.3,1.4 3,2.5 0.3,0.5 0.8,1.4 0.5,2.1 -0.3,0.8 -0.5,2.1 -1.3,2.4 -1,0.5 -2.2,0.5 -3.3,0.3 -0.6,0 -1.3,-0.2 -1.9,-0.3 2.4,1 4.6,2.1 6.2,4.3 0.2,0.3 0.8,0.5 1.4,0.5 0.2,0 0.2,0.3 0.2,0.5 -0.3,0.3 -0.6,0.5 -0.5,1 0.2,0 0.3,0 0.5,0 0.8,-0.3 0.6,-1.9 1.7,-1.4 0.8,0.5 1.1,1.6 0.6,2.4 -0.6,0.6 -1.3,1.1 -1.9,1.6 -0.2,0.3 -0.2,0.8 0,1.1 0.5,0.6 0.6,1.3 0.8,1.9 0.5,1.1 0.6,2.4 1.1,3.5 0.6,2.4 1.3,4.8 1.1,7.1 0,1.3 -0.6,2.4 -0.2,3.6 0.3,1.3 1.1,2.2 1.7,3.3 0.6,1 1.3,1.6 1.7,2.5 1,1.6 2.7,3.2 1.9,5.1 -0.5,1.1 -2.2,1 -3.3,1.6 -1,0.8 -0.2,2.1 0.3,2.9 0.8,1.4 -1,2.4 -2.1,2.9 0.3,0.5 1,0.3 1.1,0.6 0.2,0.8 1,1.3 0.5,2.1 -0.6,1 -2.5,1.4 -1.6,2.9 0.6,1.1 0.2,2.3 -0.2,3.5 -0.5,1.4 -1.7,2.1 -2.9,2.4 -1,0.3 -2.1,0.3 -3,0.2 -0.3,-0.2 -0.6,-0.3 -1,-0.3 -2.7,-0.3 -5.4,-1.1 -8.1,-1.1 -0.8,0.2 -1.6,0.3 -2.2,0.6 -0.7,0.5 -1.4,1.1 -1.9,1.7 v 0 c -0.1,0.1 -0.2,0.3 -0.3,0.4 -0.1,0.1 -0.1,0.2 -0.2,0.2 0,0.1 -0.1,0.1 -0.1,0.2 -0.5,0.6 -0.9,1.2 -1.2,1.8 0,0 0,0.1 -0.1,0.1 0,0.1 -0.1,0.1 -0.1,0.2 -0.5,1 -0.9,1.9 -1.2,2.9 -1.1,3.6 -0.6,6.7 0.1,7.5 0.2,0.2 5.2,1.8 8.7,3.3 1.6,0.7 2.8,1.3 3.7,1.9 H 236 Z"
   id="path54" />
		<path
   class="st2"
   d="m 151.1,30.6 c 0.6,0.2 1.6,0.2 1.6,0.5 -0.3,1.3 -2.2,1.6 -3.2,2.9 H 149 c -0.5,0.3 -0.3,1.1 -0.8,1.1 -0.5,-0.2 -1,0 -1.4,0.2 0.6,0.6 1.4,1.1 2.4,1 0.2,0 0.5,0.3 0.5,0.6 0,0 0.2,0 0.3,-0.2 0.2,0 0.3,0 0.3,0.2 v 0.6 c -0.5,0.6 -1.3,0.3 -1.9,0.5 1.3,0.3 2.5,0.3 3.6,0 1,-0.3 0,-1.9 0.6,-2.7 -0.3,0 0,-0.5 -0.3,-0.5 0.3,-0.3 0.6,-0.8 1,-1 0.3,0 0.8,-0.2 1,-0.5 0,-0.3 -0.6,-0.5 -0.5,-0.8 1,-0.6 1.7,-1.6 1.4,-2.5 -0.2,-0.5 -1.4,-0.5 -2.2,-0.8 -0.8,-0.3 -1.7,0 -2.7,0.2 -0.8,0 -1.6,0.5 -2.4,0.6 -1.1,0.3 -2.1,1 -3,1.6 1.1,-0.5 2.2,-0.6 3.5,-1 1,0 1.8,-0.2 2.7,0 z"
   id="path55" />
	</g>
</g>
<g
   id="zone_1_">
</g>
</svg>
