<?xml version="1.0" encoding="UTF-8" standalone="no"?>
<!-- Generator: Adobe Illustrator 25.2.0, SVG Export Plug-In . SVG Version: 6.00 Build 0)  -->

<svg
   version="1.1"
   id="Calque_1"
   x="0px"
   y="0px"
   viewBox="0 0 300 200"
   xml:space="preserve"
   sodipodi:docname="pil.svg"
   width="300"
   height="200"
   inkscape:version="1.3.2 (091e20e, 2023-11-25)"
   xmlns:inkscape="http://www.inkscape.org/namespaces/inkscape"
   xmlns:sodipodi="http://sodipodi.sourceforge.net/DTD/sodipodi-0.dtd"
   xmlns="http://www.w3.org/2000/svg"
   xmlns:svg="http://www.w3.org/2000/svg"><defs
   id="defs12" /><sodipodi:namedview
   id="namedview12"
   pagecolor="#ffffff"
   bordercolor="#000000"
   borderopacity="0.25"
   inkscape:showpageshadow="2"
   inkscape:pageopacity="0.0"
   inkscape:pagecheckerboard="0"
   inkscape:deskcolor="#d1d1d1"
   inkscape:zoom="1.7080451"
   inkscape:cx="130.26588"
   inkscape:cy="72.304882"
   inkscape:window-width="1840"
   inkscape:window-height="1027"
   inkscape:window-x="0"
   inkscape:window-y="62"
   inkscape:window-maximized="0"
   inkscape:current-layer="Calque_1" />
<style
   type="text/css"
   id="style1">
	.st0{fill-rule:evenodd;clip-rule:evenodd;fill:#3D80E3;}
	.st1{enable-background:new    ;}
	.st2{fill:#3D80E3;}
	.st3{fill:none;}
</style>
<g
   id="g12"
   transform="translate(2,51)">
	<path
   id="Fill-1_2_"
   class="st0"
   d="m 22.2,33.2 c 0.8,-0.9 1.2,-2.3 1.2,-4.1 0,-1.8 -0.5,-3.1 -1.6,-3.8 -1.1,-0.8 -2.8,-1.1 -5,-1.1 h -3.9 v 10.4 h 4.6 c 2.3,0 3.8,-0.4 4.7,-1.4 m 5,-12.1 c 2.2,1.8 3.3,4.7 3.3,8.5 0,3.8 -1.1,6.6 -3.3,8.4 -2.2,1.8 -5.6,2.7 -10.2,2.7 h -4.1 v 8.6 h -7 v -31 h 10.9 c 4.8,0 8.2,0.9 10.4,2.8" />
	<path
   id="Fill-4_2_"
   class="st0"
   d="m 35.2,49.2 h 6.6 V 16.4 h -6.6 z" />
	<path
   id="Fill-6_2_"
   class="st0"
   d="M 63.5,38.3 V 25.4 h 6.7 v 23.8 h -6.7 v -3.1 c -1.7,2.3 -3.8,3.5 -6.4,3.5 -2.4,0.1 -4.8,-0.8 -6.6,-2.5 C 48.7,45.5 47.8,43 47.8,39.8 V 25.4 h 6.7 v 13 c 0,3.7 1.3,5.5 4,5.5 1.3,0 2.5,-0.5 3.5,-1.4 1,-1 1.5,-2.4 1.5,-4.2" />
	<path
   id="Fill-7_2_"
   class="st0"
   d="m 93.1,36.8 c 0,-1.9 -0.5,-3.4 -1.6,-4.5 -1,-1.1 -2.5,-1.7 -3.9,-1.6 -1.5,0 -3,0.6 -4,1.6 -1.1,1.1 -1.7,2.6 -1.7,4.5 -0.1,1.7 0.5,3.3 1.7,4.6 1,1.1 2.5,1.8 4,1.7 1.5,0 3,-0.6 4,-1.7 1,-1.2 1.5,-2.7 1.5,-4.6 m 0.9,8.4 c -2,2.3 -4.8,3.5 -7.8,3.5 -2.9,0.1 -5.8,-1.1 -7.9,-3.2 -2.1,-2.1 -3.2,-4.9 -3.2,-8.4 0,-3.5 1.1,-6.4 3.3,-8.7 2.2,-2.3 4.7,-3.4 7.5,-3.4 2.8,0 5.2,1.2 7,3.5 v -3.1 h 6.6 v 20.7 c 0,1.9 -0.3,3.9 -1.1,5.7 -0.6,1.5 -1.7,2.9 -3,3.9 -2.5,2 -5.5,3 -8.7,2.9 -1.8,0 -3.7,-0.3 -5.4,-0.9 -1.7,-0.5 -3.4,-1.4 -4.8,-2.5 l 2.6,-5 c 2,1.6 4.4,2.4 6.9,2.5 2.4,0 4.4,-0.6 5.8,-1.8 1.5,-1.2 2.2,-3.1 2.2,-5.7" />
	<path
   id="Fill-8_2_"
   class="st0"
   d="m 117.6,49.2 h 6.6 V 25.4 h -6.6 z m 0.6,-26.8 c -1.6,-1.5 -1.6,-4 -0.1,-5.6 1.5,-1.6 4,-1.6 5.6,-0.1 1.6,1.5 1.6,4 0.1,5.6 -0.7,0.8 -1.8,1.2 -2.8,1.2 -1.1,0.1 -2.1,-0.4 -2.8,-1.1 z" />
	<path
   id="Fill-9_2_"
   class="st0"
   d="m 137.2,36 v 13.3 h -6.6 V 25.4 h 6.6 v 2.7 c 2,-2 4.3,-3.1 6.8,-3.1 2.4,-0.1 4.7,0.9 6.3,2.7 1.7,1.8 2.5,4.1 2.5,7.1 v 14.5 h -6.6 V 35.8 c 0,-3.7 -1.3,-5.5 -4,-5.5 -1.3,0 -2.6,0.5 -3.5,1.4 -1,1 -1.5,2.4 -1.5,4.3" />
	<path
   id="Fill-10_2_"
   class="st0"
   d="m 170.5,49.2 h 6.6 V 16.4 h -6.6 z" />
	<path
   id="Fill-11_2_"
   class="st0"
   d="M 196.9,40.2 V 39 h -4.2 c -2.7,0 -4,0.8 -4,2.5 0,0.8 0.3,1.5 1,2 0.8,0.5 1.8,0.7 2.7,0.7 1.1,0 2.2,-0.4 3.1,-1.1 1,-0.7 1.5,-1.8 1.4,-2.9 z m 6.7,9 h -6.2 v -2.9 c -1.7,2.2 -3.8,3.2 -6.3,3.2 -2.3,0.1 -4.6,-0.7 -6.3,-2.2 -1.7,-1.4 -2.7,-3.6 -2.6,-5.8 0,-2.4 0.9,-4.3 2.7,-5.5 1.8,-1.2 4.2,-1.8 7.3,-1.8 h 5 v -0.1 c 0,-2.5 -1.3,-3.8 -4,-3.8 -1.2,0 -2.5,0.2 -3.6,0.7 -1.2,0.4 -2.3,1 -3.3,1.7 l -3,-4.3 c 3.1,-2.3 6.9,-3.5 10.7,-3.4 2.9,0 5.2,0.7 7.1,2.2 1.8,1.4 2.7,3.7 2.7,6.9 z" />
	<path
   id="Fill-12_2_"
   class="st0"
   d="m 216.2,37.4 c -0.1,1.7 0.5,3.4 1.6,4.7 1,1.2 2.4,1.8 3.9,1.8 1.5,0 3,-0.7 4,-1.8 1.2,-1.3 1.8,-3 1.7,-4.7 0.1,-1.8 -0.5,-3.5 -1.7,-4.8 -1,-1.2 -2.5,-1.9 -4,-1.9 -1.5,0 -3,0.7 -4,1.9 -1,1.3 -1.5,3 -1.5,4.8 M 223.4,25 c 2.9,0 5.4,1.1 7.6,3.4 2.2,2.3 3.2,5.2 3.2,8.7 0,3.5 -1.1,6.5 -3.3,8.9 -2.2,2.4 -4.7,3.6 -7.5,3.6 -2.8,0 -5.2,-1.2 -7,-3.5 v 3.1 h -6.6 V 16.4 h 6.6 v 11.7 c 1.7,-2 4.3,-3.1 7,-3.1" />
	<path
   id="Fill-13_2_"
   class="st0"
   d="m 248.9,34.5 c -1.1,-0.3 -2.2,-0.7 -3.2,-1.2 -0.6,-0.3 -1,-0.8 -1,-1.5 0,-1.1 1,-1.7 3.1,-1.7 1.1,0 2.1,0.2 3.1,0.6 v 4.5 c -0.6,-0.2 -1.2,-0.4 -2,-0.7 z m 2,-28.5 v 19.4 c -1,-0.2 -1.9,-0.3 -2.9,-0.3 -2.8,0 -5.1,0.7 -6.9,2.1 -1.7,1.3 -2.7,3.3 -2.7,5.4 -0.1,2 0.9,3.9 2.7,5 0.8,0.5 1.5,0.9 2.4,1.3 0.7,0.3 1.7,0.6 3,1.1 1.1,0.3 2.1,0.7 3,1.3 0.7,0.5 1,1 1,1.5 0,0.6 -0.3,1.1 -0.8,1.3 -0.6,0.4 -1.3,0.5 -2,0.5 -2.9,0 -5.7,-1 -7.9,-2.9 l -2.9,4.2 c 1.5,1.2 3.3,2.2 5.2,2.8 1.8,0.6 3.6,0.9 5.5,1 1.1,0 2.2,-0.1 3.2,-0.4 V 92 h 3.4 V 6 Z" />
	<g
   class="st1"
   id="g8">
		<path
   class="st2"
   d="m 140,81.5 h 9.8 v 3 H 136.3 V 62.9 h 3.7 z"
   id="path1" />
		<path
   class="st2"
   d="m 151.8,76.3 c 0,-1.6 0.3,-3 0.9,-4.2 0.6,-1.3 1.5,-2.2 2.6,-2.9 1.1,-0.7 2.4,-1 3.9,-1 2.2,0 3.9,0.7 5.3,2.1 1.3,1.4 2.1,3.2 2.2,5.5 v 0.8 c 0,1.6 -0.3,3 -0.9,4.2 -0.6,1.2 -1.5,2.2 -2.6,2.9 -1.1,0.7 -2.4,1 -3.9,1 -2.3,0 -4.1,-0.8 -5.4,-2.3 -1.4,-1.5 -2,-3.5 -2,-6 v -0.1 z m 3.6,0.4 c 0,1.6 0.3,2.9 1,3.9 0.7,0.9 1.6,1.4 2.8,1.4 1.2,0 2.2,-0.5 2.8,-1.4 0.7,-0.9 1,-2.3 1,-4.2 0,-1.6 -0.3,-2.9 -1,-3.8 -0.7,-0.9 -1.6,-1.4 -2.8,-1.4 -1.2,0 -2.1,0.5 -2.8,1.4 -0.6,0.8 -1,2.2 -1,4.1 z"
   id="path2" />
		<path
   class="st2"
   d="m 178.4,71.8 c -0.5,-0.1 -1,-0.1 -1.5,-0.1 -1.6,0 -2.8,0.6 -3.3,1.9 v 11 H 170 v -16 h 3.4 l 0.1,1.8 c 0.9,-1.4 2.1,-2.1 3.6,-2.1 0.5,0 0.9,0.1 1.3,0.2 z"
   id="path3" />
		<path
   class="st2"
   d="m 189.2,71.8 c -0.5,-0.1 -1,-0.1 -1.5,-0.1 -1.6,0 -2.8,0.6 -3.3,1.9 v 11 h -3.6 v -16 h 3.4 l 0.1,1.8 c 0.9,-1.4 2.1,-2.1 3.6,-2.1 0.5,0 0.9,0.1 1.3,0.2 z"
   id="path4" />
		<path
   class="st2"
   d="m 200.9,84.5 c -0.2,-0.3 -0.3,-0.8 -0.4,-1.5 -1.1,1.2 -2.5,1.8 -4.2,1.8 -1.6,0 -2.9,-0.5 -3.9,-1.4 -1,-0.9 -1.5,-2.1 -1.5,-3.4 0,-1.7 0.6,-3 1.9,-3.9 1.3,-0.9 3.1,-1.4 5.4,-1.4 h 2.2 v -1.1 c 0,-0.8 -0.2,-1.5 -0.7,-2 -0.5,-0.5 -1.2,-0.7 -2.1,-0.7 -0.8,0 -1.5,0.2 -2,0.6 -0.5,0.4 -0.8,0.9 -0.8,1.6 h -3.6 c 0,-0.9 0.3,-1.7 0.9,-2.5 0.6,-0.8 1.4,-1.4 2.4,-1.8 1,-0.4 2.1,-0.7 3.4,-0.7 1.9,0 3.4,0.5 4.5,1.4 1.1,0.9 1.7,2.3 1.7,4 v 7.2 c 0,1.4 0.2,2.6 0.6,3.5 v 0.3 z m -4,-2.6 c 0.7,0 1.4,-0.2 2,-0.5 0.6,-0.3 1.1,-0.8 1.4,-1.4 v -3 h -1.9 c -1.3,0 -2.3,0.2 -3,0.7 -0.7,0.5 -1,1.1 -1,2 0,0.7 0.2,1.2 0.7,1.7 0.4,0.3 1,0.5 1.8,0.5 z"
   id="path5" />
		<path
   class="st2"
   d="m 207.9,64.3 c 0,-0.6 0.2,-1 0.5,-1.4 0.4,-0.4 0.9,-0.5 1.5,-0.5 0.7,0 1.2,0.2 1.5,0.5 0.4,0.4 0.5,0.8 0.5,1.4 0,0.5 -0.2,1 -0.5,1.4 -0.4,0.4 -0.9,0.5 -1.5,0.5 -0.7,0 -1.2,-0.2 -1.5,-0.5 -0.3,-0.4 -0.5,-0.8 -0.5,-1.4 z m 3.8,20.2 h -3.6 v -16 h 3.6 z"
   id="path6" />
		<path
   class="st2"
   d="m 219.2,68.5 0.1,1.9 c 1.2,-1.4 2.7,-2.1 4.7,-2.1 3.3,0 5,1.9 5.1,5.7 v 10.6 h -3.6 V 74.1 c 0,-1 -0.2,-1.8 -0.7,-2.3 -0.4,-0.5 -1.2,-0.7 -2.2,-0.7 -1.5,0 -2.5,0.7 -3.2,2 v 11.4 h -3.6 v -16 z"
   id="path7" />
		<path
   class="st2"
   d="m 240,84.8 c -2.3,0 -4.1,-0.7 -5.5,-2.2 -1.4,-1.4 -2.1,-3.3 -2.1,-5.7 v -0.4 c 0,-1.6 0.3,-3 0.9,-4.3 0.6,-1.3 1.5,-2.2 2.6,-2.9 1.1,-0.7 2.4,-1.1 3.7,-1.1 2.2,0 3.9,0.7 5.1,2.1 1.2,1.4 1.8,3.4 1.8,5.9 v 1.5 H 236 c 0.1,1.3 0.5,2.4 1.3,3.1 0.8,0.8 1.7,1.2 2.9,1.2 1.6,0 3,-0.7 4,-2 l 1.9,1.9 c -0.6,1 -1.5,1.7 -2.6,2.2 -1,0.4 -2.2,0.7 -3.5,0.7 z m -0.5,-13.7 c -1,0 -1.8,0.3 -2.4,1 -0.6,0.7 -1,1.7 -1.2,2.9 h 6.9 v -0.3 c -0.1,-1.2 -0.4,-2.1 -1,-2.7 -0.5,-0.6 -1.3,-0.9 -2.3,-0.9 z"
   id="path8" />
	</g>
	<path
   class="st3"
   d="m 286.9,15.8 c 0,0 -0.1,0 0,0 l -2.1,2.5 c -1.3,1.5 -3.5,1.7 -5.1,0.4 v 0 c -1.5,-1.3 -1.7,-3.5 -0.4,-5.1 l 2.1,-2.5 c 0.3,-0.4 0.7,-0.7 1.1,-0.9 L 278.6,8.3 C 278.2,8.1 277.7,8 277.3,8 276.8,8 276.4,8.1 276,8.3 l -6.1,3 c -0.8,0.4 -1.5,1.2 -1.7,2.1 l -1.5,6.8 c -0.2,0.9 0,1.9 0.6,2.6 l 4.3,5.5 c 0.6,0.7 1.5,1.2 2.4,1.2 h 6.8 v 0 c 0.9,0 1.8,-0.4 2.4,-1.2 l 4.3,-5.5 c 0.6,-0.7 0.8,-1.7 0.6,-2.6 z"
   id="path9" />
	<g
   id="g11">
		<path
   class="st2"
   d="m 290.1,21 c 0,-0.4 0,-0.8 -0.1,-1.2 v 0 L 288.5,13 c -0.3,-1.6 -1.4,-2.9 -2.8,-3.6 l -6.1,-3 C 278.8,6.2 278,6 277.3,6 h -0.1 c -0.8,0 -1.5,0.2 -2.2,0.5 l -6.1,3 c -1.4,0.7 -2.5,2 -2.8,3.6 l -1.5,6.8 c -0.1,0.4 -0.1,0.8 -0.1,1.1 v 0.1 c 0,1.2 0.4,2.3 1.1,3.2 l 4.3,5.5 c 1,1.3 2.5,2 4.1,2 h 6.8 c 1.6,0 3.1,-0.7 4.1,-2 l 4.3,-5.5 c 0.5,-1 0.9,-2.1 0.9,-3.3 z m -2.8,1.9 -4.3,5.5 c -0.6,0.7 -1.5,1.2 -2.4,1.2 v 0 h -6.8 c -0.9,0 -1.8,-0.4 -2.4,-1.2 l -4.3,-5.5 c -0.6,-0.7 -0.8,-1.7 -0.6,-2.6 l 1.5,-6.8 c 0.2,-0.9 0.8,-1.7 1.7,-2.1 l 6.1,-3 c 0.4,-0.2 0.9,-0.3 1.3,-0.3 0.5,0 0.9,0.1 1.3,0.3 l 3.9,1.9 c 1.2,-0.6 2.8,-0.5 3.9,0.4 v 0 c 1.5,1.3 1.7,3.5 0.5,5 l 1,4.5 c 0.4,1.1 0.2,2 -0.4,2.7 z"
   id="path10" />
		<path
   class="st2"
   d="m 281.3,11.2 -2.1,2.5 c -1.3,1.5 -1.1,3.8 0.4,5.1 v 0 c 1.5,1.3 3.8,1.1 5.1,-0.4 l 2.1,-2.5 c 0,0 0,0 0,0 1.2,-1.5 1,-3.8 -0.5,-5 v 0 c -1.1,-1 -2.7,-1.1 -3.9,-0.4 -0.4,0 -0.7,0.3 -1.1,0.7 z"
   id="path11" />
	</g>
</g>
</svg>
